<svg xmlns="http://www.w3.org/2000/svg" xmlns:xlink="http://www.w3.org/1999/xlink" viewBox="0 0 1024 1388" preserveAspectRatio="xMinYMin slice" aria-labelledby="timeline-title" aria-describedby="timeline-desc"><path class="st0" d="M0 259.5h1023.9V1388H0z"/><path class="st1" d="M720.4 57.5H297.5L314 88.4l-16.5 30.8h422.9l-16.5-30.8z"/><path class="st1" d="M696.4 88.3l1.7-2.9 11.3-21.1H308.5l11.3 21.1 1.7 2.9-1.7 3.9-11.3 22.2h400.9l-11.3-22.2z"/><path class="st2" d="M710.9 115.4h-404l12-23.6 1.4-3.4-1.3-2.5-12.1-22.5H711l-13.5 25 1.5 3.4 11.9 23.6zm-400.8-2h397.7l-10.6-20.8-1.8-4.4 1.9-3.3 10.5-19.7H310.1l12.4 23-1.8 4.3-10.6 20.9z"/><g><text transform="translate(427.955 43.422)" class="st3 st4 st5">A DAY</text><text transform="matrix(1.14 0 0 1 365 105.857)" class="st6 st7 st8 st9">IN THE LIFE</text><text transform="matrix(1.14 0 0 1 469.087 161.182)" class="st3 st10 st8 st9">of a</text><text transform="translate(225.516 237.428)" class="st1 st11 st12">Common House Cat</text></g><g aria-label="the timeline, from morning to night"><a xlink:href="#a" aria-labelledby="play-time play-text play-description" tabindex="0" id="a"><text transform="translate(533.15 485.147)" class="st13 st14 st15">3-5AM</text><path class="st13" d="M510.2 419.9h17v153.6h-17z"/><path class="st13" d="M513.9 465l-12.3 9.4 17.6 10.9"/><circle class="st13 time-circle" cx="352.9" cy="419.9" r="130.5"/><g class="play-title"><text transform="translate(288.118 338.939)" class="st2 st16">PLAYTIME!</text></g><path class="st17" d="M252.3 477.3h201.3v68H252.3z"/><text transform="translate(260.902 490.224)"><tspan x="0" y="0" class="st18 st14 st19">MAKES A RUCKUS IN </tspan> <tspan x="21" y="21.6" class="st18 st14 st19">THE HOUSE ALL </tspan><tspan x="61.5" y="43.2" class="st18 st14 st19">NIGHT.</tspan> <tspan class="offscreen">A gray kitten tangled in a ball of yarn.</tspan></text><image width="259" height="259" xlink:href="https://s3-us-west-2.amazonaws.com/s.cdpn.io/44216/cat_tied.png" transform="translate(304.92 361.792) scale(.3707)" overflow="visible"/></a><a xlink:href="#b" aria-labelledby="wakeup-time wakeup-text wakeup-description" tabindex="0" id="b"><text transform="translate(261.83 598.433)" class="st21"><tspan x="0" y="0" class="st20 st14 st15">30 MIN BEFORE</tspan> <tspan x="0" y="33.9" class="st20 st14 st15"> YOUR ALARM</tspan></text><path class="st20" d="M510.2 573.5h17v47.7h-17z"/><path class="st20" d="M524.9 605.3l12.3-9.3-17.6-11"/><circle class="st20 time-circle" cx="713.6" cy="616.5" r="143.1"/><g class="wakeup-title"><text transform="translate(649.106 546.348)" class="st2 st16">WAKE UP!</text></g><path class="st17" d="M614.5 670.3h204.2v68H614.5z"/><text transform="translate(619.12 683.235)"><tspan x="0" y="0" class="st22 st14 st19">DECIDES YOU’VE HAD </tspan> <tspan x="24" y="21.6" class="st22 st14 st19">ENOUGH SLEEP. </tspan> <tspan class="offscreen">An orange kitten meowing loudly.</tspan></text><image width="256" height="256" xlink:href="https://s3-us-west-2.amazonaws.com/s.cdpn.io/44216/cat_sing.png" transform="matrix(.375 0 0 .375 664.106 557)" overflow="visible"/></a><a xlink:href="#c" aria-labelledby="sleep-time sleep-text sleep-description" tabindex="0" id="c"><text transform="translate(559.172 800.773)" class="st21"><tspan x="0" y="0" class="st25 st14 st15">WHEN YOU LEAVE TILL </tspan> <tspan x="0" y="33.9" class="st25 st14 st15">5 MIN BEFORE YOU’RE HOME</tspan></text><path class="st25" d="M510.2 620.5h17v326.3h-17z"/><path class="st25" d="M513.9 752l-12.3 9.4 17.6 10.9"/><circle class="st25 time-circle" cx="322.9" cy="802.3" r="130.5"/><g class="sleep-title"><text transform="translate(242 735.695)" class="st2 st16">SLEEPY TIME</text></g><path class="st17" d="M220.4 838.8h205v94h-205z"/><text transform="translate(237.892 851.728)"><tspan x="0" y="0" class="st2 st14 st19">LITERALLY SLEEPS </tspan> <tspan x="7.5" y="21.6" class="st2 st14 st19">THE WHOLE TIME </tspan> <tspan x="19.5" y="43.2" class="st2 st14 st19">YOU’RE GONE.</tspan> <tspan class="offscreen">A gray kitten curled up in a tight little ball, sleeping.</tspan></text><image width="256" height="256" xlink:href="https://s3-us-west-2.amazonaws.com/s.cdpn.io/44216/cat_sleep.png" transform="matrix(.375 0 0 .375 268.95 741)" overflow="visible"/></a><a xlink:href="#d" aria-labelledby="feed-time feed-text feed-description" tabindex="0" id="d"><text transform="translate(411.885 998.565)" class="st1 st14 st15">6PM</text><path class="st1" d="M510.2 850.9h17v283h-17z"/><path class="st1" d="M524.9 1001.3l12.3-9.3-17.6-11"/><circle class="st1 time-circle" cx="721.6" cy="991.4" r="130.5"/><g class="feed-title"><text transform="translate(680.625 902.114)" class="st21"><tspan x="0" y="0" class="st2 st16 st23">GUILT</tspan> <tspan x="-18.5" y="33.9" class="st2 st16 st23">FEEDING</tspan></text></g><path class="st17" d="M636 1048h180v82.5H636z"/><text transform="translate(637.487 1060.893)"><tspan x="0" y="0" class="st24 st14 st19">POOR, POOR KITTY. </tspan> <tspan x="10" y="21.6" class="st24 st14 st19">HOME ALONE ALL </tspan> <tspan x="67.5" y="43.2" class="st24 st14 st19">DAY.</tspan> <tspan class="offscreen">A sad, orange kitten staring down at an empty food bowl.</tspan></text><image width="256" height="256" xlink:href="https://s3-us-west-2.amazonaws.com/s.cdpn.io/44216/cat_hungry.png" transform="matrix(.375 0 0 .375 668.6 943.565)" overflow="visible"/></a><a xlink:href="#e" aria-labelledby="cuddle-time cuddle-text cuddle-description" tabindex="0" id="e"><text transform="translate(563.3 1196.946)" class="st26 st14 st15">8PM</text><path class="st26" d="M510.2 1133.9h17v110h-17z"/><path class="st26" d="M513.9 1181l-12.3 9.4 17.6 10.9"/><circle class="st26 time-circle" cx="317.6" cy="1181.4" r="130.5"/><g class="cuddle-title"><text transform="translate(266.52 1096.438)" class="st21"><tspan x="0" y="0" class="st2 st16">CUDDLE</tspan> <tspan x="20.2" y="33.9" class="st2 st16">TIME</tspan></text></g><path class="st17" d="M222.6 1233h190.7v77H222.6z"/><text transform="translate(240.925 1245.886)"><tspan x="0" y="0" class="st27 st14 st19">HELPS YOU WITH </tspan> <tspan x="-9" y="21.6" class="st27 st14 st19">YOUR WORK EMAIL</tspan> <tspan class="offscreen">A gray kitten stretched out on a laptop.</tspan></text><image width="259" height="259" xlink:href="https://s3-us-west-2.amazonaws.com/s.cdpn.io/44216/cat_laptop.png" transform="translate(267.999 1140.946) scale(.3707)" overflow="visible"/></a></g></svg>