<svg xmlns="http://www.w3.org/2000/svg" width="1121.78" height="1128.604"><path d="M520.151 186.688c.21.075.415.16.63.228l-.59.097-.04-.326zm595.3 604.37l-3.1-2.24c-6.824-4.935-16.45-3.387-21.374 3.438l-24.312 33.622 24.487-33.875c4.838-6.686 3.325-16.11-3.362-20.944l-18.638-13.467c.95-24.175-13.237-39.023-32.962-53.29l-.025.01c-17.376-13.21-39.126-26.457-65.413-36.723 6.838-29.13 10.475-59.49 10.475-90.706 0-56.08-11.713-109.42-32.764-157.75a272.386 272.386 0 0 0 33-23.756c18.876-14.1 31.39-29.68 28.114-55.613l16.062-11.194c6.763-4.716 8.45-14.114 3.725-20.88l-.175-.257c4.813 6.908 14.413 8.622 21.313 3.807l3.15-2.19c6.9-4.814 8.625-14.408 3.8-21.318l-72.225-103.645c-4.813-6.91-14.412-8.622-21.313-3.807l-3.15 2.19c-6.9 4.814-8.625 14.406-3.8 21.316l-.187-.256c-4.713-6.77-14.11-8.448-20.88-3.73l-18.86 13.145c-22.508-8.877-41.204-.383-61.182 13.54v.02a271.763 271.763 0 0 0-37.948 30.29c-38.178-27.72-81.5-48.773-128.274-61.46 2.01-19.28 1.77-37.11.334-52.88-.724-20.95-5.344-38.413-22.81-50.52v-24.61c0-8.25-6.75-15-15-15h-.313c8.423 0 15.313-6.89 15.313-15.313v-3.828c0-8.422-6.89-15.313-15.313-15.313h-126.33c-8.422 0-15.312 6.892-15.312 15.314v3.828c0 8.423 6.89 15.313 15.313 15.313h-.313c-8.25 0-15 6.75-15 15v20.056c-26.087 13.194-30.608 34.995-30.608 61.846l.014.01a272.474 272.474 0 0 0 2.786 46.03c-58.68 15.878-111.945 44.91-156.43 83.76-20.974-17.866-42.43-30.656-61.81-39.774-20.906-11.29-40.56-16.202-63.246-2.748l-17.596-10.298c-6.957-4.068-16.11-1.784-20.34 5.076l-.353.57c4.423-7.174 2.017-16.57-5.35-20.877l-3.348-1.96c-7.367-4.308-17.013-1.964-21.437 5.21l-26.672 43.256c-2.32 1.77-4.354 3.925-5.938 6.495a23.433 23.433 0 0 0-3.13 8.212l-30.618 49.653c-4.425 7.174-2.018 16.57 5.35 20.877l3.347 1.96c7.367 4.308 17.013 1.963 21.437-5.21l.015-.026a14.967 14.967 0 0 0 5.194 20.82l19.975 11.684c1.125 24.016 16.835 37.517 38.134 49.975l.017-.01a280.455 280.455 0 0 0 52.722 25.356c-14.087 40.61-21.763 84.212-21.763 129.614 0 16.75 1.05 33.256 3.072 49.458-27.398 4.513-51.04 12.75-70.432 21.785-21.9 8.723-38.024 20.53-41.58 46.45l-15.174 5.465c-9.51 3.427-14.994 12.584-12.187 20.35l7.144 19.768v.004l-3.863-10.688-3.18-8.802c-2.86-7.92-11.7-12.065-19.638-9.206l-3.608 1.3c-7.94 2.858-12.093 11.678-9.23 19.6L64.81 851.199c2.863 7.923 11.7 12.065 19.64 9.206l3.608-1.298c7.938-2.86 12.092-11.68 9.23-19.602l-8.33-23.054.017.01 8.44 23.35c2.8 7.75 12.86 11.295 22.35 7.877l18.37-6.62c19.418 14.367 39.663 11.01 62.55 2.757v-.017c20.52-6.844 43.493-17.215 66.576-32.9 51.866 70.493 126.554 123.144 213.176 147.06a272.59 272.59 0 0 0 .22 47.024c.81 23.423 6.487 42.486 29.545 54.58v19.577c0 8.25 6.75 15 15 15h.313c-8.423 0-15.313 6.892-15.313 15.313v3.83c0 8.42 6.89 15.312 15.313 15.312h126.33c8.422 0 15.312-6.892 15.312-15.313v-3.83c0-8.42-6.89-15.312-15.313-15.312h.313c8.25 0 15-6.75 15-15v-22.99c20.15-13.39 23.87-33.587 23.87-57.938l-.012-.01a272.565 272.565 0 0 0-1.92-39.638c72.178-19.47 136.173-58.856 185.733-111.914a272.134 272.134 0 0 0 43.61 32.103c19.454 13.06 38.228 19.625 61.528 8.024l15.875 11.47c6.687 4.832 16.112 3.316 20.937-3.37l20.038-27.713-14.363 19.878-5.487 7.583c-4.938 6.826-3.388 16.448 3.437 21.38l3.1 2.244c6.825 4.933 16.45 3.386 21.387-3.44l29.75-41.152c2.413-1.58 4.588-3.573 6.35-6.018a24.242 24.242 0 0 0 3.763-7.973l34.138-47.237c4.937-6.827 3.387-16.448-3.438-21.382" fill="#80d3b9"/><path d="M76.317 821.634l-42.935-118.83c-2.862-7.923-11.7-12.066-19.637-9.207l-3.61 1.298c-7.938 2.858-12.092 11.68-9.23 19.602l42.933 118.83c2.864 7.923 11.7 12.066 19.64 9.208l3.608-1.3c7.938-2.86 12.092-11.68 9.23-19.602" fill="#372526"/><path d="M73.134 812.832L36.562 711.606c-2.438-6.75-9.004-10.625-14.59-8.613l-2.54.914c-5.586 2.01-8.162 9.18-5.724 15.926l36.574 101.228c2.437 6.75 9.004 10.624 14.59 8.612l2.54-.915c5.586-2.01 8.162-9.177 5.724-15.926" fill="#cf4554"/><path d="M76.442 821.941l-43.16-119.42c-2.81-7.767 2.676-16.924 12.186-20.35l128.16-46.163c9.49-3.42 19.547.126 22.35 7.876l43.16 119.42c2.807 7.766-2.679 16.924-12.189 20.35L98.79 829.817c-9.49 3.417-19.546-.128-22.347-7.878m859.542-636.023l72.23 103.645c4.813 6.91 14.413 8.622 21.313 3.807l3.15-2.19c6.9-4.814 8.625-14.408 3.8-21.316l-72.225-103.645c-4.813-6.91-14.41-8.625-21.32-3.81l-3.14 2.19c-6.91 4.815-8.622 14.408-3.807 21.318" fill="#372526"/><path d="M941.337 193.593l61.527 88.29c4.1 5.886 11.438 7.93 16.3 4.54l2.213-1.54c4.862-3.388 5.475-10.976 1.375-16.863l-61.525-88.29c-4.1-5.886-11.436-7.93-16.3-4.54l-2.21 1.54c-4.86 3.388-5.484 10.977-1.38 16.863" fill="#cf4554"/><path d="M935.807 185.658l72.582 104.16c4.726 6.768 3.038 16.165-3.724 20.88l-86.363 60.185c-6.77 4.717-16.165 3.04-20.883-3.73l-72.587-104.158c-4.716-6.768-3.038-16.166 3.73-20.882l86.36-60.185c6.77-4.716 16.168-3.038 20.884 3.73m-860.52 135.94l66.357-107.613c4.424-7.173 2.016-16.568-5.35-20.877l-3.347-1.96c-7.368-4.308-17.014-1.963-21.44 5.21L45.15 303.973c-4.424 7.175-2.017 16.57 5.35 20.88l3.347 1.956c7.367 4.31 17.014 1.965 21.437-5.21" fill="#372526"/><path d="M80.201 313.628l56.527-91.67c3.77-6.112 2.61-13.594-2.573-16.625l-2.356-1.38c-5.183-3.03-12.506-.51-16.275 5.6l-56.528 91.67c-3.768 6.113-2.61 13.594 2.574 16.626l2.358 1.38c5.182 3.03 12.507.51 16.276-5.6" fill="#cf4554"/><path d="M75.301 321.574l66.695-108.16c4.23-6.86 13.382-9.144 20.34-5.074l114.607 67.035a14.972 14.972 0 0 1 5.195 20.822l-66.695 108.16c-4.23 6.86-13.383 9.142-20.34 5.072l-114.61-67.035a14.97 14.97 0 0 1-5.193-20.82m994.702 452.814l-74.013 102.38c-4.937 6.828-3.387 16.45 3.438 21.383l3.1 2.242c6.825 4.934 16.45 3.386 21.387-3.44l74-102.383c4.938-6.825 3.388-16.446-3.437-21.38l-3.1-2.243c-6.825-4.935-16.45-3.386-21.375 3.44" fill="#372526"/><path d="M1064.515 781.97l-63.038 87.215c-4.212 5.815-3.712 13.413 1.088 16.884l2.187 1.58c4.8 3.473 12.163 1.555 16.375-4.26l63.038-87.214c4.2-5.815 3.712-13.412-1.088-16.884l-2.188-1.578c-4.8-3.473-12.174-1.555-16.374 4.26" fill="#cf4554"/><path d="M1070.177 774.133l-74.375 102.89c-4.825 6.686-14.25 8.203-20.938 3.37l-104.17-75.3c-6.686-4.833-8.202-14.258-3.37-20.943l74.374-102.89c4.835-6.686 14.255-8.202 20.943-3.37l104.175 75.3c6.687 4.832 8.2 14.257 3.362 20.943m-439.309 302.15H504.54c-8.422 0-15.313 6.89-15.313 15.312v3.828c0 8.422 6.89 15.313 15.31 15.313H630.87c8.42 0 15.312-6.89 15.312-15.313v-3.828c0-8.422-6.89-15.312-15.313-15.312" fill="#372526"/><path d="M621.511 1076.283H513.897c-7.175 0-13.045 4.848-13.045 10.775v2.694c0 5.927 5.87 10.776 13.045 10.776h107.614c7.175 0 13.045-4.85 13.045-10.776v-2.694c0-5.926-5.87-10.775-13.046-10.775" fill="#cf4554"/><path d="M631.182 1076.283H504.227c-8.25 0-15-6.75-15-15V956.018c0-8.25 6.75-15 15-15h126.955c8.25 0 15 6.75 15 15v105.265c0 8.25-6.75 15-15 15M504.537 34.454H630.87c8.42 0 15.312-6.89 15.312-15.312v-3.83c0-8.42-6.89-15.312-15.313-15.312H504.54c-8.422 0-15.313 6.892-15.313 15.313v3.83c0 8.42 6.89 15.31 15.31 15.31" fill="#372526"/><path d="M513.897 34.454h107.614c7.175 0 13.045-4.85 13.045-10.776v-2.694c0-5.926-5.87-10.775-13.046-10.775H513.897c-7.175 0-13.045 4.85-13.045 10.776v2.694c0 5.927 5.87 10.776 13.045 10.776" fill="#cf4554"/><path d="M504.227 34.454h126.955c8.25 0 15 6.75 15 15v105.264c0 8.25-6.75 15-15 15H504.227c-8.25 0-15-6.75-15-15V49.453c0-8.25 6.75-15 15-15" fill="#372526"/><path d="M960.252 559.013c0 218.336-177 395.334-395.34 395.334-218.335 0-395.332-177-395.332-395.335 0-218.338 176.997-395.334 395.333-395.334 218.338 0 395.34 176.998 395.34 395.335" fill="#be8858"/><path d="M343.937 389.203l487.47-15.64-3.98 333.745-477.575 8.63-5.915-326.735" fill="#efefee"/><path d="M371.677 364.878l480.953 80.97-69.838 326.382-469.866-85.888 58.751-321.464" fill="#fff"/><path d="M1014.065 763.428c13.587 8.855 15.212 30.45 3.625 48.233-11.588 17.782-32 25.018-45.588 16.163-13.588-8.855-15.213-30.45-3.625-48.232 11.588-17.783 31.988-25.02 45.587-16.164" fill="#544746"/><path d="M507.685 374.418l137.197-3.455c6.17-.155 11.09-5.33 10.934-11.497l-.97-38.463c-.155-6.167-5.33-11.087-11.497-10.932l-137.198 3.453c-6.17.155-11.09 5.33-10.932 11.498l.967 38.462c.155 6.168 5.33 11.088 11.498 10.933" fill="#99a09e"/><path d="M509.697 370.625l132.986-3.347c5.98-.15 10.75-5.01 10.605-10.8l-.908-36.1c-.145-5.79-5.156-10.405-11.135-10.254l-132.987 3.348c-5.98.15-10.75 5.01-10.605 10.8l.91 36.1c.144 5.79 5.155 10.403 11.134 10.253" fill="#777886"/><path d="M504.95 211.702l133.927-3.37c8.248-.21 15.165 6.37 15.373 14.617l1.915 76.08c.207 8.248-6.372 15.165-14.618 15.373l-133.928 3.37c-8.247.208-15.165-6.37-15.372-14.618l-1.915-76.08c-.207-8.246 6.37-15.164 14.618-15.37" fill="#99a09e"/><path d="M513.951 366.778l124.288-3.13c5.588-.14 10.05-4.68 9.913-10.093l-.85-33.74c-.136-5.41-4.82-9.722-10.408-9.582l-124.287 3.13c-5.59.14-10.05 4.68-9.912 10.092l.85 33.74c.134 5.412 4.818 9.723 10.406 9.583" fill="#fff"/><path d="M636.161 293.638l10.476-.264.28 11.07-10.478.263-.278-11.07m-18.76.471l10.475-.262.277 11.07-10.475.263-.278-11.07m-18.76.473l10.474-.264.28 11.07-10.476.263-.278-11.07m-18.763.473l10.477-.264.28 11.07-10.477.263-.28-11.07m-18.76.475l10.476-.265.28 11.07-10.476.262-.28-11.068m-18.76.471l10.475-.264.28 11.07-10.476.264-.28-11.07m-18.759.472l10.475-.263.278 11.07-10.475.262-.28-11.07m-18.76.474l10.476-.264.28 11.07-10.478.264-.28-11.07m130.928-19.195l10.476-.262.28 11.07-10.478.263-.278-11.07m-18.76.473l10.475-.264.278 11.07-10.475.264-.28-11.07m-18.759.472l10.475-.264.278 11.07-10.475.263-.278-11.07m-18.763.475l10.478-.265.278 11.07-10.476.263-.28-11.07m-18.76.472l10.476-.263.28 11.07-10.476.263-.28-11.07m-18.76.472l10.475-.263.28 11.07-10.476.262-.28-11.07m-18.759.474l10.475-.264.278 11.07-10.475.265-.28-11.07m112.167-18.722l10.475-.264.28 11.07-10.478.264-.277-11.07m-18.76.472l10.474-.264.278 11.07-10.475.264-.28-11.07m-18.759.474l10.476-.265.276 11.07-10.475.263-.277-11.07m-18.76.472l10.475-.262.278 11.068-10.476.264-.278-11.07m-18.762.472l10.476-.263.28 11.07-10.476.262-.28-11.07m-18.76.474l10.475-.264.28 11.07-10.476.265-.28-11.07m93.406-18.25l10.475-.264.28 11.07-10.476.264-.28-11.07m-18.76.474l10.475-.265.277 11.07-10.475.263-.278-11.07m-18.76.472l10.476-.263.278 11.07-10.477.263-.277-11.07m-18.76.473l10.475-.263.278 11.07-10.476.263-.278-11.07m-18.762.472l10.476-.264.28 11.07-10.476.265-.28-11.07m-18.76.471l10.475-.263.28 11.07-10.476.263-.28-11.07m-18.759.473l10.475-.264.28 11.07-10.478.263-.278-11.07m-18.759.474l10.474-.264.28 11.068-10.477.263-.278-11.067m130.926-19.193l10.475-.265.28 11.07-10.476.264-.28-11.07m-18.76.471l10.475-.263.277 11.07-10.475.263-.278-11.07m-93.803 2.363l10.475-.264.28 11.068-10.478.263-.278-11.067m-18.759.471l10.474-.263.28 11.07-10.476.264-.28-11.07m36.562-1.935l69.5-1.75.295 11.77-69.5 1.75-.295-11.77m-35.77 33.335l29.235-.735.29 11.442-29.24.737-.286-11.445" fill="#273246"/><path d="M504.027 264.793l10.475-.264.688 27.332-10.477.264-.687-27.33" fill="#273246"/><path d="M796.154 404.213c2.494 2.748 11.113 2.935 16.627 2.75 1.097-.036 1.486 1.436.512 1.945-6.04 3.155-16.72 8.774-20.163 10.834-3.754 2.246-1.86 5.74-.808 7.66a4.483 4.483 0 0 0-.78 4.912l.43.923c.995 2.146 3.505 3.113 5.68 2.26-.257.974-.21 2.033.244 3.01 1.025 2.215 3.663 3.19 5.88 2.193a8.368 8.368 0 0 0 1.865-.86l.178-.082c-.022.335-.14 4.055 4.85 4.63 5.222.6 16.062-7.015 16.062-7.015 14.704-3.597 19.203-10.487 19.203-10.487l9.078-5.305-11.18-23.787s-7.143 3.682-14.275 1.273c-7.13-2.41-15.426-3.896-21.41-2.47-5.987 1.428-14.09 1.553-14.09 1.553s-1.66 1.925 2.098 6.062m-34.94-50.134c-1.714-3.29 1.094-11.442 3.176-16.55.415-1.02-.833-1.892-1.647-1.155-5.05 4.574-14.02 12.65-17.145 15.165-3.406 2.745-6.027-.242-7.465-1.892-1.625.667-3.568.346-4.878-.972l-.72-.72c-1.67-1.678-1.706-4.367-.154-6.113-1.002-.095-1.98-.505-2.74-1.27-1.722-1.73-1.722-4.542-.02-6.28a8.53 8.53 0 0 1 1.452-1.45l.138-.138c-.32-.095-3.85-1.272-2.663-6.152 1.243-5.108 12.142-12.64 12.142-12.64 8.465-12.55 16.488-14.384 16.488-14.384l8.118-6.682 18.446 18.723s-5.926 5.428-6.135 12.953c-.207 7.523-1.686 15.82-5.097 20.943-3.412 5.122-6.333 12.678-6.333 12.678s-2.38.892-4.963-4.065" fill="#fcce7e"/><path d="M758.017 285.625l34.536 17.767c17.213-25.187 38.847-46.367 64.56-63.16l-16.895-35.045c-26.58 16.707-57.06 42.252-82.2 80.437" fill="#3ead4f"/><path d="M751.477 296.041l33.133 19.757c2.528-4.24 5.184-8.37 7.943-12.406l-34.535-17.766a279.706 279.706 0 0 0-6.54 10.415" fill="#fabac4"/><path d="M861.87 430.243c43.94-12.774 77.36-34.392 101.17-54.885l-28.51-26.468c-23.543 19.56-50.06 33.962-79.084 42.998l6.423 38.355" fill="#3ead4f"/><path d="M840.96 395.918l9.12 37.48a275.841 275.841 0 0 0 11.79-3.155l-6.424-38.355a238.607 238.607 0 0 1-14.488 4.03" fill="#fabac4"/><path d="M834.877 208.614s3.818 43.162 43.294 98.108c37.88 56.06 77.056 74.58 77.056 74.58 35.338-24.624 53.363-51.355 1.8-129.534-55.49-75.444-86.812-67.78-122.15-43.154" fill="#3ead4f"/><path d="M894.723 231.023c23.853-16.622 56.664-10.76 73.292 13.09 16.612 23.854 10.762 56.665-13.1 73.29-23.848 16.62-56.66 10.76-73.283-13.093-16.622-23.852-10.76-56.665 13.09-73.287" fill="#fcce7e"/><path d="M943.845 304.156c8.145-5.675 18.27-5.21 22.632 1.04 4.35 6.25 1.288 15.916-6.862 21.592-8.143 5.675-18.276 5.21-22.63-1.04-4.356-6.25-1.284-15.917 6.86-21.592m-54.478-78.174c8.142-5.675 18.275-5.21 22.63 1.04 4.356 6.25 1.285 15.917-6.86 21.592-8.143 5.675-18.275 5.21-22.63-1.04-4.356-6.25-1.285-15.916 6.86-21.592" fill="#fcce7e"/><path d="M986.227 265.533c-5.5-15.41 1.063-33.1-17.775-37.86-14.688-3.71-1.363-6.77-16.725-9.988-15.815-3.313-16.926-10.245-20.224-2.717l-4.13 2.805h-.03c-.77-2.65-2.332-5.503-6.61-4.09-13.83 4.56-42.69 23.757-40.266 40.13-.094.287-.174.58-.263.867-2.033 2.624-12.485 18.852 6.222 55.55l.88-9.875s-.95 17.42 17.175 25.17c0 0-4.43-5.926.352-9.288.8.444 1.61.865 2.427 1.266 2.236 3.748 7.942 11.523 17.56 13.253 0 0-1.125-4.41-.873-8.254 1.31.165 2.63.273 3.95.34 2.067 3.756 5.606 8.183 10.726 7.913 0 0-1.852-4.09-2.982-8.093a52.103 52.103 0 0 0 21.986-7.307l.012.01c11.763-.89 28.988-6.454 25.375-26.55-3.612-20.094 8.725-7.876 3.213-23.285" fill="#4f4340"/><path d="M907.183 235.104c12.844-9.907 33.765-4.316 46.73 12.49 12.964 16.805 13.064 38.46.214 48.368-12.844 9.907-33.764 4.315-46.727-12.49-12.964-16.805-13.06-38.46-.217-48.368" fill="#544746"/><path d="M601.067 276.403c3.625-.79 8.088-8.168 10.68-13.037.514-.97 1.984-.573 1.94.524-.28 6.81-.737 18.87-.67 22.88.074 4.374 4.046 4.475 6.235 4.523.527 1.675 2.02 2.962 3.87 3.125l1.014.09c2.356.207 4.446-1.485 4.79-3.796.718.708 1.658 1.197 2.734 1.29 2.43.216 4.59-1.584 4.833-4.005a8.431 8.431 0 0 0 .185-2.045l.018-.194c.28.185 3.444 2.142 6.43-1.894 3.127-4.226 1.934-17.42 1.934-17.42 4.217-14.54.488-21.875.488-21.875l-.067-10.513-26.192-2.176s-.373 8.027-6.02 13.006c-5.644 4.98-11.07 11.43-12.82 17.328-1.75 5.9-5.682 12.983-5.682 12.983s.84 2.4 6.3 1.208m-113.25-36.037l5.224 8.005 1.436 29.274a10.945 10.945 0 0 0 4.003 7.934l15.082 13.367a4.856 4.856 0 0 0 6.62-7.082l-12.284-12.852a10.931 10.931 0 0 1-2.876-6.13l-.683-5.457c-.23-1.846 2.15-2.784 3.24-1.276.1.14.222.265.36.37l11.2 8.62a3.78 3.78 0 0 0 4.84-.198 3.78 3.78 0 0 0 .75-4.655l-7.95-14.062c-.13-.23-.21-.485-.23-.75l-.763-10.11a1.789 1.789 0 0 0-.336-.917l-12.486-17.27-15.145 13.19" fill="#fcce7e"/><path d="M482.662 249.764l35.15-15.885c-14.72-32.58-21.614-67.07-20.54-102.687l-38.413-6.178c-1.62 34.134 2.693 78.038 23.803 124.75m169.068-2.362l-35.965-13.947c12.923-33.332 17.927-68.15 14.916-103.655l38.017-8.26c3.48 33.994 1.565 78.068-16.967 125.862" fill="#303b3d"/><path d="M458.62 131.354s37.591 25.373 105.242 24.4c67.65.973 105.243-24.4 105.243-24.4 0-43.07-11.62-73.148-105.243-75.542-93.624 2.394-105.243 32.472-105.243 75.542" fill="#303b3d"/><path d="M551.067 155.624V93.206h22.18v62.508c6.406-.14 12.52-.507 18.324-1.063V57.556c-8.33-.895-17.533-1.483-27.71-1.744-12.067.31-22.762 1.08-32.254 2.277v96.086c6.128.707 12.62 1.21 19.46 1.45" fill="#fff"/><path d="M551.067 93.205v62.42c4.138.144 8.402.193 12.795.13 3.2.045 6.322.027 9.386-.04v-62.51h-22.18" fill="#da2935"/><path d="M511.22 91.693c0-29.074 23.568-52.643 52.642-52.643 29.073 0 52.64 23.57 52.64 52.643 0 29.074-23.567 52.642-52.64 52.642-29.074 0-52.642-23.568-52.642-52.642" fill="#fcce7e"/><path d="M599.305 93.205c0-9.926 6.175-17.972 13.792-17.972 7.618 0 13.793 8.046 13.793 17.973 0 9.926-6.175 17.973-13.793 17.973-7.617 0-13.792-8.046-13.792-17.973m-95.284-.001c0-9.926 6.175-17.972 13.792-17.972 7.618 0 13.794 8.046 13.794 17.973 0 9.926-6.176 17.973-13.794 17.973-7.617 0-13.792-8.046-13.792-17.973" fill="#fcce7e"/><path d="M511.22 84.858c0-29.026 23.568-52.558 52.642-52.558 29.073 0 52.64 23.532 52.64 52.558 0 29.027-23.567 52.56-52.64 52.56-29.074 0-52.642-23.533-52.642-52.56" fill="#b1963c"/><path d="M525.807 73.67c0-19.12 17.037-34.62 38.055-34.62 21.017 0 38.055 15.5 38.055 34.62 0 19.12-17.038 34.62-38.055 34.62s-38.056-15.5-38.056-34.62" fill="#bc9d47"/><path d="M503.835 906.358h123.72v-166.49H503.837v166.49z" fill="#996541"/><path d="M516.335 893.858h98.72v-141.49h-98.72z" fill="#f5e2d5"/><path d="M534.35 754.668h62.716v-20.06H534.35v20.063zm-11.153 25.906h79.67v-4.593h-79.67zm0 18.134h79.67v-4.595h-79.67v4.594zm0 18.132h79.67v-4.593h-79.67v4.592zm0 18.133h79.67v-4.592h-79.67zm0 18.135h61.258v-4.595h-61.26v4.594z" fill="#837871"/><path d="M446.471 400.612l-136.734-94.994-70.59 101.606 136.732 94.994 70.592-101.606" fill="#5f5048"/><path d="M312.871 323.016l116.202 80.73-56.327 81.075-116.203-80.73 56.327-81.075" fill="#e9d4c6"/><path d="M381.117 468.733l35.785-51.506 16.48 11.447-35.785 51.506-16.48-11.448m-24.583-10.017l45.458-65.428 3.772 2.62-45.456 65.43-3.772-2.623m-14.893-10.346l45.458-65.427 3.772 2.62-45.457 65.43-3.774-2.622m-14.89-10.346l45.456-65.43 3.774 2.623-45.456 65.428-3.774-2.62m-14.892-10.346l45.456-65.43 3.772 2.62-45.457 65.43-3.773-2.62m34.34-73.155l-3.773-2.62-34.953 50.31 3.772 2.62 34.953-50.31" fill="#837871"/><path d="M333.427 394.098l73.265 121.048-84.456 51.117-73.265-121.047 84.456-51.118" fill="#f5e8de"/><path d="M318.057 535.818l68.16-41.25 2.378 3.93-68.158 41.25-2.38-3.93m-9.388-15.51l68.158-41.254 2.38 3.93-68.16 41.253-2.378-3.93m-9.39-15.514l68.16-41.252 2.377 3.93-68.16 41.252-2.377-3.93m-9.388-15.512l68.157-41.253 2.38 3.93-68.157 41.253-2.38-3.93m61.146-52.837l-2.377-3.93-52.41 31.72 2.38 3.93 52.408-31.72" fill="#837871"/><path d="M861.463 479.428l73.265 121.05-84.455 51.116-73.265-121.05 84.456-51.116" fill="#f5e8de"/><path d="M815.932 539.166l-13.47 8.765-5.635-8.66 13.47-8.764 5.635 8.657" fill="#d03643"/><path d="M833.922 569.345l-13.47 8.767-5.635-8.66 13.47-8.765 5.635 8.657" fill="#5dc4cd"/><path d="M843.714 589.043l-13.47 8.766 5.634 8.66 13.47-8.766-5.633-8.66m35.094 12.565l-13.47 8.765 5.634 8.66 13.47-8.766-5.634-8.66" fill="#d03643"/><path d="M902.422 587.514l-13.47 8.767 5.634 8.658 13.47-8.765-5.635-8.66m-57.544-57.006l-13.47 8.764 5.634 8.658 13.47-8.765-5.634-8.657" fill="#ecaf2a"/><path d="M880.577 556.798l-13.47 8.766 5.634 8.66 13.47-8.766-5.634-8.66" fill="#5dc4cd"/><path d="M417.067 638.194l4.18 141.43-98.68 2.918-4.18-141.432 98.68-2.916" fill="#f5e8de"/><path d="M344.017 657.378c-7.38 2.688-12.66 9.745-12.66 18.052 0 2.304.426 4.503 1.17 6.55l18.06-6.55-6.57-18.052" fill="#ef3446"/><path d="M362.84 656.353l-6.197 18.606v18.815c10.62 0 19.23-8.61 19.23-19.23 0-8.45-5.457-15.61-13.033-18.19" fill="#f8a10e"/><path d="M357.524 653.283a19.148 19.148 0 0 0-6.197-1.04c-2.31 0-4.518.43-6.57 1.176l7.124 17.698 5.644-17.833" fill="#85d7e6"/><path d="M332.527 684.912c2.68 7.39 9.742 12.68 18.06 12.68v-19.23l-18.06 6.55" fill="#3ead4f"/><path d="M349.852 715.938l-12.592.5-.23-5.81 12.592-.5.23 5.81" fill="#ef3446"/><path d="M350.71 736.712l-12.593.497-.23-5.81 12.592-.496.23 5.81" fill="#85d7e6"/><path d="M351.553 756.162l-12.592.498-.23-5.81 12.592-.498.23 5.81" fill="#3ead4f"/><path d="M352.001 773.674l-12.593.5-.23-5.81 12.594-.5.23 5.81" fill="#f8a10e"/><path d="M403.397 709.396l-43.518 1.468.064 1.885 43.517-1.467-.064-1.885m1.465 21.114l-43.518 1.468.064 1.888 43.517-1.47-.063-1.885m-1.464 19.84l-43.518 1.468.064 1.885 43.517-1.468-.064-1.886m.001 17.513l-43.518 1.47.064 1.885 43.517-1.467-.064-1.887" fill="#6f9897"/><path d="M534.107 831.364l-5.96-.735-49.315 23.513a3.23 3.23 0 0 0 2.78 5.83l49.314-23.512 3.18-5.094" fill="#273246"/><path d="M640.857 871.338l-5.226-8.003-1.436-29.275a10.938 10.938 0 0 0-4.002-7.933l-15.083-13.37a4.858 4.858 0 1 0-6.617 7.085l12.28 12.85a10.969 10.969 0 0 1 2.88 6.13l.682 5.457c.23 1.845-2.15 2.783-3.24 1.277a1.7 1.7 0 0 0-.36-.373l-11.198-8.617a3.777 3.777 0 0 0-5.59 4.851l7.95 14.064c.13.23.206.486.226.748l.765 10.11c.026.332.142.65.336.918l12.488 17.273 15.145-13.193" fill="#fcce7e"/><path d="M646.011 861.944l-35.154 15.884c14.724 32.58 21.616 67.074 20.544 102.69l38.41 6.176c1.62-34.132-2.692-78.037-23.8-124.75" fill="#5cc8d7"/><path d="M482.402 873.262l-3.42-29.356s11.29-20.712 16.21-20.793c4.915-.08 7.23 8.297 16.96 7.664 9.73-.635 5.674 5.674-.923 7.108-5.18 1.126-10.12-.844-12.003-1.743a.87.87 0 0 0-1.17.446l-4.458 10.335c-.063.15-.086.304-.063.464.214 1.484 1.202 4.268 7.182 8.078 0 0 8.644 1.082 12.732-9.822 1.98-5.285 7.418-4.08 6.065 3.123-1.356 7.2-4.07 9.744-4.07 9.744l-13.502 18.4-19.543-3.65" fill="#fcce7e"/><path d="M476.942 864.306l35.966 13.946c-12.924 33.332-17.927 68.15-14.915 103.655l-38.017 8.26c-3.48-33.994-1.565-78.068 16.967-125.863" fill="#5cc8d7"/><path d="M670.053 980.353s-37.592-21.546-105.242-20.574c-67.65-.97-105.243 20.575-105.243 20.575 0 43.07 11.62 73.15 105.244 75.543 93.622-2.393 105.242-32.473 105.242-75.543" fill="#5cc8d7"/><path d="M617.453 1016.638c0 29.075-23.568 52.643-52.642 52.643s-52.643-23.568-52.643-52.642c0-29.07 23.57-52.64 52.644-52.64 29.073 0 52.642 23.57 52.642 52.64" fill="#fcce7e"/><path d="M529.367 1015.128c0 9.925-6.174 17.97-13.793 17.97-7.617 0-13.792-8.045-13.792-17.97 0-9.927 6.175-17.974 13.792-17.974 7.62 0 13.794 8.047 13.794 17.973m95.284 0c0 9.925-6.176 17.97-13.794 17.97-7.616 0-13.79-8.045-13.79-17.97 0-9.927 6.174-17.974 13.79-17.974 7.62 0 13.795 8.047 13.795 17.973" fill="#fcce7e"/><path d="M617.453 1023.474c0 29.028-23.568 52.56-52.642 52.56s-52.643-23.532-52.643-52.56c0-29.027 23.57-52.558 52.644-52.558 29.073 0 52.642 23.53 52.642 52.558" fill="#7b3321"/><path d="M602.867 1034.662c0 19.12-17.04 34.62-38.056 34.62-21.018 0-38.055-15.5-38.055-34.62 0-19.12 17.036-34.62 38.054-34.62 21.017 0 38.055 15.5 38.055 34.62" fill="#853626"/><path d="M333.55 305.248l23.176 18.34s6.66 22.628 3.24 26.163c-3.42 3.533-10.98-.755-17.413 6.575-6.432 7.328-8.025-.002-4.373-5.68 2.867-4.46 7.753-6.56 9.718-7.255a.87.87 0 0 0 .513-1.143l-4.156-10.46a.831.831 0 0 0-.284-.37c-1.2-.9-3.87-2.17-10.79-.635 0 0-6.88 5.346-2.058 15.947 2.336 5.138-2.362 8.13-6.498 2.08-4.135-6.05-4.014-9.767-4.014-9.767l-3.462-22.558 16.4-11.238" fill="#fcce7e"/><path d="M326.615 371.433l4.735-3.694 18.245-51.495a3.23 3.23 0 0 0-6.088-2.158l-18.245 51.498 1.353 5.85" fill="#273246"/><path d="M304.771 411.738c-2.35 2.89-11.11 3.656-16.734 3.844-1.12.037-1.414 1.524-.388 1.962 6.367 2.72 17.628 7.574 21.274 9.383 3.976 1.972 2.29 5.564 1.353 7.54 1.3 1.2 1.81 3.093 1.13 4.816l-.37.944c-.868 2.196-3.355 3.322-5.628 2.624.33.95.355 2-.04 3.002-.892 2.264-3.508 3.408-5.837 2.568a8.75 8.75 0 0 1-1.956-.725l-.186-.07c.043.33.42 4.007-4.618 4.914-5.275.95-16.835-5.873-16.835-5.873-15.214-2.575-20.27-9.104-20.27-9.104l-9.607-4.647 9.736-24.335s7.524 3.17 14.616.3c7.093-2.87 15.434-4.9 21.627-3.888 6.19 1.012 14.445.59 14.445.59s1.825 1.797-1.714 6.152" fill="#fcce7e"/><path d="M242.374 442.453l2.132-38.535c-30.63-5.372-59.38-16.382-85.74-32.874l-25.58 29.562c26.646 17.31 63.148 34.568 109.188 41.847" fill="#f1b623"/><path d="M254.801 444.151l4.57-38.072a250.22 250.22 0 0 1-14.865-2.16l-2.133 38.535c4.07.643 8.207 1.216 12.427 1.698" fill="#f8e3aa"/><path d="M333.685 289.514c-30.227-34.652-64.298-56.17-93.314-69.436l-12.745 36.61c28.034 13.4 52.506 31.59 73.03 54.24l33.027-21.414" fill="#f1b623"/><path d="M310.452 322.424l31.09-23.502a276.26 276.26 0 0 0-7.857-9.408l-33.03 21.413c3.37 3.715 6.643 7.54 9.797 11.496" fill="#f8e3aa"/><path d="M138.607 404.054s38.59-21 73.275-79.125c36.386-57.13 37.286-100.174 37.286-100.174-37.67-22.034-70.08-27.525-121.35 51.003h-.002c-47.084 80.976-26.88 106.263 10.79 128.296" fill="#f1b623"/><path d="M243.682 251.868s19.78 69.276-31.8 73.06L186.8 293.474l56.882-41.606" fill="#f1b623"/><path d="M161.072 385.835s72.084-15.543 51.28-61.667l-40.296-6.785-10.985 68.452" fill="#f1b623"/><path d="M134.497 340.683c-25.427-14.874-33.66-47.008-18.39-71.774 15.27-24.765 48.265-32.784 73.695-17.91 25.43 14.872 33.663 47.007 18.39 71.774-15.27 24.766-48.265 32.785-73.694 17.91" fill="#fcce7e"/><path d="M182.091 266.423c-8.683-5.08-12.476-14.455-8.475-20.945 4-6.49 14.28-7.633 22.964-2.554 8.68 5.078 12.476 14.455 8.475 20.944-4.004 6.49-14.285 7.633-22.966 2.555m-50.048 81.165c-8.683-5.076-12.476-14.454-8.475-20.943 4-6.488 14.28-7.632 22.964-2.555 8.68 5.08 12.476 14.455 8.473 20.944-4 6.49-14.282 7.634-22.963 2.555" fill="#fcce7e"/><path d="M128.521 337.188c-25.39-14.85-33.59-46.966-18.32-71.732 15.273-24.767 48.235-32.804 73.623-17.954 25.388 14.85 33.59 46.965 18.318 71.73-15.27 24.766-48.233 32.805-73.62 17.955" fill="#6c3d33"/><path d="M136.417 343.334c-25.035-14.644-37.22-39.67-27.21-55.9 10.006-16.23 38.415-17.516 63.453-2.87 25.036 14.643 37.22 39.67 27.212 55.9-10.008 16.23-38.416 17.515-63.454 2.87" fill="#6c3d33"/><path d="M158.601 307.362c-25.036-14.644-37.596-39.063-28.053-54.54 9.546-15.48 37.58-16.154 62.616-1.51 25.036 14.645 37.596 39.064 28.05 54.54-9.542 15.478-37.576 16.155-62.612 1.51" fill="#6c3d33"/><path d="M90.497 283.348c-14.03-8.204-19.22-24.876-11.6-37.24 7.625-12.36 25.176-15.73 39.204-7.525 14.03 8.206 19.22 24.88 11.6 37.24-7.624 12.362-25.177 15.73-39.204 7.526" fill="#6c3d33"/><path d="M96.951 288.72l27.854-45.17c1.14-1.852 3.612-2.468 5.49-1.37l1.398.818a4.038 4.038 0 0 1 1.4 5.62l-27.852 45.17c-1.14 1.85-3.61 2.467-5.49 1.37l-1.398-.82a4.04 4.04 0 0 1-1.402-5.618" fill="#5cbadc"/><path d="M125.457 314.108c-12.802-10.213-12.06-31.72 1.66-48.035 13.718-16.316 35.22-21.265 48.024-11.054 12.804 10.214 12.06 31.72-1.658 48.036-13.72 16.317-35.22 21.265-48.025 11.054" fill="#79443d"/><path d="M931.207 676.148L857.23 787.841c-4.556 6.877-13.91 8.778-20.79 4.222l-63.447-42.025c-6.877-4.555-8.777-13.91-4.222-20.79l73.978-111.69c4.557-6.877 13.912-8.777 20.79-4.22l63.447 42.022c6.877 4.557 8.777 13.912 4.22 20.79" fill="#99a09e"/><path d="M796.29 585.153l-75.787 114.42c-3.407 5.144-1.986 12.14 3.158 15.547l32.077 21.247c5.145 3.406 12.14 1.985 15.55-3.16l75.784-114.42c3.407-5.142 1.986-12.14-3.158-15.546l-32.076-21.247c-5.145-3.407-12.14-1.986-15.548 3.158" fill="#99a09e"/><path d="M798.243 588.974l-73.458 110.908c-3.303 4.986-2.055 11.682 2.773 14.88l30.11 19.942c4.826 3.198 11.48 1.734 14.78-3.25l73.46-110.91c3.304-4.985 2.055-11.68-2.772-14.88l-30.108-19.94c-4.83-3.2-11.48-1.736-14.784 3.25" fill="#777886"/><path d="M798.957 594.668l-68.654 103.65c-3.086 4.66-1.918 10.92 2.594 13.91l28.137 18.636c4.513 2.99 10.73 1.622 13.817-3.038l68.655-103.654c3.085-4.66 1.92-10.918-2.594-13.906l-28.138-18.638c-4.513-2.99-10.73-1.62-13.817 3.04" fill="#fff"/><path d="M788.873 736.734l-5.786 8.736-9.233-6.115 5.787-8.736 9.232 6.116m10.364-15.647l-5.788 8.736-9.23-6.115 5.785-8.735 9.232 6.115m10.363-15.647l-5.786 8.736-9.232-6.115 5.787-8.736 9.232 6.114m10.362-15.645l-5.786 8.736-9.233-6.114 5.787-8.736 9.23 6.114m10.367-15.648l-5.788 8.738-9.232-6.114 5.787-8.736 9.232 6.113m10.361-15.646l-5.785 8.736-9.23-6.112 5.785-8.737 9.23 6.115m10.365-15.647l-5.786 8.736-9.234-6.115 5.788-8.735 9.23 6.115m10.364-15.647l-5.786 8.736-9.23-6.115 5.786-8.736 9.23 6.114m-59.29 118.297l-5.788 8.738-9.233-6.114 5.787-8.736 9.232 6.113m10.365-15.645l-5.788 8.737-9.23-6.115 5.785-8.737 9.232 6.116m10.363-15.647l-5.787 8.736-9.23-6.115 5.785-8.735 9.232 6.115m10.363-15.647l-5.786 8.736-9.233-6.115 5.787-8.736 9.23 6.114m10.367-15.645l-5.788 8.736-9.232-6.115 5.786-8.736 9.233 6.114m10.361-15.647l-5.785 8.738-9.23-6.114 5.785-8.736 9.23 6.113m10.365-15.645l-5.786 8.735-9.234-6.112 5.786-8.737 9.233 6.116m-48.928 102.649l-5.787 8.737-9.233-6.114 5.787-8.736 9.232 6.113m10.365-15.647l-5.788 8.738-9.23-6.114 5.785-8.736 9.232 6.113m10.363-15.645l-5.787 8.736-9.23-6.115 5.785-8.736 9.232 6.116m10.363-15.647l-5.786 8.736-9.233-6.115 5.787-8.735 9.23 6.115m10.367-15.647l-5.79 8.736-9.23-6.115 5.786-8.736 9.233 6.114m10.361-15.645l-5.785 8.736-9.23-6.114 5.785-8.737 9.23 6.115m-38.565 87.006l-5.786 8.736-9.233-6.115 5.787-8.736 9.23 6.114m10.367-15.645l-5.788 8.736-9.23-6.114 5.785-8.736 9.232 6.114m10.361-15.648l-5.785 8.738-9.23-6.114 5.785-8.736 9.23 6.113m10.365-15.645l-5.786 8.737-9.233-6.115 5.787-8.737 9.23 6.116m10.367-15.647l-5.79 8.736-9.23-6.115 5.786-8.735 9.233 6.115m10.361-15.647l-5.785 8.736-9.23-6.115 5.785-8.736 9.23 6.114m10.365-15.645l-5.787 8.736-9.232-6.115 5.787-8.736 9.232 6.114m10.362-15.647l-5.786 8.738-9.23-6.114 5.786-8.736 9.23 6.113m-59.292 118.299l-5.786 8.736-9.233-6.115 5.787-8.735 9.23 6.115m10.367-15.647l-5.788 8.736-9.232-6.115 5.787-8.735 9.232 6.114m51.815-78.23l-5.787 8.736-9.23-6.115 5.785-8.736 9.232 6.114m10.363-15.645l-5.786 8.736-9.23-6.114 5.786-8.737 9.23 6.115m-19.365 31.072l-38.388 57.96-9.815-6.5 38.387-57.96 9.815 6.5m-6.82-48.418l-16.15 24.383-9.545-6.32 16.15-24.384 9.544 6.323" fill="#273246"/><path d="M888.227 644.97l-5.786 8.737-22.794-15.1 5.786-8.735 22.794 15.098" fill="#273246"/><path d="M817.787 714.418c-1.77 3.26.896 11.46 2.89 16.6.396 1.026-.865 1.88-1.666 1.128-4.973-4.662-13.802-12.89-16.882-15.46-3.358-2.803-6.03.138-7.497 1.765a4.476 4.476 0 0 0-4.894.886l-.73.707c-1.696 1.65-1.78 4.337-.26 6.11-1.002.077-1.987.47-2.76 1.222-1.752 1.7-1.8 4.51-.13 6.276a8.573 8.573 0 0 0 1.428 1.477l.135.138c-.322.093-3.872 1.21-2.768 6.108 1.155 5.128 11.92 12.848 11.92 12.848 8.25 12.693 16.238 14.665 16.238 14.665l8.003 6.82 18.764-18.4s-5.83-5.53-5.91-13.055c-.08-7.527-1.414-15.85-4.736-21.03-3.32-5.18-6.113-12.785-6.113-12.785s-2.365-.932-5.03 3.98m35.798-49.526c2.54-2.704 11.16-2.743 16.67-2.463 1.098.056 1.51-1.41.546-1.934-5.983-3.26-16.566-9.062-19.972-11.18-3.715-2.31-1.76-5.77-.677-7.673-1.167-1.313-1.505-3.254-.693-4.925l.443-.917c1.034-2.127 3.56-3.05 5.72-2.16-.24-.98-.177-2.036.296-3.007 1.063-2.195 3.718-3.124 5.92-2.09.84.278 1.538.69 1.848.89l.176.086c-.015-.335-.068-4.056 4.93-4.545 5.233-.51 15.94 7.29 15.94 7.29 14.638 3.853 19.017 10.82 19.017 10.82l8.986 5.46-11.59 23.59s-7.08-3.805-14.25-1.52c-7.172 2.287-15.492 3.63-21.452 2.1-5.962-1.53-14.06-1.796-14.06-1.796s-1.627-1.955 2.2-6.026" fill="#fcce7e"/><path d="M917.15 639.288l-5.377 38.462c29.455 7.938 56.592 21.372 80.93 40.104l27.5-27.51c-24.538-19.58-58.713-39.924-103.053-51.056" fill="#d03643"/><path d="M905.16 636.551l-7.72 37.795c4.838.987 9.613 2.132 14.333 3.405l5.377-38.463a274.33 274.33 0 0 0-11.99-2.737" fill="#fabac4"/><path d="M814.897 785.041c26.558 37.265 57.993 61.68 85.195 77.397l15.578-35.65c-26.234-15.77-48.578-36.05-66.684-60.466l-34.09 18.72" fill="#d03643"/><path d="M840.401 753.975l-32.37 20.978c2.245 3.467 4.54 6.82 6.867 10.087l34.09-18.718a238.574 238.574 0 0 1-8.586-12.347" fill="#fabac4"/><path d="M1015.202 686.433s-39.475 17.844-78.323 73.24c-40.418 54.255-44.978 97.345-44.978 97.345 34.905 25.23 66.09 33.435 122.876-41.038 52.913-77.278 35.338-104.316.425-129.547" fill="#d03643"/><path d="M899.577 830.288s-13.394-71.115 37.303-70.616l21.81 33.63-59.113 36.985" fill="#d03643"/><path d="M991.714 702.83s-71.73 9.584-55.358 57.567l38.77 10.16 16.587-67.728" fill="#d03643"/><path d="M1013.802 750.318c23.563 17.034 28.85 49.94 11.825 73.504-17.038 23.562-49.938 28.856-73.5 11.824-23.566-17.032-28.86-49.94-11.83-73.503 17.03-23.56 49.943-28.855 73.505-11.824" fill="#fcce7e"/><path d="M960.977 820.821c8.037 5.815 10.95 15.533 6.487 21.707-4.475 6.174-14.612 6.464-22.652.65-8.045-5.816-10.95-15.535-6.486-21.71 4.462-6.173 14.6-6.463 22.65-.648m55.813-77.222c8.05 5.816 10.95 15.535 6.488 21.71-4.463 6.172-14.6 6.462-22.65.647-8.038-5.815-10.938-15.533-6.475-21.707 4.463-6.174 14.6-6.464 22.637-.65" fill="#fcce7e"/><path d="M1019.34 754.323c23.524 17.005 28.787 49.89 11.762 73.454-17.038 23.56-49.913 28.876-73.438 11.87-23.527-17.004-28.79-49.89-11.758-73.452 17.032-23.562 49.907-28.878 73.432-11.873" fill="#4f4340"/><path d="M1012.152 747.501c23.2 16.77 32.962 42.88 21.8 58.32-11.163 15.442-39.025 14.365-62.213-2.405-23.205-16.77-32.963-42.88-21.802-58.322 11.165-15.44 39.015-14.362 62.215 2.407" fill="#4f4340"/><path d="M987.414 781.725c23.2 16.77 33.375 42.302 22.725 57.027-10.637 14.725-38.075 13.068-61.272-3.702-23.2-16.768-33.376-42.3-22.733-57.026 10.644-14.725 38.08-13.068 61.28 3.702" fill="#4f4340"/><path d="M1051.877 811.474c12.988 9.396 16.637 26.548 8.137 38.31-8.5 11.76-25.937 13.677-38.924 4.28-13-9.395-16.65-26.546-8.15-38.307 8.5-11.763 25.937-13.68 38.937-4.284" fill="#4f4340"/><path d="M1046.077 805.478l-31.063 42.97c-1.3 1.805-3.837 2.215-5.65.91l-1.212-.876c-1.8-1.304-2.212-3.848-.912-5.65l31.062-42.974a4.073 4.073 0 0 1 5.662-.91l1.213.878a4.055 4.055 0 0 1 .9 5.652" fill="#5cbadc"/><path d="M728.577 455.688h18.877v-101.71h-18.877z" fill="#ee264c"/><path d="M738.017 359.308h9.437v-2.206h-9.438v2.205zm0 7.473h9.437v-2.206h-9.438v2.206zm0 7.474h9.437v-2.205h-9.438v2.205zm0 7.473h9.437v-2.204h-9.438v2.205zm0 7.475h9.437v-2.205h-9.438v2.205zm0 7.475h9.437v-2.205h-9.438v2.204zm0 7.474h9.437v-2.205h-9.438v2.204zm0 7.473h9.437v-2.205h-9.438v2.205zm0 7.473h9.437v-2.204h-9.438v2.205zm0 7.476h9.437v-2.205h-9.438v2.206zm0 7.474h9.437v-2.205h-9.438v2.205zm0 7.474h9.437v-2.205h-9.438v2.204zm0 7.473h9.437v-2.203h-9.438v2.203z" fill="#f9b1cd"/><path d="M701.151 780.688c0 17.7-14.348 32.046-32.048 32.046-17.7 0-32.046-14.347-32.046-32.047 0-17.7 14.348-32.047 32.046-32.047 17.7 0 32.048 14.347 32.048 32.046" fill="#4cbe5e"/><path d="M697.487 778.098c0 15.676-12.707 28.384-28.384 28.384-15.675 0-28.382-12.708-28.382-28.384 0-15.675 12.707-28.383 28.382-28.383 15.676 0 28.384 12.708 28.384 28.383" fill="#f9f8fc"/><path d="M695.162 777.585c0 14.392-11.666 26.06-26.06 26.06-14.39 0-26.056-11.668-26.056-26.06s11.665-26.058 26.056-26.058c14.393 0 26.06 11.665 26.06 26.057" fill="#c7c6c4"/><path d="M669.105 803.644c12.84 0 23.503-9.29 25.655-21.513-2.152-12.224-12.815-21.514-25.655-21.514-12.842 0-23.505 9.29-25.657 21.513 2.153 12.223 12.816 21.513 25.658 21.513" fill="#a6a2a0"/><path d="M669.105 763.455c12.337 0 22.66 8.58 25.358 20.094.11-.467.212-.94.297-1.417-2.152-12.224-12.815-21.514-25.655-21.514-12.842 0-23.505 9.29-25.657 21.512.086.478.188.95.298 1.42 2.697-11.516 13.02-20.095 25.36-20.095" fill="#7e7574"/><path d="M740.68 283.624c0 17.7-14.348 32.048-32.048 32.048-17.7 0-32.046-14.348-32.046-32.048 0-17.698 14.346-32.046 32.045-32.046 17.7 0 32.047 14.348 32.047 32.046" fill="#9fdca5"/><path d="M737.017 281.036c0 15.676-12.71 28.383-28.385 28.383s-28.383-12.706-28.383-28.382c0-15.675 12.708-28.383 28.383-28.383 15.676 0 28.384 12.708 28.384 28.383" fill="#f9f8fc"/><path d="M734.691 280.523c0 14.39-11.666 26.06-26.06 26.06-14.39 0-26.056-11.67-26.056-26.06 0-14.393 11.666-26.06 26.057-26.06 14.393 0 26.06 11.668 26.06 26.06" fill="#c7c6c4"/><path d="M708.632 306.582c12.84 0 23.504-9.29 25.656-21.514-2.15-12.224-12.814-21.514-25.655-21.514-12.84 0-23.504 9.29-25.655 21.514 2.15 12.224 12.815 21.514 25.655 21.514" fill="#fde5e3"/><path d="M708.632 266.393c12.34 0 22.663 8.58 25.36 20.094.11-.47.21-.943.296-1.42-2.15-12.224-12.814-21.514-25.655-21.514-12.84 0-23.504 9.29-25.655 21.514.085.477.186.95.296 1.42 2.698-11.516 13.022-20.095 25.36-20.095" fill="#a69a98"/><path d="M278.531 536.533c0 16.216-13.147 29.363-29.363 29.363-16.215 0-29.36-13.147-29.36-29.363s13.145-29.36 29.36-29.36c16.218 0 29.364 13.144 29.364 29.36" fill="#bae4bd"/><path d="M275.173 534.161c0 14.362-11.642 26.006-26.005 26.006-14.36 0-26.004-11.645-26.004-26.007 0-14.362 11.643-26.005 26.005-26.005 14.364 0 26.006 11.643 26.006 26.005" fill="#f9f8fc"/><path d="M273.043 533.691c0 13.186-10.688 23.876-23.875 23.876-13.185 0-23.874-10.69-23.874-23.877 0-13.185 10.69-23.875 23.875-23.875 13.188 0 23.876 10.69 23.876 23.875" fill="#c7c6c4"/><path d="M249.167 557.568c11.766 0 21.536-8.514 23.508-19.712-1.972-11.2-11.742-19.712-23.507-19.712-11.764 0-21.534 8.513-23.505 19.712 1.97 11.198 11.74 19.71 23.506 19.71" fill="#8b6343"/><path d="M249.167 520.744c11.305 0 20.764 7.86 23.236 18.412.1-.43.194-.863.272-1.3-1.972-11.2-11.742-19.712-23.507-19.712-11.764 0-21.534 8.513-23.505 19.712.077.437.17.87.27 1.3 2.474-10.552 11.933-18.412 23.236-18.412" fill="#c5a5a3"/><path d="M475.832 264.528c0 16.218-13.145 29.364-29.36 29.364-16.218 0-29.364-13.146-29.364-29.363 0-16.214 13.148-29.36 29.364-29.36s29.36 13.146 29.36 29.36" fill="#dbf1d6"/><path d="M472.477 262.158c0 14.36-11.645 26.005-26.006 26.005-14.363 0-26.005-11.644-26.005-26.005 0-14.363 11.64-26.005 26.004-26.005 14.36 0 26.005 11.643 26.005 26.005" fill="#f9f8fc"/><path d="M470.347 261.688c0 13.185-10.69 23.875-23.876 23.875-13.186 0-23.876-10.69-23.876-23.875 0-13.186 10.69-23.875 23.876-23.875 13.185 0 23.875 10.69 23.875 23.875" fill="#c7c6c4"/><path d="M446.471 285.563c11.764 0 21.534-8.51 23.505-19.71-1.972-11.2-11.742-19.71-23.506-19.71-11.765 0-21.535 8.51-23.506 19.71 1.97 11.2 11.74 19.71 23.506 19.71" fill="#8b6343"/><path d="M446.471 248.742c11.304 0 20.762 7.86 23.234 18.41.1-.43.195-.86.27-1.3-1.97-11.2-11.74-19.71-23.504-19.71-11.765 0-21.535 8.51-23.506 19.71.077.44.17.87.27 1.3 2.472-10.55 11.93-18.41 23.236-18.41" fill="#c5a5a3"/><path d="M416.127 265.852h-1.834a4.616 4.616 0 0 1-4.602-4.603c0-2.53 2.07-4.6 4.602-4.6h1.835c2.532 0 4.604 2.07 4.604 4.6a4.618 4.618 0 0 1-4.603 4.604" fill="#dbf1d6"/><path d="M337.021 578.954l-31.254-15.016c-3.917-1.88-8.62-.23-10.5 3.686l-22.605 47.05a7.866 7.866 0 0 0 3.685 10.5l31.254 15.015a7.866 7.866 0 0 0 10.5-3.684l22.605-47.05c1.88-3.917.23-8.62-3.686-10.5" fill="#687271"/><path d="M333.725 595.824l-39.07-18.77 3.963-8.246 39.07 18.77-3.962 8.246" fill="#fffffa"/><path d="M295.86 591.378l-6.403-3.076 3.076-6.4 6.4 3.074-3.074 6.402m10.403 4.997l-6.4-3.075 3.074-6.402 6.4 3.076-3.075 6.4m10.406 5l-6.403-3.076 3.075-6.4 6.403 3.074-3.076 6.402" fill="#67acb3"/><path d="M327.07 606.372l-6.402-3.075 3.076-6.404 6.402 3.076-3.075 6.402" fill="#302f2b"/><path d="M291.417 600.624l-6.402-3.076 3.076-6.4 6.4 3.074-3.074 6.402m10.404 4.998l-6.403-3.075 3.077-6.404 6.402 3.076-3.076 6.402m10.402 4.999l-6.4-3.076 3.074-6.4 6.402 3.074-3.076 6.402" fill="#67acb3"/><path d="M322.627 615.618l-6.4-3.075 3.074-6.402 6.402 3.076-3.076 6.4" fill="#302f2b"/><path d="M286.975 609.87l-6.403-3.076 3.076-6.4 6.402 3.074-3.075 6.402m10.402 4.998l-6.4-3.075 3.075-6.402 6.4 3.076-3.074 6.4m10.403 5.001l-6.402-3.078 3.077-6.4 6.4 3.076-3.076 6.4" fill="#67acb3"/><path d="M318.185 624.865l-6.402-3.076 3.075-6.4 6.404 3.075-3.076 6.402m-35.654-5.748l-6.4-3.078 3.074-6.4 6.4 3.076-3.075 6.4m10.406 4.999l-6.404-3.076 3.076-6.4 6.402 3.075-3.075 6.402m10.404 4.997l-6.403-3.075 3.076-6.402 6.4 3.076-3.074 6.4m10.403 5l-6.4-3.077 3.074-6.4 6.4 3.074-3.075 6.404" fill="#302f2b"/><path d="M277.652 763.428l7.406-9.93 34.985-14.812a14.182 14.182 0 0 0 7.87-8.412l9.535-24.32a6.297 6.297 0 0 0-11.575-4.892l-10.156 20.682a14.201 14.201 0 0 1-6.176 6.238l-6.338 3.265c-2.14 1.104-4.345-1.375-2.997-3.373.125-.186.223-.39.29-.603l5.49-17.474a4.895 4.895 0 1 0-8.4-4.639l-13.565 15.953c-.223.26-.5.468-.81.61l-11.96 5.443a2.325 2.325 0 0 0-.968.818l-15.446 22.906 22.815 12.54M215.96 609.661l12.16 2.36 35.847-12.58a14.172 14.172 0 0 1 11.48.927l23.42 11.575a6.297 6.297 0 0 1-5.27 11.405l-21.43-8.464a14.18 14.18 0 0 0-8.765-.458l-6.886 1.847c-2.33.625-2.29 3.94.05 4.51.22.055.427.14.623.253l15.817 9.232a4.895 4.895 0 0 1-3.093 9.083l-20.767-2.672a2.366 2.366 0 0 0-1.01.094l-12.51 4.022a2.32 2.32 0 0 1-1.266.045l-26.84-6.55 8.438-24.627" fill="#fcce7e"/><path d="M273.92 771.525l-28.74-26.118c-23.16 19.856-49.548 34.7-78.738 44.244l7.222 38.228c30.005-9.24 66.07-26 100.255-56.355" fill="#8b58b2"/><path d="M282.937 763.163l-26.87-27.676a238.357 238.357 0 0 1-10.89 9.92l28.743 26.117c3.022-2.683 6.03-5.46 9.018-8.362" fill="#f8e3aa"/><path d="M211.147 604.914c-45.748.935-83.633 13.143-111.948 26.754l20.67 32.96c27.812-12.78 57.157-19.81 87.532-21.005l3.747-38.71" fill="#8b58b2"/><path d="M222.437 643.488l.916-38.562c-4.13-.098-8.194-.093-12.205-.012l-3.746 38.71c4.986-.197 9.996-.253 15.036-.135" fill="#f8e3aa"/><path d="M179.711 825.955s7.514-42.672-16.354-105.98c-22.04-63.967-55.063-92.018-55.063-92.018-40.514 14.612-64.867 35.747-35.353 124.63 34.017 87.256 66.255 87.98 106.77 73.368" fill="#8b58b2"/><path d="M126.047 649.364s66.294 29.014 37.31 70.612l-40.07-.942 2.76-69.67" fill="#8b58b2"/><path d="M179.41 797.303s32.507-64.65-16.357-78.17l-30.246 26.305 46.603 51.865" fill="#8b58b2"/><path d="M127.73 788.788c-27.35 9.864-57.517-4.31-67.38-31.66-9.865-27.348 4.308-57.515 31.657-67.38 27.35-9.864 57.516 4.31 67.38 31.66 9.865 27.347-4.31 57.515-31.657 67.38" fill="#fcce7e"/><path d="M99.267 705.414c-9.337 3.368-19.002.29-21.587-6.876-2.585-7.166 2.89-15.705 12.227-19.074 9.338-3.367 19-.29 21.586 6.878 2.585 7.165-2.89 15.705-12.227 19.072m32.331 89.632c-9.34 3.367-19.004.288-21.59-6.877-2.582-7.165 2.89-15.704 12.23-19.072 9.336-3.368 19-.29 21.585 6.877 2.585 7.165-2.89 15.705-12.226 19.073" fill="#fcce7e"/><path d="M163.283 765.302c5.76-8.584 7.78-17.944 4.756-26.324-2.458-6.816-7.9-11.996-15.177-15.273-.28-.772-.58-1.532-.89-2.283 3.63-6.948 4.634-14.144 2.28-20.667-5.106-14.158-24.394-20.682-46.17-16.987-7.27-4.74-17.08-6.036-26.46-2.654-10.912 3.938-18.24 13.127-19.595 23.078-1.2.28-2.397.61-3.59 1.04-15.086 5.44-23.325 20.917-18.4 34.57a23.955 23.955 0 0 0 2.454 4.924c-3.95 6.538-5.094 14.376-2.455 21.69 2.643 7.33 8.555 12.615 15.79 15.12.234 1.36.585 2.712 1.066 4.047 4.745 13.152 19.974 19.776 34.573 15.38 7.36 7.222 19.193 9.87 30.404 5.825a31.749 31.749 0 0 0 8.62-4.713c4.713.612 9.73.14 14.633-1.628 15.088-5.443 23.327-20.92 18.403-34.57-.07-.2-.168-.38-.244-.576" fill="#6c3d33"/><path d="M438.817 629.011a4535.727 4535.727 0 0 1 284.915-29.004c3.996-.28 4.024-6.532 0-6.25a4535.8 4535.8 0 0 0-284.915 29.003c-3.934.527-3.985 6.783 0 6.25" fill="#5b5562"/><path d="M557.952 622.316c-2.11-4.41-2.93-6.962-2.965-7.068l2.382-.76c.008.024.813 2.514 2.838 6.75l-2.255 1.077m17.305 27.029a163.952 163.952 0 0 1-9.393-13.025l2.1-1.356c2.768 4.28 5.88 8.594 9.25 12.825zm22 23.304a210.793 210.793 0 0 1-11.468-11.204l1.817-1.72a206.497 206.497 0 0 0 11.33 11.07l-1.68 1.854zm25.152 19.81a252.55 252.55 0 0 1-12.905-9.484l1.545-1.965c4.073 3.202 8.37 6.36 12.777 9.39l-1.418 2.06zm27.375 16.57a298.65 298.65 0 0 1-13.918-7.9l1.292-2.137a294.859 294.859 0 0 0 13.803 7.83zm28.932 13.63a349.114 349.114 0 0 1-14.628-6.468l1.064-2.263a347.58 347.58 0 0 0 14.52 6.42l-.957 2.31m22.028 8.348c-2.4-.828-4.765-1.668-7.09-2.518l.86-2.35c2.31.845 4.66 1.68 7.045 2.505l-.814 2.362m-32.867-213.6c-.004-.027-.573-2.832-1.723-7.218l2.418-.635c1.17 4.463 1.734 7.245 1.758 7.36l-2.452.493m-7.956-72.921c-2.615-3.436-6.117-7.07-10.41-10.806l1.64-1.886c4.422 3.845 8.042 7.606 10.76 11.177zm-47.9 8.193l-.994-2.295c5.34-2.31 10.61-3.06 15.614-2.23l-.41 2.466c-4.53-.753-9.313-.06-14.21 2.057zm36.806 15.665c-3.074-4.65-6.332-8.457-9.682-11.315l1.622-1.903c3.53 3.01 6.942 6.995 10.146 11.84l-2.085 1.378zm13.183 3.526l-1.657-1.874c3.67-3.245 5.53-6.996 5.53-11.15 0-.41-.017-.825-.054-1.247l2.493-.207c.04.49.06.976.06 1.452 0 4.902-2.144 9.285-6.373 13.024zm-72.588.406a6.931 6.931 0 0 1-.086-1.093c0-2.688 1.533-5.558 4.554-8.532a84.644 84.644 0 0 1 4.063-3.747l1.632 1.893a80.749 80.749 0 0 0-3.942 3.638c-2.528 2.486-3.81 4.757-3.81 6.75 0 .237.02.472.056.7l-2.47.392zm43.657 10.495l-.332-2.477c5.334-.713 10.265-1.833 14.66-3.328l.806 2.366c-4.548 1.55-9.64 2.706-15.133 3.44zm-15.46.845c-5.718-.144-11.053-.813-15.425-1.94l.623-2.42c4.192 1.08 9.332 1.723 14.866 1.86l-.063 2.5zm44.117 12.044c-1.755-5.04-3.654-9.777-5.645-14.085l2.27-1.05c2.025 4.383 3.955 9.198 5.735 14.313l-2.36.82m-24.304-71.333a207.75 207.75 0 0 0-6.18-4.175l1.365-2.096a215.339 215.339 0 0 1 6.253 4.224l-1.437 2.046m-220.9 163.427c-.026-.014-2.675-1.37-6.78-2.494l.66-2.412c4.38 1.2 7.154 2.627 7.27 2.686l-1.15 2.22m-35.092.974l-1.36-2.098c4.434-2.873 9.408-4.62 14.785-5.188l.264 2.485c-4.983.527-9.59 2.143-13.69 4.8m-14.067 16.693l-2.233-1.123c1.195-2.374 2.5-4.6 3.88-6.612l2.062 1.415a54.398 54.398 0 0 0-3.708 6.32" fill="#5b5562"/><path d="M462.767 460.588l-5.412-3.35 10.277-16.608 5.414 3.35-10.28 16.608" fill="#f68569"/><path d="M472.917 466.868l-5.412-3.35 13.917-22.486 5.414 3.35-13.92 22.487" fill="#7fd4c8"/><path d="M483.067 473.152l-5.412-3.35 16.752-27.068 5.414 3.35-16.753 27.068" fill="#bd1c2d"/><path d="M484.153 481.864l-35.393-21.906 2.19-3.54 35.395 21.906-2.192 3.54" fill="#413739"/><path d="M505.317 432.325l-12.342-8.673.056 4.896-24.99 4.202 25.078 3.633.057 4.896 12.14-8.952" fill="#e9f059"/><path d="M694.28 646.124c-4.563-5.815-13.139-6.626-18.72-1.587-4.65 4.196-5.569 11.283-2.133 16.52a12.78 12.78 0 0 0 6.635 5.148c4.564 1.538 8.63 4.275 11.88 7.828l.07.075 4.896-3.84 4.897-3.842-.056-.085c-2.675-3.997-4.375-8.59-4.776-13.383a12.767 12.767 0 0 0-2.692-6.834" fill="#f7e65d"/><path d="M703.712 667.401l-11.207 8.795-3.862-4.922 11.208-8.795 3.86 4.923" fill="#4f4340"/><path d="M692.717 673.842l2.984 3.8 8.657-6.793-2.98-3.8-8.66 6.794m-.148-4.175l-4.717-3.855c-1.616-1.323-3.415-2.564-4.685-4.24-.716-.948-1.104-2.18-1.406-3.308-.435-1.135.144-1.988 1.736-2.558.733.137 1.405.42 2.016.85.467.326.865.716 1.197 1.173-.944.577-1.464.453-1.56-.37a3.781 3.781 0 0 1-.118-2.263c.983-1.09 1.923-1.238 2.82-.448.9.582 1.24 1.73.008.31-.862-.994-1.005-2.418-.683-3.642.383-1.45 3.194 1.284 3.44 1.566.653.753 1.13 1.664 1.6 2.535 1.96 3.625 3.764 7.34 5.64 11.01.143.276.593.09.45-.19-1.564-3.052-3.127-6.106-4.69-9.16-1.077-2.103-2.226-4.99-4.47-6.13-1.632-.83-2.404-.605-2.63 1.255-.227 1.874 1.078 3.587 2.658 4.38.107.055.283-.015.315-.136.287-1.106-.923-2.058-1.828-2.493-1.337-.643-2.4-.37-3.082.964-.65 1.27.155 3.306 1.11 4.158.853.758 1.825-.324 1.672-1.16-.27-1.472-2.577-2.398-3.807-2.692-1.84-.44-2.665.886-2.414 2.498.346 2.207 1.42 4.143 3.02 5.67 2.512 2.397 5.43 4.47 8.12 6.667.242.2.53-.19.29-.39" fill="#4f4340"/><path d="M485.55 698.696h-7.5c-2.758 0-5-2.243-5-5v-35c0-2.758 2.242-5 5-5 2.757 0 5 2.242 5 5v26.25h-2.5v-26.25c0-1.38-1.123-2.5-2.5-2.5-1.379 0-2.5 1.12-2.5 2.5v35c0 1.377 1.121 2.5 2.5 2.5h7.5c1.377 0 2.5-1.123 2.5-2.5v-38.75h2.5v38.75c0 2.757-2.243 5-5 5" fill="#ef2b3a"/><path d="M488.777 704.972l-6.854-3.043a5.001 5.001 0 0 1-2.54-6.597l14.2-31.99a5.008 5.008 0 0 1 6.6-2.542 5.006 5.006 0 0 1 2.54 6.6l-10.65 23.992-2.286-1.015 10.65-23.99c.56-1.26-.01-2.74-1.27-3.3-1.26-.56-2.74.01-3.3 1.27l-14.2 31.99c-.56 1.26.01 2.74 1.27 3.3l6.855 3.042c1.26.56 2.74-.01 3.3-1.27l15.723-35.42 2.284 1.016-15.722 35.416a5.007 5.007 0 0 1-6.6 2.542" fill="#78d0a9"/><path d="M523.857 684.218l-6.986 2.73a5.003 5.003 0 0 1-6.478-2.835l-12.746-32.595a5.007 5.007 0 0 1 2.835-6.48 5.007 5.007 0 0 1 6.478 2.836l9.56 24.448-2.33.91-9.56-24.446a2.501 2.501 0 0 0-3.238-1.418 2.503 2.503 0 0 0-1.417 3.24l12.746 32.595a2.504 2.504 0 0 0 3.24 1.418l6.984-2.732a2.5 2.5 0 0 0 1.417-3.237l-14.11-36.09 2.327-.91 14.112 36.09a5.005 5.005 0 0 1-2.835 6.477" fill="#face0b"/><path d="M524.037 706.9l-6.092-4.37a5.006 5.006 0 0 1-1.15-6.978l20.403-28.44a5.01 5.01 0 0 1 6.98-1.147 5.004 5.004 0 0 1 1.146 6.977l-15.3 21.328-2.032-1.456 15.3-21.33a2.5 2.5 0 0 0-4.06-2.915l-20.403 28.44a2.505 2.505 0 0 0 .574 3.488l6.095 4.37a2.5 2.5 0 0 0 3.487-.572l22.588-31.487 2.03 1.46-22.586 31.485a5.009 5.009 0 0 1-6.98 1.147" fill="#7188cd"/><path d="M624.652 636.743a5.238 5.238 0 1 1-10.477 0 5.239 5.239 0 1 1 10.477 0" fill="#f5d019"/><path d="M745.917 479.054a5.239 5.239 0 1 1-10.477 0 5.24 5.24 0 1 1 10.478 0" fill="#fae03c"/><path d="M528.835 508.723a5.24 5.24 0 1 1-5.238-5.24 5.24 5.24 0 0 1 5.238 5.24m97.712 154.78h16.015l-8.006-13.97-8.01 13.97zm18.17 1.25h-20.324l10.163-17.736 10.16 17.735" fill="#83d28c"/><path d="M797.27 502.432l-1.638-15.93-13.08 9.395 14.718 6.534zm-.616-18.2l2.08 20.216-18.682-8.294 16.602-11.923" fill="#eb41a9"/><path d="M454.347 659.688l-1.637-15.93-13.08 9.394 14.717 6.535zm-.615-18.204l2.08 20.22-18.683-8.296 16.603-11.924" fill="#86d49c"/><path d="M548.297 492.388l14.81-6.098-12.725-9.87-2.084 15.968zm17.278-5.763l-18.794 7.74 2.643-20.27 16.15 12.53m40.303 229.673l2.303-15.848-14.978 5.915zm3.85-17.8l-2.922 20.112-16.092-12.606 19.013-7.507" fill="#f1495f"/><text style="line-height:26.79708481px;-inkscape-font-specification:'Comic Sans MS, Normal';font-variant-ligatures:normal;font-variant-caps:normal;font-variant-numeric:normal;font-feature-settings:normal;text-align:start" x="325.619" y="718.214" transform="matrix(1.0557 -.16154 .1856 .91885 0 0)" font-weight="400" font-size="42.875" font-family="Comic Sans MS" letter-spacing="0" word-spacing="0" fill="#5b5562" stroke-width="1.072"><tspan x="325.619" y="718.214">SUCCESS</tspan></text></svg>