<?xml version="1.0" encoding="UTF-8" ?>
<!DOCTYPE svg PUBLIC "-//W3C//DTD SVG 1.1//EN" "http://www.w3.org/Graphics/SVG/1.1/DTD/svg11.dtd">
<svg width="578pt" height="325pt" viewBox="0 0 578 325" version="1.1" xmlns="http://www.w3.org/2000/svg">
<g id="#d4d4d4ff">
</g>
<g id="#e0e0e0ff">
</g>
<g id="#e9e9e9ff">
</g>
<g id="#f4f4f4ff">
</g>
<g id="#fbfbfbff">
</g>
<g id="#fefefeff">
</g>
<g id="#f9f9f9ff">
</g>
<g id="#ebebebff">
</g>
<g id="#ac1705ff">
<path fill="#ac1705" opacity="1.00" d=" M 165.15 61.72 C 159.04 50.48 156.59 37.11 159.15 24.51 C 159.77 30.44 159.20 36.47 160.62 42.31 C 163.97 58.57 177.61 70.60 191.94 77.67 C 189.30 77.92 186.75 77.34 184.44 76.10 C 183.67 77.03 182.86 77.93 182.21 78.95 C 184.40 81.36 187.52 83.04 188.50 86.37 C 179.06 80.00 170.57 71.82 165.15 61.72 Z" />
</g>
<g id="#510601ff">
<path fill="#510601" opacity="1.00" d=" M 32.35 81.09 C 29.29 65.71 31.84 49.13 40.71 36.04 C 37.76 47.88 36.42 60.84 41.39 72.34 C 45.14 81.11 51.97 88.21 59.82 93.46 C 57.73 94.36 55.47 93.92 53.34 93.47 C 52.83 94.07 52.33 94.67 51.82 95.27 C 52.46 98.40 52.40 101.61 52.00 104.76 C 50.99 106.15 49.86 107.51 49.23 109.13 C 50.06 112.64 52.46 115.53 54.86 118.12 C 56.39 119.84 58.55 121.41 58.49 123.97 C 56.07 121.96 53.77 119.82 51.63 117.53 C 42.16 107.36 35.10 94.78 32.35 81.09 Z" />
</g>
<g id="#7b0d03ff">
<path fill="#7b0d03" opacity="1.00" d=" M 59.38 53.38 C 59.59 53.35 60.01 53.30 60.22 53.27 C 62.15 60.37 64.85 67.33 69.10 73.38 C 72.15 77.69 75.85 81.55 79.96 84.87 C 94.90 96.71 114.31 100.14 132.76 102.17 C 131.28 102.56 129.79 102.93 128.29 103.30 C 124.20 103.05 120.18 101.77 116.07 102.08 C 114.96 102.74 113.96 103.58 112.94 104.38 C 113.43 104.88 114.39 105.86 114.87 106.36 C 114.00 106.67 113.12 106.98 112.25 107.30 L 111.69 107.48 C 98.55 103.45 86.18 96.27 77.00 85.93 C 68.52 76.73 62.54 65.47 59.38 53.38 Z" />
<path fill="#7b0d03" opacity="1.00" d=" M 130.01 148.94 C 130.36 148.90 131.06 148.82 131.41 148.77 C 138.26 151.57 145.47 153.35 152.81 154.22 C 155.95 154.71 159.12 155.00 162.29 155.12 C 164.20 155.24 166.11 155.28 168.03 155.32 C 167.23 156.12 166.43 156.93 165.63 157.74 C 153.45 156.46 140.99 154.71 130.01 148.94 Z" />
</g>
<g id="#8d1001ff">
<path fill="#8d1001" opacity="1.00" d=" M 114.20 68.95 C 114.60 62.61 119.15 57.64 124.07 54.11 C 122.29 57.52 120.05 61.00 120.28 65.01 C 120.00 70.44 123.73 75.00 127.65 78.30 C 136.45 85.33 147.34 88.87 157.96 92.12 C 152.80 93.68 147.85 90.68 142.97 89.41 C 141.60 90.73 140.25 92.05 138.89 93.37 C 140.19 93.71 141.49 94.05 142.79 94.40 C 142.41 95.84 142.04 97.28 141.66 98.73 C 142.29 99.73 142.92 100.73 143.55 101.73 C 142.55 102.43 141.55 103.13 140.53 103.80 C 140.30 103.30 139.85 102.30 139.63 101.81 L 139.56 101.77 C 133.88 98.98 128.52 95.47 123.99 91.04 C 118.09 85.33 113.23 77.48 114.20 68.95 Z" />
</g>
<g id="#c71c02ff">
<path fill="#c71c02" opacity="1.00" d=" M 182.21 78.95 C 182.86 77.93 183.67 77.03 184.44 76.10 C 186.75 77.34 189.30 77.92 191.94 77.67 C 206.39 84.36 221.79 88.51 236.81 93.65 C 232.26 93.98 227.93 92.56 223.58 91.50 C 222.14 90.93 220.89 91.88 219.66 92.47 C 220.91 92.58 222.17 92.68 223.43 92.76 C 222.02 93.33 220.61 93.90 219.20 94.48 C 219.95 95.05 220.69 95.62 221.45 96.19 C 221.42 97.00 221.39 97.80 221.37 98.61 C 224.47 99.64 227.62 100.55 230.58 101.95 C 230.92 102.44 231.60 103.43 231.94 103.92 C 227.54 102.58 223.15 101.21 218.77 99.80 C 208.37 96.10 197.73 92.55 188.50 86.37 C 187.52 83.04 184.40 81.36 182.21 78.95 Z" />
<path fill="#c71c02" opacity="1.00" d=" M 278.12 256.77 C 292.33 255.12 306.25 251.41 320.51 250.15 C 320.38 250.73 320.12 251.90 319.99 252.48 C 317.90 252.50 315.80 252.50 313.74 252.82 C 303.14 254.64 292.58 256.85 281.85 257.66 C 273.66 258.39 265.11 258.95 257.29 255.89 C 264.09 257.62 271.20 258.12 278.12 256.77 Z" />
</g>
<g id="#f1f1f1ff">
</g>
<g id="#a91400ff">
<path fill="#a91400" opacity="1.00" d=" M 138.89 93.37 C 140.25 92.05 141.60 90.73 142.97 89.41 C 147.85 90.68 152.80 93.68 157.96 92.12 C 169.99 94.91 182.21 96.73 194.41 98.61 C 189.21 99.38 183.95 99.03 178.71 99.26 C 178.24 99.00 177.76 98.75 177.29 98.50 C 173.64 108.50 173.43 119.37 174.22 129.87 C 174.59 132.74 172.37 134.95 171.21 137.35 C 169.74 139.57 170.03 142.32 169.94 144.86 C 177.23 145.31 184.53 145.12 191.82 144.97 C 198.76 144.81 205.70 145.46 212.64 145.10 C 220.12 145.65 227.70 144.82 235.10 146.25 C 234.68 146.57 233.84 147.21 233.42 147.53 C 209.11 144.96 184.67 147.05 160.32 147.58 C 153.01 146.13 145.54 146.79 138.15 146.73 C 136.71 143.17 135.10 139.19 136.62 135.38 C 138.63 130.45 138.05 125.06 138.78 119.90 C 139.23 115.12 140.97 109.75 137.63 105.58 C 138.60 104.99 139.56 104.40 140.53 103.80 C 141.55 103.13 142.55 102.43 143.55 101.73 C 142.92 100.73 142.29 99.73 141.66 98.73 C 142.04 97.28 142.41 95.84 142.79 94.40 C 141.49 94.05 140.19 93.71 138.89 93.37 Z" />
</g>
<g id="#e22000ff">
<path fill="#e22000" opacity="1.00" d=" M 219.66 92.47 C 220.89 91.88 222.14 90.93 223.58 91.50 C 227.93 92.56 232.26 93.98 236.81 93.65 C 248.91 97.72 261.30 102.07 271.44 110.05 C 266.11 107.98 261.01 105.41 255.85 102.95 C 251.41 100.95 246.67 99.73 241.87 98.91 C 241.94 100.40 240.81 102.46 242.50 103.42 C 243.44 104.21 244.47 104.89 245.49 105.60 C 243.80 106.67 242.13 107.75 240.45 108.83 C 241.87 109.59 243.30 110.36 244.73 111.11 C 243.22 112.47 241.54 113.71 240.39 115.40 C 238.94 121.95 241.38 128.98 238.60 135.32 C 237.79 138.33 235.44 141.37 236.32 144.58 C 240.08 147.02 244.74 147.19 249.00 148.25 C 251.71 148.82 254.41 149.44 257.09 150.13 C 256.74 150.51 256.02 151.26 255.67 151.63 C 248.36 149.73 240.92 148.36 233.42 147.53 C 233.84 147.21 234.68 146.57 235.10 146.25 C 227.70 144.82 220.12 145.65 212.64 145.10 C 213.65 144.60 214.65 144.09 215.65 143.57 C 216.00 136.33 217.75 129.24 217.84 121.98 C 217.96 119.46 217.93 116.90 218.52 114.43 C 219.23 111.80 221.24 109.82 222.90 107.76 C 222.61 107.36 222.01 106.58 221.72 106.18 C 220.83 106.31 219.95 106.44 219.07 106.57 C 218.83 106.19 218.36 105.43 218.13 105.04 C 222.50 105.04 226.79 105.81 231.05 106.70 C 232.90 107.23 234.70 106.48 236.42 105.88 C 236.56 105.84 236.83 105.75 236.97 105.71 C 235.29 105.11 233.61 104.53 231.94 103.92 C 231.60 103.43 230.92 102.44 230.58 101.95 C 227.62 100.55 224.47 99.64 221.37 98.61 C 221.39 97.80 221.42 97.00 221.45 96.19 C 220.69 95.62 219.95 95.05 219.20 94.48 C 220.61 93.90 222.02 93.33 223.43 92.76 C 222.17 92.68 220.91 92.58 219.66 92.47 Z" />
</g>
<g id="#6c0900ff">
<path fill="#6c0900" opacity="1.00" d=" M 53.34 93.47 C 55.47 93.92 57.73 94.36 59.82 93.46 C 72.73 101.61 87.75 105.70 102.76 107.73 C 99.94 109.19 96.73 109.07 93.65 109.12 C 93.24 112.36 91.26 115.01 90.10 117.98 C 89.14 122.06 90.62 126.22 90.32 130.34 C 90.03 133.18 88.84 135.81 87.83 138.44 C 88.04 138.97 88.26 139.49 88.47 140.02 C 87.98 141.61 87.49 143.21 87.01 144.81 C 87.97 145.48 89.13 145.98 89.82 146.98 C 89.81 149.36 88.75 151.56 87.97 153.76 C 86.10 149.28 85.34 144.47 84.78 139.68 C 75.30 135.80 66.23 130.71 58.49 123.97 C 58.55 121.41 56.39 119.84 54.86 118.12 C 52.46 115.53 50.06 112.64 49.23 109.13 C 49.86 107.51 50.99 106.15 52.00 104.76 C 52.40 101.61 52.46 98.40 51.82 95.27 C 52.33 94.67 52.83 94.07 53.34 93.47 Z" />
</g>
<g id="#bf1900ff">
<path fill="#bf1900" opacity="1.00" d=" M 177.29 98.50 C 177.76 98.75 178.24 99.00 178.71 99.26 C 183.95 99.03 189.21 99.38 194.41 98.61 C 200.85 99.45 207.30 100.25 213.66 101.56 L 214.40 101.72 C 209.44 102.49 204.40 102.63 199.41 101.99 C 199.55 102.96 199.68 103.94 199.82 104.91 C 199.32 105.82 198.81 106.74 198.31 107.65 C 200.21 108.06 202.11 108.46 204.02 108.87 C 203.72 109.36 203.13 110.33 202.84 110.82 C 201.28 110.55 199.73 110.28 198.19 110.00 C 199.12 112.19 199.80 114.47 200.32 116.79 C 199.50 117.52 198.69 118.25 197.88 118.99 C 198.20 119.26 198.85 119.80 199.18 120.07 C 196.81 125.46 198.55 131.39 197.79 137.03 C 197.23 140.47 194.73 143.23 191.82 144.97 C 184.53 145.12 177.23 145.31 169.94 144.86 C 170.03 142.32 169.74 139.57 171.21 137.35 C 172.37 134.95 174.59 132.74 174.22 129.87 C 173.43 119.37 173.64 108.50 177.29 98.50 Z" />
<path fill="#bf1900" opacity="1.00" d=" M 193.68 166.73 C 196.58 166.46 199.49 166.37 202.40 166.22 C 198.34 169.61 192.59 168.61 187.70 169.39 C 184.45 176.93 184.89 185.27 183.36 193.20 C 191.83 194.51 200.46 192.94 208.95 194.29 L 207.46 194.68 C 191.29 196.44 174.97 195.43 158.75 195.88 C 158.29 195.74 157.83 195.58 157.39 195.41 C 160.07 195.04 162.77 194.84 165.47 194.87 C 167.75 195.00 170.03 194.91 172.30 194.71 C 169.29 194.04 166.24 193.30 163.68 191.50 C 164.40 190.37 165.12 189.25 165.84 188.13 C 165.39 187.51 164.95 186.90 164.50 186.29 C 166.40 183.15 168.63 180.21 171.32 177.70 C 170.23 177.59 169.15 177.48 168.07 177.38 C 168.07 176.33 168.07 175.29 168.07 174.25 C 169.42 172.52 170.75 170.77 172.05 169.01 C 179.27 168.70 186.81 169.42 193.68 166.73 Z" />
</g>
<g id="#f12200ff">
<path fill="#f12200" opacity="1.00" d=" M 241.87 98.91 C 246.67 99.73 251.41 100.95 255.85 102.95 C 256.46 105.47 257.13 107.96 257.93 110.42 C 256.22 110.56 254.52 110.75 252.83 111.04 C 253.86 111.83 254.89 112.60 255.93 113.38 C 256.15 117.84 255.73 122.30 254.71 126.64 C 253.84 127.43 252.97 128.21 252.11 129.01 C 252.19 132.44 251.95 135.91 250.70 139.15 C 250.91 142.29 250.74 145.51 249.00 148.25 C 244.74 147.19 240.08 147.02 236.32 144.58 C 235.44 141.37 237.79 138.33 238.60 135.32 C 241.38 128.98 238.94 121.95 240.39 115.40 C 241.54 113.71 243.22 112.47 244.73 111.11 C 243.30 110.36 241.87 109.59 240.45 108.83 C 242.13 107.75 243.80 106.67 245.49 105.60 C 244.47 104.89 243.44 104.21 242.50 103.42 C 240.81 102.46 241.94 100.40 241.87 98.91 Z" />
</g>
<g id="#ffded6ff">
<path fill="#ffded6" opacity="1.00" d=" M 218.77 99.80 C 223.15 101.21 227.54 102.58 231.94 103.92 C 233.61 104.53 235.29 105.11 236.97 105.71 C 236.83 105.75 236.56 105.84 236.42 105.88 C 229.16 104.10 221.78 102.85 214.40 101.72 L 213.66 101.56 C 215.38 101.03 217.08 100.43 218.77 99.80 Z" />
</g>
<g id="#961100ff">
<path fill="#961100" opacity="1.00" d=" M 139.56 101.77 L 139.63 101.81 C 139.85 102.30 140.30 103.30 140.53 103.80 C 139.56 104.40 138.60 104.99 137.63 105.58 C 140.97 109.75 139.23 115.12 138.78 119.90 C 138.05 125.06 138.63 130.45 136.62 135.38 C 135.10 139.19 136.71 143.17 138.15 146.73 C 145.54 146.79 153.01 146.13 160.32 147.58 C 150.70 148.59 141.02 147.94 131.41 148.77 C 131.06 148.82 130.36 148.90 130.01 148.94 C 128.62 148.45 127.20 148.06 125.80 147.62 C 124.16 145.05 119.57 146.35 119.17 142.93 C 118.00 137.09 121.87 131.80 121.88 126.00 C 121.98 120.18 124.07 114.66 124.46 108.88 C 124.45 106.39 126.87 105.01 128.29 103.30 C 129.79 102.93 131.28 102.56 132.76 102.17 C 135.03 102.16 137.29 101.93 139.56 101.77 Z" />
</g>
<g id="#8a0f00ff">
<path fill="#8a0f00" opacity="1.00" d=" M 112.94 104.38 C 113.96 103.58 114.96 102.74 116.07 102.08 C 120.18 101.77 124.20 103.05 128.29 103.30 C 126.87 105.01 124.45 106.39 124.46 108.88 C 124.07 114.66 121.98 120.18 121.88 126.00 C 121.87 131.80 118.00 137.09 119.17 142.93 C 119.57 146.35 124.16 145.05 125.80 147.62 C 125.03 147.65 123.48 147.70 122.71 147.73 C 126.13 151.65 130.44 154.63 134.91 157.22 C 134.60 158.03 134.29 158.83 133.98 159.64 C 132.95 159.13 131.91 158.62 130.90 158.08 C 127.00 155.11 123.88 151.32 120.44 147.88 C 120.26 147.78 119.91 147.58 119.74 147.48 C 114.71 143.43 106.85 146.53 102.78 140.82 C 102.76 138.94 102.52 137.07 102.71 135.20 C 103.39 132.33 105.40 129.90 105.70 126.91 C 106.24 123.55 105.92 119.90 107.69 116.85 C 109.24 113.76 111.96 111.53 114.59 109.39 C 113.82 108.68 113.05 107.97 112.25 107.30 C 113.12 106.98 114.00 106.67 114.87 106.36 C 114.39 105.86 113.43 104.88 112.94 104.38 Z" />
</g>
<g id="#d11c00ff">
<path fill="#d11c00" opacity="1.00" d=" M 199.41 101.99 C 204.40 102.63 209.44 102.49 214.40 101.72 C 221.78 102.85 229.16 104.10 236.42 105.88 C 234.70 106.48 232.90 107.23 231.05 106.70 C 226.79 105.81 222.50 105.04 218.13 105.04 C 218.36 105.43 218.83 106.19 219.07 106.57 C 219.95 106.44 220.83 106.31 221.72 106.18 C 222.01 106.58 222.61 107.36 222.90 107.76 C 221.24 109.82 219.23 111.80 218.52 114.43 C 217.93 116.90 217.96 119.46 217.84 121.98 C 217.75 129.24 216.00 136.33 215.65 143.57 C 214.65 144.09 213.65 144.60 212.64 145.10 C 205.70 145.46 198.76 144.81 191.82 144.97 C 194.73 143.23 197.23 140.47 197.79 137.03 C 198.55 131.39 196.81 125.46 199.18 120.07 C 198.85 119.80 198.20 119.26 197.88 118.99 C 198.69 118.25 199.50 117.52 200.32 116.79 C 199.80 114.47 199.12 112.19 198.19 110.00 C 199.73 110.28 201.28 110.55 202.84 110.82 C 203.13 110.33 203.72 109.36 204.02 108.87 C 202.11 108.46 200.21 108.06 198.31 107.65 C 198.81 106.74 199.32 105.82 199.82 104.91 C 199.68 103.94 199.55 102.96 199.41 101.99 Z" />
</g>
<g id="#fe2501ff">
<path fill="#fe2501" opacity="1.00" d=" M 255.85 102.95 C 261.01 105.41 266.11 107.98 271.44 110.05 C 280.18 116.73 287.94 125.09 292.37 135.27 C 294.99 141.54 300.16 146.42 302.25 152.94 C 299.98 165.56 296.52 177.96 294.07 190.55 C 293.49 192.73 292.84 194.89 292.22 197.06 C 283.63 196.30 275.23 194.09 266.61 193.57 C 262.37 190.87 257.12 192.02 252.38 191.62 C 246.45 190.74 240.45 190.67 234.46 190.69 C 236.38 183.14 237.77 175.45 237.63 167.63 C 239.32 166.99 241.02 166.35 242.73 165.75 C 252.82 164.98 262.87 166.12 272.92 166.77 C 277.20 167.15 281.32 168.56 285.63 168.75 L 286.09 167.78 C 284.24 166.61 282.27 165.67 280.29 164.75 C 279.41 163.66 278.55 162.56 277.71 161.45 C 277.97 161.50 278.49 161.62 278.75 161.67 C 274.61 159.26 270.45 156.82 265.94 155.16 C 262.58 153.80 259.14 152.64 255.67 151.63 C 256.02 151.26 256.74 150.51 257.09 150.13 C 254.41 149.44 251.71 148.82 249.00 148.25 C 250.74 145.51 250.91 142.29 250.70 139.15 C 251.95 135.91 252.19 132.44 252.11 129.01 C 252.97 128.21 253.84 127.43 254.71 126.64 C 255.73 122.30 256.15 117.84 255.93 113.38 C 254.89 112.60 253.86 111.83 252.83 111.04 C 254.52 110.75 256.22 110.56 257.93 110.42 C 257.13 107.96 256.46 105.47 255.85 102.95 Z" />
<path fill="#fe2501" opacity="1.00" d=" M 254.35 202.33 C 265.84 200.93 277.37 200.03 288.96 200.24 C 288.93 203.81 288.98 207.37 289.10 210.94 C 303.47 211.39 317.86 210.62 332.22 211.27 C 334.40 216.04 339.39 218.47 342.11 222.85 C 344.86 226.57 346.15 231.06 347.55 235.40 C 347.90 237.11 349.75 237.56 350.99 238.46 C 357.46 242.89 361.48 250.50 361.71 258.32 C 368.74 264.32 372.49 274.52 368.67 283.34 C 366.70 278.96 364.35 274.45 360.12 271.84 C 351.85 266.30 341.40 267.05 331.92 267.49 C 313.33 269.23 295.42 275.00 276.96 277.51 C 270.33 277.97 263.64 278.07 257.02 277.49 C 248.60 276.13 239.96 272.73 234.45 265.95 C 235.24 262.99 233.70 260.31 232.74 257.63 C 230.99 252.27 232.01 246.45 234.31 241.43 C 238.68 239.64 243.91 239.66 247.52 236.33 C 247.76 236.28 248.23 236.19 248.47 236.15 C 251.82 235.56 255.15 234.88 258.51 234.36 C 262.59 234.92 266.70 234.40 270.32 232.35 C 281.67 229.63 293.38 229.01 304.91 227.41 C 304.80 227.37 304.58 227.29 304.47 227.26 C 301.94 226.14 299.44 224.92 296.71 224.38 C 288.62 224.86 280.51 224.23 272.43 224.95 C 264.13 224.37 255.73 224.54 247.59 226.43 C 245.19 226.72 241.45 227.67 240.31 224.74 C 240.19 221.31 242.03 218.24 243.06 215.07 C 244.25 212.43 243.65 209.52 243.29 206.78 C 244.33 205.96 245.37 205.16 246.44 204.39 C 249.14 204.00 251.81 203.35 254.35 202.33 M 264.03 253.90 C 261.75 254.42 259.13 254.20 257.29 255.89 C 255.85 255.52 254.40 255.50 252.93 255.83 C 249.03 255.08 244.88 255.71 241.05 256.65 C 240.05 257.16 237.85 257.35 238.48 259.00 C 239.09 259.29 240.32 259.86 240.94 260.14 C 242.78 260.85 244.66 261.49 246.60 261.89 C 247.92 264.07 250.70 264.03 252.94 264.30 C 256.99 264.40 261.42 265.11 264.97 262.64 C 268.31 262.73 271.65 262.93 274.99 262.74 C 280.26 262.71 285.15 260.41 290.39 260.04 C 294.38 258.85 299.00 258.70 302.30 255.95 C 311.41 253.92 320.61 252.37 329.89 251.32 C 327.64 251.39 325.40 251.55 323.17 251.76 C 322.54 251.08 321.91 250.40 321.30 249.71 C 326.17 249.53 331.05 249.24 335.93 249.46 C 311.96 245.00 287.72 250.15 264.03 253.90 Z" />
</g>
<g id="#7f0d00ff">
<path fill="#7f0d00" opacity="1.00" d=" M 111.69 107.48 L 112.25 107.30 C 113.05 107.97 113.82 108.68 114.59 109.39 C 111.96 111.53 109.24 113.76 107.69 116.85 C 105.92 119.90 106.24 123.55 105.70 126.91 C 105.40 129.90 103.39 132.33 102.71 135.20 C 102.52 137.07 102.76 138.94 102.78 140.82 C 106.85 146.53 114.71 143.43 119.74 147.48 C 111.21 147.22 102.89 145.12 94.61 143.21 C 100.63 153.52 112.06 158.77 122.90 162.47 C 118.52 163.12 114.32 161.57 110.06 160.86 C 109.78 163.58 109.80 166.35 109.11 169.02 C 108.02 169.97 106.76 170.73 105.55 171.53 C 106.35 172.22 107.15 172.92 107.95 173.62 C 107.56 173.76 106.78 174.03 106.39 174.16 C 110.36 177.28 115.53 179.41 118.03 184.02 C 117.00 183.51 115.98 182.99 114.97 182.47 C 103.47 175.85 92.99 166.30 87.97 153.76 C 88.75 151.56 89.81 149.36 89.82 146.98 C 89.13 145.98 87.97 145.48 87.01 144.81 C 87.49 143.21 87.98 141.61 88.47 140.02 C 88.26 139.49 88.04 138.97 87.83 138.44 C 88.84 135.81 90.03 133.18 90.32 130.34 C 90.62 126.22 89.14 122.06 90.10 117.98 C 91.26 115.01 93.24 112.36 93.65 109.12 C 96.73 109.07 99.94 109.19 102.76 107.73 C 105.17 107.99 107.59 108.28 110.02 108.27 C 110.44 108.07 111.27 107.68 111.69 107.48 Z" />
</g>
<g id="#4a4a4aff">
<path fill="#4a4a4a" opacity="1.00" d=" M 313.78 127.77 C 319.64 127.80 325.50 127.72 331.36 127.83 C 330.43 132.40 329.22 136.91 328.47 141.52 L 328.41 141.46 C 327.27 140.39 326.36 138.77 324.67 138.58 C 320.18 137.82 315.73 139.23 311.27 139.54 C 311.88 135.57 312.84 131.67 313.78 127.77 Z" />
</g>
<g id="#4e4e4eff">
<path fill="#4e4e4e" opacity="1.00" d=" M 331.16 141.67 C 332.24 136.97 333.02 132.19 334.50 127.59 C 343.92 128.00 354.18 126.50 362.74 131.35 C 368.47 134.53 369.83 141.60 369.72 147.62 C 368.45 145.59 367.24 143.53 366.06 141.45 C 362.95 143.95 358.78 142.20 355.47 144.29 C 354.34 143.84 353.22 143.38 352.11 142.93 C 351.59 143.22 350.53 143.81 350.00 144.11 C 344.49 140.24 337.43 142.26 331.16 141.67 Z" />
<path fill="#4e4e4e" opacity="1.00" d=" M 493.26 128.25 C 500.90 128.17 508.53 128.17 516.17 128.24 C 510.43 133.06 504.43 137.55 498.59 142.24 C 495.09 140.16 490.73 138.74 487.08 141.33 C 485.94 139.68 484.81 138.03 483.69 136.38 C 486.91 133.70 490.11 131.01 493.26 128.25 Z" />
<path fill="#4e4e4e" opacity="1.00" d=" M 348.52 163.70 C 354.12 162.70 359.84 162.81 365.51 163.07 C 365.68 163.72 366.03 165.03 366.20 165.68 L 365.74 165.67 C 360.02 165.42 354.30 167.01 348.61 165.79 C 348.59 165.26 348.54 164.22 348.52 163.70 Z" />
</g>
<g id="#505050ff">
<path fill="#505050" opacity="1.00" d=" M 391.52 132.37 C 397.55 129.52 404.25 128.31 410.89 128.22 C 410.33 132.42 409.30 136.52 408.40 140.66 C 404.42 141.24 400.17 141.56 396.95 144.27 C 395.90 143.28 394.85 142.29 393.81 141.31 C 392.44 142.02 391.16 142.95 389.66 143.35 C 387.81 143.15 386.16 142.22 384.46 141.56 C 382.68 142.99 380.85 144.36 379.02 145.73 C 380.91 139.67 385.92 135.05 391.52 132.37 Z" />
<path fill="#505050" opacity="1.00" d=" M 413.66 128.24 C 419.73 128.08 426.00 129.41 431.01 132.99 C 433.73 134.83 435.90 137.88 435.86 141.28 C 435.88 141.91 435.93 143.19 435.96 143.83 C 434.92 142.77 433.89 141.71 432.86 140.66 C 429.74 141.64 426.46 141.43 423.32 140.66 C 422.59 140.92 421.87 141.19 421.15 141.46 C 419.36 141.69 417.56 141.92 415.77 142.07 C 414.15 142.10 412.63 141.36 411.08 140.98 C 411.73 136.69 412.78 132.48 413.66 128.24 Z" />
<path fill="#505050" opacity="1.00" d=" M 448.43 128.26 C 454.50 128.18 460.59 128.03 466.66 128.36 C 465.20 133.17 464.52 138.19 462.92 142.94 C 462.49 143.87 462.06 144.81 461.62 145.73 C 461.00 144.94 460.37 144.15 459.76 143.36 C 455.75 143.60 451.75 144.31 447.73 144.25 C 446.65 144.29 446.15 143.13 445.45 142.53 C 446.26 137.73 447.47 133.02 448.43 128.26 Z" />
<path fill="#505050" opacity="1.00" d=" M 387.63 187.49 C 390.64 188.26 393.49 189.81 396.67 190.00 C 396.69 190.69 396.71 192.08 396.72 192.77 C 391.23 190.58 385.60 193.51 379.99 192.96 C 376.48 192.65 372.93 192.47 369.44 193.14 C 369.26 192.62 368.91 191.58 368.73 191.07 C 369.27 190.16 369.81 189.25 370.35 188.35 C 376.13 188.77 381.90 188.18 387.63 187.49 Z" />
</g>
<g id="#595959ff">
<path fill="#595959" opacity="1.00" d=" M 469.85 148.02 C 474.49 144.17 479.05 140.22 483.69 136.38 C 484.81 138.03 485.94 139.68 487.08 141.33 C 490.73 138.74 495.09 140.16 498.59 142.24 C 494.21 145.77 489.77 149.21 485.38 152.70 C 484.14 151.33 482.91 149.96 481.68 148.59 C 481.67 149.53 481.66 150.48 481.66 151.43 C 477.69 150.43 473.24 150.63 469.85 148.02 Z" />
<path fill="#595959" opacity="1.00" d=" M 311.27 139.54 C 315.73 139.23 320.18 137.82 324.67 138.58 C 326.36 138.77 327.27 140.39 328.41 141.46 C 327.40 145.58 326.48 149.72 325.52 153.85 C 324.48 154.46 323.45 155.08 322.41 155.69 C 322.26 155.14 321.94 154.03 321.79 153.48 C 318.00 153.76 314.22 154.11 310.46 154.58 C 309.33 155.79 308.21 156.99 307.08 158.19 C 308.13 151.94 309.81 145.82 310.91 139.57 L 311.27 139.54 Z" />
</g>
<g id="#5b5b5bff">
<path fill="#5b5b5b" opacity="1.00" d=" M 423.32 140.66 C 426.46 141.43 429.74 141.64 432.86 140.66 C 433.89 141.71 434.92 142.77 435.96 143.83 C 435.93 143.19 435.88 141.91 435.86 141.28 L 436.42 141.29 C 436.72 144.48 436.88 147.68 436.84 150.88 C 431.40 151.53 425.94 152.06 420.48 152.46 C 420.75 148.35 419.47 144.25 415.77 142.07 C 417.56 141.92 419.36 141.69 421.15 141.46 C 421.87 141.19 422.59 140.92 423.32 140.66 Z" />
<path fill="#5b5b5b" opacity="1.00" d=" M 355.47 144.29 C 358.78 142.20 362.95 143.95 366.06 141.45 C 367.24 143.53 368.45 145.59 369.72 147.62 C 369.37 150.30 368.81 152.95 368.13 155.57 C 367.64 154.51 367.16 153.44 366.68 152.38 C 366.25 152.70 365.83 153.03 365.42 153.36 C 363.59 152.63 361.76 151.91 359.94 151.19 C 359.24 151.77 358.55 152.35 357.87 152.94 C 356.89 152.72 355.91 152.50 354.94 152.28 C 354.28 152.83 353.63 153.38 352.98 153.93 C 352.54 153.69 351.67 153.22 351.24 152.98 C 351.89 149.94 351.20 146.92 350.00 144.11 C 350.53 143.81 351.59 143.22 352.11 142.93 C 353.22 143.38 354.34 143.84 355.47 144.29 Z" />
</g>
<g id="#5c5c5cff">
<path fill="#5c5c5c" opacity="1.00" d=" M 379.02 145.73 C 380.85 144.36 382.68 142.99 384.46 141.56 C 386.16 142.22 387.81 143.15 389.66 143.35 C 391.16 142.95 392.44 142.02 393.81 141.31 C 394.85 142.29 395.90 143.28 396.95 144.27 C 395.51 146.96 393.81 150.02 395.58 153.00 C 391.09 153.40 386.42 152.41 382.13 154.16 C 380.79 153.48 379.48 152.80 378.16 152.11 C 378.09 151.00 378.05 149.89 378.01 148.78 C 378.19 147.75 378.24 146.51 379.02 145.73 Z" />
</g>
<g id="#616161ff">
<path fill="#616161" opacity="1.00" d=" M 445.24 142.29 L 445.45 142.53 C 446.15 143.13 446.65 144.29 447.73 144.25 C 451.75 144.31 455.75 143.60 459.76 143.36 C 460.37 144.15 461.00 144.94 461.62 145.73 C 462.06 144.81 462.49 143.87 462.92 142.94 C 462.16 149.29 460.10 155.38 458.98 161.66 L 458.75 161.65 C 452.85 161.27 446.93 161.32 441.03 161.62 C 442.51 155.19 443.93 148.75 445.24 142.29 Z" />
</g>
<g id="#fefcfbff">
</g>
<g id="#fffdfcff">
</g>
<g id="#fffcfaff">
</g>
<g id="#636363ff">
<path fill="#636363" opacity="1.00" d=" M 463.62 153.54 C 465.38 151.38 467.73 149.81 469.85 148.02 C 473.24 150.63 477.69 150.43 481.66 151.43 C 481.66 150.48 481.67 149.53 481.68 148.59 C 482.91 149.96 484.14 151.33 485.38 152.70 C 481.34 155.86 477.47 159.22 473.25 162.13 C 469.43 161.29 465.54 160.95 461.65 160.72 C 462.21 158.31 462.46 155.76 463.62 153.54 Z" />
<path fill="#636363" opacity="1.00" d=" M 379.99 192.96 C 385.60 193.51 391.23 190.58 396.72 192.77 C 396.28 194.48 395.84 196.19 395.42 197.90 C 395.00 198.22 394.16 198.85 393.73 199.16 C 387.39 198.68 381.04 199.95 374.71 198.99 C 372.36 197.67 370.77 195.41 369.44 193.14 C 372.93 192.47 376.48 192.65 379.99 192.96 Z" />
</g>
<g id="#666666ff">
<path fill="#666666" opacity="1.00" d=" M 378.97 162.72 C 376.68 158.42 376.00 153.32 378.01 148.78 C 378.05 149.89 378.09 151.00 378.16 152.11 C 379.48 152.80 380.79 153.48 382.13 154.16 C 386.42 152.41 391.09 153.40 395.58 153.00 C 403.09 157.70 412.43 156.89 420.34 160.50 C 406.71 162.64 392.87 161.54 379.18 162.70 L 378.97 162.72 Z" />
<path fill="#666666" opacity="1.00" d=" M 310.46 154.58 C 314.22 154.11 318.00 153.76 321.79 153.48 C 321.94 154.03 322.26 155.14 322.41 155.69 C 323.45 155.08 324.48 154.46 325.52 153.85 C 324.71 157.86 323.73 161.85 323.08 165.89 L 322.61 165.45 C 322.19 165.11 321.37 164.43 320.96 164.09 C 316.08 163.57 311.18 164.22 306.29 164.23 C 305.86 165.75 305.43 167.26 304.96 168.77 L 304.49 170.28 C 304.33 170.77 303.99 171.74 303.83 172.23 C 304.34 167.57 305.88 163.13 306.75 158.54 L 307.08 158.19 C 308.21 156.99 309.33 155.79 310.46 154.58 Z" />
</g>
<g id="#656565ff">
<path fill="#656565" opacity="1.00" d=" M 357.87 152.94 C 358.55 152.35 359.24 151.77 359.94 151.19 C 361.76 151.91 363.59 152.63 365.42 153.36 C 365.83 153.03 366.25 152.70 366.68 152.38 C 367.16 153.44 367.64 154.51 368.13 155.57 L 368.28 155.90 C 367.39 159.11 366.72 162.38 366.20 165.68 C 366.03 165.03 365.68 163.72 365.51 163.07 C 359.84 162.81 354.12 162.70 348.52 163.70 C 349.49 160.14 350.17 156.51 351.24 152.98 C 351.67 153.22 352.54 153.69 352.98 153.93 C 353.63 153.38 354.28 152.83 354.94 152.28 C 355.91 152.50 356.89 152.72 357.87 152.94 Z" />
<path fill="#656565" opacity="1.00" d=" M 471.39 191.30 C 472.36 191.60 473.34 191.90 474.33 192.20 C 480.37 190.85 486.57 191.96 492.68 191.38 C 493.37 192.38 494.05 193.37 494.76 194.37 C 488.76 198.76 481.29 194.80 474.61 196.27 C 473.57 194.59 472.48 192.94 471.39 191.30 Z" />
<path fill="#656565" opacity="1.00" d=" M 318.49 198.01 C 318.69 196.63 319.04 195.29 319.37 193.95 C 319.61 194.29 320.08 194.98 320.32 195.32 C 331.55 195.80 342.84 193.50 354.03 195.40 C 352.28 196.76 350.65 198.67 348.47 199.20 C 338.76 198.09 329.06 200.33 319.34 199.74 C 319.13 199.31 318.70 198.44 318.49 198.01 Z" />
</g>
<g id="#ea2a0eff">
<path fill="#ea2a0e" opacity="1.00" d=" M 152.81 154.22 C 155.98 154.45 159.14 154.70 162.29 155.12 C 159.12 155.00 155.95 154.71 152.81 154.22 Z" />
<path fill="#ea2a0e" opacity="1.00" d=" M 225.38 198.43 C 241.18 196.94 257.02 195.45 272.91 195.60 C 279.34 195.52 285.64 196.97 292.04 197.46 C 291.35 201.40 290.54 205.31 289.88 209.26 C 304.59 209.49 319.31 209.31 334.02 209.28 C 334.95 215.03 340.81 217.51 343.60 222.17 C 346.90 226.50 348.19 231.82 349.59 236.96 C 349.94 237.33 350.64 238.09 350.99 238.46 C 349.75 237.56 347.90 237.11 347.55 235.40 C 346.15 231.06 344.86 226.57 342.11 222.85 C 339.39 218.47 334.40 216.04 332.22 211.27 C 317.86 210.62 303.47 211.39 289.10 210.94 C 288.98 207.37 288.93 203.81 288.96 200.24 C 269.17 197.81 249.25 200.05 229.49 201.52 C 230.68 201.14 231.87 200.74 233.05 200.33 C 230.43 200.00 227.76 199.65 225.38 198.43 Z" />
</g>
<g id="#ffd9cbff">
<path fill="#ffd9cb" opacity="1.00" d=" M 210.53 154.82 C 217.60 153.24 224.85 154.01 232.01 153.91 C 244.44 153.60 256.89 154.92 268.96 157.85 C 267.97 156.94 266.97 156.03 265.94 155.16 C 270.45 156.82 274.61 159.26 278.75 161.67 C 278.49 161.62 277.97 161.50 277.71 161.45 C 272.05 160.23 266.62 158.14 260.92 157.15 C 254.51 156.02 248.01 155.32 241.51 155.31 C 231.19 154.49 220.85 155.23 210.53 154.82 Z" />
</g>
<g id="#a71b0cff">
<path fill="#a71b0c" opacity="1.00" d=" M 168.03 155.32 C 182.19 155.42 196.39 155.74 210.53 154.82 C 220.85 155.23 231.19 154.49 241.51 155.31 C 236.19 155.70 230.85 155.60 225.53 156.00 C 219.04 155.25 212.55 156.37 206.05 156.28 C 199.33 156.26 192.64 156.97 185.95 157.54 C 196.46 158.18 207.06 157.11 217.50 158.72 C 200.23 159.92 182.86 159.13 165.63 157.74 C 166.43 156.93 167.23 156.12 168.03 155.32 Z" />
</g>
<g id="#cb230bff">
<path fill="#cb230b" opacity="1.00" d=" M 185.95 157.54 C 192.64 156.97 199.33 156.26 206.05 156.28 C 212.55 156.37 219.04 155.25 225.53 156.00 C 233.39 158.40 241.93 156.25 249.56 159.35 C 238.88 158.82 228.20 158.54 217.50 158.72 C 207.06 157.11 196.46 158.18 185.95 157.54 Z" />
</g>
<g id="#df2f16ff">
<path fill="#df2f16" opacity="1.00" d=" M 225.53 156.00 C 230.85 155.60 236.19 155.70 241.51 155.31 C 248.01 155.32 254.51 156.02 260.92 157.15 C 266.62 158.14 272.05 160.23 277.71 161.45 C 278.55 162.56 279.41 163.66 280.29 164.75 C 270.29 161.76 259.95 160.22 249.56 159.35 C 241.93 156.25 233.39 158.40 225.53 156.00 Z" />
</g>
<g id="#9d1301ff">
<path fill="#9d1301" opacity="1.00" d=" M 134.91 157.22 C 145.90 163.46 158.45 166.37 170.95 167.43 C 178.53 167.87 186.11 167.12 193.68 166.73 C 186.81 169.42 179.27 168.70 172.05 169.01 C 166.31 169.10 160.76 167.15 155.03 167.27 C 151.71 167.29 148.82 169.76 147.83 172.85 C 147.39 175.27 147.80 177.78 147.13 180.17 C 146.42 182.64 145.25 184.96 144.56 187.44 C 143.02 191.13 148.08 192.89 150.33 194.88 C 155.14 197.88 160.34 200.27 165.71 202.08 C 164.14 202.55 162.56 203.02 160.99 203.49 C 163.64 204.92 166.06 206.75 168.09 208.99 C 159.96 205.74 152.48 200.94 146.08 194.98 C 143.94 192.75 140.80 192.30 137.96 191.54 C 134.29 190.64 130.72 189.40 127.12 188.27 C 129.28 194.97 134.44 200.27 140.74 203.25 C 148.64 207.27 157.48 208.81 166.17 210.07 C 161.42 212.11 156.51 210.67 151.80 209.47 C 149.65 208.73 147.53 209.44 145.59 210.38 C 146.96 210.47 148.33 210.56 149.70 210.62 C 150.03 211.93 150.54 213.22 150.59 214.59 C 149.83 216.32 148.68 217.84 147.60 219.37 C 147.88 220.14 148.15 220.91 148.43 221.68 C 148.18 221.92 147.68 222.39 147.42 222.62 C 151.37 225.74 157.23 225.79 160.38 229.87 C 146.38 226.38 132.31 218.76 125.03 205.83 C 121.46 199.80 120.82 192.65 121.47 185.81 C 120.32 185.21 119.18 184.61 118.03 184.02 C 115.53 179.41 110.36 177.28 106.39 174.16 C 106.78 174.03 107.56 173.76 107.95 173.62 C 107.15 172.92 106.35 172.22 105.55 171.53 C 106.76 170.73 108.02 169.97 109.11 169.02 C 109.80 166.35 109.78 163.58 110.06 160.86 C 114.32 161.57 118.52 163.12 122.90 162.47 C 129.54 164.22 136.27 165.67 143.08 166.56 C 138.89 163.93 134.62 161.37 130.90 158.08 C 131.91 158.62 132.95 159.13 133.98 159.64 C 134.29 158.83 134.60 158.03 134.91 157.22 Z" />
</g>
<g id="#3c3c3cff">
<path fill="#3c3c3c" opacity="1.00" d=" M 461.65 160.72 C 465.54 160.95 469.43 161.29 473.25 162.13 C 473.97 163.47 474.73 164.80 475.54 166.10 C 470.44 166.82 465.29 167.15 460.15 167.19 C 460.67 165.04 461.22 162.89 461.65 160.72 Z" />
</g>
<g id="#4f4f4fff">
<path fill="#4f4f4f" opacity="1.00" d=" M 379.18 162.70 C 392.87 161.54 406.71 162.64 420.34 160.50 L 420.99 160.39 C 422.92 161.41 424.83 162.47 426.67 163.66 C 419.22 165.24 411.54 164.69 403.98 165.05 C 396.66 165.43 389.31 165.01 382.02 165.80 L 381.75 165.82 C 380.89 164.79 380.02 163.74 379.18 162.70 Z" />
<path fill="#4f4f4f" opacity="1.00" d=" M 441.08 185.35 C 445.20 185.50 449.32 185.35 453.42 184.81 C 452.69 187.01 452.08 189.25 451.13 191.36 C 445.66 193.80 439.24 189.95 434.07 193.09 C 434.43 191.01 434.61 188.88 435.36 186.88 C 437.09 185.88 439.04 185.21 441.08 185.35 Z" />
</g>
<g id="#3d3d3dff">
<path fill="#3d3d3d" opacity="1.00" d=" M 441.03 161.62 C 446.93 161.32 452.85 161.27 458.75 161.65 C 458.25 164.90 457.65 168.15 456.64 171.30 C 456.53 170.40 456.29 168.62 456.17 167.72 C 450.64 167.49 445.10 167.53 439.57 167.78 C 440.06 165.73 440.54 163.67 441.03 161.62 Z" />
</g>
<g id="#dd4732ff">
<path fill="#dd4732" opacity="1.00" d=" M 236.05 164.25 C 252.77 164.05 269.71 163.90 286.09 167.78 L 285.63 168.75 C 281.32 168.56 277.20 167.15 272.92 166.77 C 262.87 166.12 252.82 164.98 242.73 165.75 C 239.38 165.62 236.02 165.53 232.68 165.86 C 224.04 165.08 215.47 167.10 206.82 166.65 C 205.34 166.55 203.87 166.38 202.40 166.22 C 213.57 164.97 224.81 164.43 236.05 164.25 Z" />
</g>
<g id="#4c4c4cff">
<path fill="#4c4c4c" opacity="1.00" d=" M 306.29 164.23 C 311.18 164.22 316.08 163.57 320.96 164.09 C 321.37 164.43 322.19 165.11 322.61 165.45 L 322.74 167.20 C 316.81 167.68 310.85 167.84 304.96 168.77 C 305.43 167.26 305.86 165.75 306.29 164.23 Z" />
</g>
<g id="#313131ff">
<path fill="#313131" opacity="1.00" d=" M 403.98 165.05 C 411.54 164.69 419.22 165.24 426.67 163.66 C 428.00 165.10 429.27 166.59 430.45 168.15 C 417.07 169.63 403.52 167.96 390.16 169.78 C 387.06 169.54 384.51 167.46 382.02 165.80 C 389.31 165.01 396.66 165.43 403.98 165.05 Z" />
</g>
<g id="#303030ff">
<path fill="#303030" opacity="1.00" d=" M 348.61 165.79 C 354.30 167.01 360.02 165.42 365.74 165.67 C 365.52 167.29 365.29 168.91 365.06 170.54 L 364.94 170.52 C 359.08 169.54 353.16 171.03 347.29 170.21 C 347.51 168.70 347.72 167.19 347.92 165.69 L 348.61 165.79 Z" />
<path fill="#303030" opacity="1.00" d=" M 481.76 175.20 C 482.90 176.89 484.05 178.57 485.20 180.26 C 480.38 183.25 474.57 182.11 469.26 181.62 C 468.26 182.24 467.27 182.87 466.29 183.50 C 464.92 181.40 463.54 179.32 462.14 177.24 C 468.62 175.83 475.37 177.28 481.76 175.20 Z" />
<path fill="#303030" opacity="1.00" d=" M 368.94 179.65 C 374.43 179.35 379.89 178.64 385.37 178.25 C 385.37 180.34 385.42 182.44 385.50 184.53 C 380.07 183.68 374.57 183.89 369.13 184.52 C 369.07 182.92 369.01 181.31 368.94 179.72 L 368.94 179.65 Z" />
</g>
<g id="#db1e00ff">
<path fill="#db1e00" opacity="1.00" d=" M 206.82 166.65 C 215.47 167.10 224.04 165.08 232.68 165.86 C 229.75 166.92 226.67 167.43 223.57 167.51 C 222.98 168.36 222.39 169.21 221.82 170.07 C 223.00 172.07 222.66 173.99 220.87 175.50 C 223.39 180.76 218.21 186.07 220.55 191.36 C 223.93 192.31 227.48 192.02 230.95 192.02 C 238.09 191.79 245.25 192.33 252.38 191.62 C 257.12 192.02 262.37 190.87 266.61 193.57 C 264.16 193.50 261.72 193.47 259.28 193.51 C 248.86 193.35 238.43 193.38 228.02 193.78 C 221.18 194.34 214.32 194.58 207.46 194.68 L 208.95 194.29 C 212.79 194.17 216.63 194.02 220.41 193.30 C 214.02 192.77 207.60 192.84 201.20 192.68 C 201.71 188.25 201.91 183.73 203.36 179.48 C 204.17 178.02 203.28 176.63 202.73 175.28 C 203.93 174.36 205.31 173.59 206.21 172.34 C 206.69 170.48 206.68 168.55 206.82 166.65 Z" />
</g>
<g id="#e92100ff">
<path fill="#e92100" opacity="1.00" d=" M 232.68 165.86 C 236.02 165.53 239.38 165.62 242.73 165.75 C 241.02 166.35 239.32 166.99 237.63 167.63 C 237.77 175.45 236.38 183.14 234.46 190.69 C 240.45 190.67 246.45 190.74 252.38 191.62 C 245.25 192.33 238.09 191.79 230.95 192.02 C 227.48 192.02 223.93 192.31 220.55 191.36 C 218.21 186.07 223.39 180.76 220.87 175.50 C 222.66 173.99 223.00 172.07 221.82 170.07 C 222.39 169.21 222.98 168.36 223.57 167.51 C 226.67 167.43 229.75 166.92 232.68 165.86 Z" />
</g>
<g id="#1a1a1aff">
<path fill="#1a1a1a" opacity="1.00" d=" M 460.15 167.19 C 465.29 167.15 470.44 166.82 475.54 166.10 C 477.60 169.14 479.73 172.14 481.76 175.20 C 475.37 177.28 468.62 175.83 462.14 177.24 C 461.09 175.57 459.78 174.01 459.22 172.10 C 459.37 170.43 459.76 168.81 460.15 167.19 Z" />
<path fill="#1a1a1a" opacity="1.00" d=" M 390.16 169.78 C 403.52 167.96 417.07 169.63 430.45 168.15 C 432.17 172.16 431.82 176.54 431.47 180.77 L 431.13 180.39 C 429.91 179.28 428.96 177.38 427.09 177.46 C 422.63 177.26 418.21 178.12 413.80 178.58 C 407.68 172.06 397.94 172.83 390.16 169.78 Z" />
</g>
<g id="#b11600ff">
<path fill="#b11600" opacity="1.00" d=" M 147.83 172.85 C 148.82 169.76 151.71 167.29 155.03 167.27 C 160.76 167.15 166.31 169.10 172.05 169.01 C 170.75 170.77 169.42 172.52 168.07 174.25 C 168.07 175.29 168.07 176.33 168.07 177.38 C 169.15 177.48 170.23 177.59 171.32 177.70 C 168.63 180.21 166.40 183.15 164.50 186.29 C 164.95 186.90 165.39 187.51 165.84 188.13 C 165.12 189.25 164.40 190.37 163.68 191.50 C 166.24 193.30 169.29 194.04 172.30 194.71 C 170.03 194.91 167.75 195.00 165.47 194.87 C 160.35 194.05 155.13 192.78 149.93 193.63 L 150.33 194.88 C 148.08 192.89 143.02 191.13 144.56 187.44 C 145.25 184.96 146.42 182.64 147.13 180.17 C 147.80 177.78 147.39 175.27 147.83 172.85 Z" />
</g>
<g id="#cd1c00ff">
<path fill="#cd1c00" opacity="1.00" d=" M 202.40 166.22 C 203.87 166.38 205.34 166.55 206.82 166.65 C 206.68 168.55 206.69 170.48 206.21 172.34 C 205.31 173.59 203.93 174.36 202.73 175.28 C 203.28 176.63 204.17 178.02 203.36 179.48 C 201.91 183.73 201.71 188.25 201.20 192.68 C 207.60 192.84 214.02 192.77 220.41 193.30 C 216.63 194.02 212.79 194.17 208.95 194.29 C 200.46 192.94 191.83 194.51 183.36 193.20 C 184.89 185.27 184.45 176.93 187.70 169.39 C 192.59 168.61 198.34 169.61 202.40 166.22 Z" />
</g>
<g id="#2d2d2dff">
<path fill="#2d2d2d" opacity="1.00" d=" M 304.96 168.77 C 310.85 167.84 316.81 167.68 322.74 167.20 C 322.41 168.34 322.10 169.49 321.81 170.64 L 321.74 170.65 C 316.00 171.04 310.13 171.83 304.49 170.28 L 304.96 168.77 Z" />
</g>
<g id="#191919ff">
<path fill="#191919" opacity="1.00" d=" M 439.57 167.78 C 445.10 167.53 450.64 167.49 456.17 167.72 C 456.29 168.62 456.53 170.40 456.64 171.30 C 456.40 173.47 455.73 175.57 455.28 177.70 C 450.47 174.46 444.52 175.99 439.20 176.65 C 438.99 175.94 438.58 174.51 438.38 173.80 C 438.50 171.75 439.14 169.78 439.57 167.78 Z" />
<path fill="#191919" opacity="1.00" d=" M 304.49 170.28 C 310.13 171.83 316.00 171.04 321.74 170.65 C 321.17 173.39 320.64 176.14 319.94 178.85 L 318.97 178.85 C 313.48 177.78 307.72 177.32 302.27 178.90 C 302.70 176.65 303.13 174.41 303.83 172.23 C 303.99 171.74 304.33 170.77 304.49 170.28 Z" />
</g>
<g id="#181818ff">
<path fill="#181818" opacity="1.00" d=" M 347.29 170.21 C 353.16 171.03 359.08 169.54 364.94 170.52 C 364.71 171.34 364.24 172.99 364.01 173.82 C 363.52 175.17 362.99 176.51 362.50 177.87 C 356.92 176.80 350.30 175.44 345.29 178.91 C 345.84 175.99 346.47 173.07 347.29 170.21 Z" />
</g>
<g id="#393939ff">
<path fill="#393939" opacity="1.00" d=" M 362.50 177.87 C 362.99 176.51 363.52 175.17 364.01 173.82 C 363.46 178.73 362.03 183.50 359.71 187.86 C 353.20 186.63 346.65 187.90 340.11 187.57 C 341.42 185.87 342.74 184.18 343.98 182.43 L 344.14 182.42 C 349.68 182.00 355.29 182.00 360.70 183.41 C 361.27 181.55 361.85 179.70 362.50 177.87 Z" />
<path fill="#393939" opacity="1.00" d=" M 435.36 186.88 C 435.99 183.89 436.57 180.87 437.41 177.92 C 437.84 179.14 438.33 180.36 438.80 181.57 C 443.97 180.74 449.25 180.65 454.40 181.68 C 454.24 182.18 453.93 183.19 453.77 183.70 C 453.68 183.98 453.51 184.53 453.42 184.81 C 449.32 185.35 445.20 185.50 441.08 185.35 C 439.04 185.21 437.09 185.88 435.36 186.88 Z" />
</g>
<g id="#2b2b2bff">
<path fill="#2b2b2b" opacity="1.00" d=" M 437.41 177.92 C 437.46 176.50 437.96 175.15 438.38 173.80 C 438.58 174.51 438.99 175.94 439.20 176.65 C 444.52 175.99 450.47 174.46 455.28 177.70 C 454.97 179.02 454.68 180.35 454.40 181.68 C 449.25 180.65 443.97 180.74 438.80 181.57 C 438.33 180.36 437.84 179.14 437.41 177.92 Z" />
</g>
<g id="#282828ff">
<path fill="#282828" opacity="1.00" d=" M 345.29 178.91 C 350.30 175.44 356.92 176.80 362.50 177.87 C 361.85 179.70 361.27 181.55 360.70 183.41 C 355.29 182.00 349.68 182.00 344.14 182.42 C 344.47 181.23 344.85 180.06 345.29 178.91 Z" />
<path fill="#282828" opacity="1.00" d=" M 302.27 178.90 C 307.72 177.32 313.48 177.78 318.97 178.85 L 320.45 179.60 L 319.50 180.64 C 318.73 181.46 317.97 182.28 317.20 183.10 C 311.94 182.27 306.60 182.88 301.31 182.86 C 301.59 181.53 301.84 180.19 302.27 178.90 Z" />
</g>
<g id="#323232ff">
<path fill="#323232" opacity="1.00" d=" M 413.80 178.58 C 418.21 178.12 422.63 177.26 427.09 177.46 C 428.96 177.38 429.91 179.28 431.13 180.39 C 430.80 181.91 430.48 183.43 430.15 184.95 C 424.63 183.68 419.00 184.86 413.42 184.41 C 413.59 182.47 413.73 180.53 413.80 178.58 Z" />
</g>
<g id="#414141ff">
<path fill="#414141" opacity="1.00" d=" M 368.73 191.07 C 368.20 187.31 367.74 183.39 368.94 179.72 C 369.01 181.31 369.07 182.92 369.13 184.52 C 374.57 183.89 380.07 183.68 385.50 184.53 L 385.99 184.59 C 386.40 185.32 387.22 186.76 387.63 187.49 C 381.90 188.18 376.13 188.77 370.35 188.35 C 369.81 189.25 369.27 190.16 368.73 191.07 Z" />
<path fill="#414141" opacity="1.00" d=" M 469.26 181.62 C 474.57 182.11 480.38 183.25 485.20 180.26 C 486.55 182.27 487.89 184.29 489.24 186.30 C 482.58 188.07 475.63 186.35 468.87 187.47 C 468.00 186.14 467.14 184.82 466.29 183.50 C 467.27 182.87 468.26 182.24 469.26 181.62 Z" />
</g>
<g id="#404040ff">
<path fill="#404040" opacity="1.00" d=" M 317.20 183.10 C 317.97 182.28 318.73 181.46 319.50 180.64 C 318.77 185.09 317.48 189.41 316.52 193.80 C 311.08 191.12 305.02 192.11 299.27 192.84 C 299.90 189.50 300.41 186.13 301.31 182.86 C 306.60 182.88 311.94 182.27 317.20 183.10 Z" />
</g>
<g id="#484848ff">
<path fill="#484848" opacity="1.00" d=" M 413.09 184.40 L 413.42 184.41 C 419.00 184.86 424.63 183.68 430.15 184.95 C 429.31 186.77 428.43 188.57 427.54 190.36 C 421.19 189.06 414.56 191.52 408.40 189.38 C 410.25 188.01 411.86 186.35 413.09 184.40 Z" />
</g>
<g id="#676767ff">
<path fill="#676767" opacity="1.00" d=" M 453.42 184.81 C 453.51 184.53 453.68 183.98 453.77 183.70 C 453.19 189.12 451.39 194.30 450.24 199.60 C 444.94 197.97 439.50 199.68 434.11 199.13 C 433.97 198.29 433.69 196.61 433.55 195.77 C 433.46 195.21 433.28 194.10 433.20 193.55 L 434.07 193.09 C 439.24 189.95 445.66 193.80 451.13 191.36 C 452.08 189.25 452.69 187.01 453.42 184.81 Z" />
</g>
<g id="#515151ff">
<path fill="#515151" opacity="1.00" d=" M 468.87 187.47 C 475.63 186.35 482.58 188.07 489.24 186.30 C 490.38 188.00 491.52 189.69 492.68 191.38 C 486.57 191.96 480.37 190.85 474.33 192.20 C 473.34 191.90 472.36 191.60 471.39 191.30 C 470.54 190.02 469.70 188.75 468.87 187.47 Z" />
</g>
<g id="#525252ff">
<path fill="#525252" opacity="1.00" d=" M 320.46 189.56 C 327.03 189.38 334.01 190.59 340.11 187.57 C 346.65 187.90 353.20 186.63 359.71 187.86 C 358.06 190.55 356.28 193.18 354.03 195.40 C 342.84 193.50 331.55 195.80 320.32 195.32 C 320.08 194.98 319.61 194.29 319.37 193.95 C 319.58 192.45 320.03 191.01 320.46 189.56 Z" />
</g>
<g id="#fefcfaff">
</g>
<g id="#5a5a5aff">
<path fill="#5a5a5a" opacity="1.00" d=" M 399.54 190.80 C 402.49 190.31 405.42 189.64 408.40 189.38 C 414.56 191.52 421.19 189.06 427.54 190.36 C 426.26 191.99 424.90 193.55 423.49 195.07 C 422.03 195.05 420.59 195.04 419.14 195.04 C 418.89 194.93 418.40 194.72 418.16 194.61 C 412.15 195.09 406.11 194.90 400.11 195.46 C 399.97 195.20 399.69 194.70 399.55 194.44 C 399.55 193.53 399.55 191.71 399.54 190.80 Z" />
</g>
<g id="#ffd7c7ff">
<path fill="#ffd7c7" opacity="1.00" d=" M 292.22 197.06 C 292.84 194.89 293.49 192.73 294.07 190.55 C 293.90 196.48 292.26 202.20 290.99 207.96 C 305.20 208.60 319.43 207.88 333.65 208.25 L 334.02 209.28 C 319.31 209.31 304.59 209.49 289.88 209.26 C 290.54 205.31 291.35 201.40 292.04 197.46 C 285.64 196.97 279.34 195.52 272.91 195.60 C 257.02 195.45 241.18 196.94 225.38 198.43 C 222.15 198.65 218.92 198.71 215.69 198.92 C 230.11 196.33 244.92 196.60 259.28 193.51 C 261.72 193.47 264.16 193.50 266.61 193.57 C 275.23 194.09 283.63 196.30 292.22 197.06 Z" />
</g>
<g id="#5f6060ff">
<path fill="#5f6060" opacity="1.00" d=" M 299.27 192.84 C 305.02 192.11 311.08 191.12 316.52 193.80 C 316.13 195.61 315.73 197.41 315.38 199.23 C 309.36 199.61 303.34 200.04 297.38 200.96 C 297.87 198.26 298.44 195.57 298.97 192.87 L 299.27 192.84 Z" />
</g>
<g id="#af2312ff">
<path fill="#af2312" opacity="1.00" d=" M 149.93 193.63 C 155.13 192.78 160.35 194.05 165.47 194.87 C 162.77 194.84 160.07 195.04 157.39 195.41 C 157.83 195.58 158.29 195.74 158.75 195.88 C 164.63 199.07 171.45 199.67 177.99 200.28 C 186.40 200.65 194.82 200.52 203.22 200.03 C 202.52 200.48 201.82 200.94 201.14 201.41 C 203.66 201.73 206.16 202.14 208.66 202.60 C 196.41 203.05 184.05 203.11 171.92 201.10 C 164.21 199.85 157.10 196.54 149.93 193.63 Z" />
</g>
<g id="#fffaf8ff">
</g>
<g id="#fff8f6ff">
</g>
<g id="#6b6b6bff">
<path fill="#6b6b6b" opacity="1.00" d=" M 399.13 193.69 L 399.55 194.44 C 399.69 194.70 399.97 195.20 400.11 195.46 C 406.11 194.90 412.15 195.09 418.16 194.61 C 418.40 194.72 418.89 194.93 419.14 195.04 C 420.59 195.04 422.03 195.05 423.49 195.07 C 421.68 196.63 419.74 198.03 417.64 199.18 C 411.22 198.24 404.70 199.82 398.31 198.45 C 398.55 196.86 398.82 195.27 399.13 193.69 Z" />
</g>
<g id="#7a7a7aff">
<path fill="#7a7a7a" opacity="1.00" d=" M 494.76 194.37 C 496.85 197.35 498.77 200.45 500.61 203.60 C 493.76 203.54 486.88 203.95 480.04 203.48 C 478.34 202.19 477.16 200.37 475.98 198.62 C 475.53 197.83 475.07 197.05 474.61 196.27 C 481.29 194.80 488.76 198.76 494.76 194.37 Z" />
<path fill="#7a7a7a" opacity="1.00" d=" M 398.06 198.42 L 398.31 198.45 C 404.70 199.82 411.22 198.24 417.64 199.18 C 411.38 202.60 404.21 203.98 397.12 203.88 C 397.43 202.06 397.75 200.24 398.06 198.42 Z" />
</g>
<g id="#7f7f7fff">
<path fill="#7f7f7f" opacity="1.00" d=" M 431.68 203.76 C 432.07 201.04 432.62 198.35 433.55 195.77 C 433.69 196.61 433.97 198.29 434.11 199.13 C 439.50 199.68 444.94 197.97 450.24 199.60 C 449.97 200.94 449.70 202.28 449.44 203.63 C 443.52 203.77 437.59 203.64 431.68 203.76 Z" />
</g>
<g id="#767676ff">
<path fill="#767676" opacity="1.00" d=" M 317.17 203.68 C 317.59 201.78 318.02 199.89 318.49 198.01 C 318.70 198.44 319.13 199.31 319.34 199.74 C 329.06 200.33 338.76 198.09 348.47 199.20 C 339.17 205.18 327.64 203.37 317.17 203.68 Z" />
</g>
<g id="#7b7b7bff">
<path fill="#7b7b7b" opacity="1.00" d=" M 393.73 199.16 C 394.16 198.85 395.00 198.22 395.42 197.90 C 395.03 199.79 394.63 201.68 394.27 203.58 C 387.57 203.92 380.09 203.47 374.71 198.99 C 381.04 199.95 387.39 198.68 393.73 199.16 Z" />
</g>
<g id="#d0230fff">
<path fill="#d0230f" opacity="1.00" d=" M 203.22 200.03 C 207.37 199.55 211.55 199.49 215.69 198.92 C 218.92 198.71 222.15 198.65 225.38 198.43 C 227.76 199.65 230.43 200.00 233.05 200.33 C 231.87 200.74 230.68 201.14 229.49 201.52 C 222.57 202.24 215.62 202.60 208.66 202.60 C 206.16 202.14 203.66 201.73 201.14 201.41 C 201.82 200.94 202.52 200.48 203.22 200.03 Z" />
</g>
<g id="#757474ff">
<path fill="#757474" opacity="1.00" d=" M 297.38 200.96 C 303.34 200.04 309.36 199.61 315.38 199.23 C 315.05 200.69 314.72 202.16 314.39 203.62 C 308.37 203.71 302.34 203.87 296.33 203.51 C 296.59 202.88 297.12 201.60 297.38 200.96 Z" />
</g>
<g id="#bd1900ff">
<path fill="#bd1900" opacity="1.00" d=" M 160.99 203.49 C 162.56 203.02 164.14 202.55 165.71 202.08 C 173.41 204.66 181.48 205.90 189.55 206.57 C 197.18 207.67 204.89 207.13 212.56 207.00 C 211.51 207.41 210.45 207.80 209.39 208.16 C 200.82 208.41 192.27 209.03 183.70 209.10 C 183.75 216.43 180.76 223.41 180.27 230.74 C 182.30 231.00 184.33 231.27 186.35 231.59 C 181.67 232.80 176.81 231.97 172.06 232.65 C 172.33 232.82 172.89 233.14 173.16 233.30 C 175.41 234.69 177.74 235.94 180.09 237.16 C 180.68 237.55 181.27 237.94 181.86 238.35 C 180.66 239.02 179.43 239.65 178.31 240.45 C 178.63 241.24 178.97 242.02 179.33 242.80 C 178.03 244.03 176.14 244.96 175.85 246.91 C 177.05 248.37 179.04 248.38 180.74 248.83 C 180.69 249.41 180.64 250.00 180.60 250.59 C 181.74 251.31 182.88 252.03 184.03 252.75 C 183.32 252.82 181.92 252.95 181.22 253.02 C 172.24 248.65 163.78 241.10 161.97 230.83 C 161.44 230.51 160.91 230.18 160.38 229.87 C 157.23 225.79 151.37 225.74 147.42 222.62 C 147.68 222.39 148.18 221.92 148.43 221.68 C 148.15 220.91 147.88 220.14 147.60 219.37 C 148.68 217.84 149.83 216.32 150.59 214.59 C 150.54 213.22 150.03 211.93 149.70 210.62 C 148.33 210.56 146.96 210.47 145.59 210.38 C 147.53 209.44 149.65 208.73 151.80 209.47 C 156.51 210.67 161.42 212.11 166.17 210.07 C 167.80 210.15 169.44 210.22 171.08 210.31 C 170.18 209.92 169.28 209.53 168.39 209.13 L 168.09 208.99 C 166.06 206.75 163.64 204.92 160.99 203.49 Z" />
</g>
<g id="#e87261ff">
<path fill="#e87261" opacity="1.00" d=" M 223.80 204.81 C 233.98 203.91 244.18 203.33 254.35 202.33 C 251.81 203.35 249.14 204.00 246.44 204.39 C 238.09 203.85 229.91 205.77 221.64 206.39 C 218.60 206.44 215.56 206.56 212.56 207.00 C 204.89 207.13 197.18 207.67 189.55 206.57 C 201.00 206.76 212.44 206.25 223.80 204.81 Z" />
</g>
<g id="#dfdfdfff">
</g>
<g id="#ed2200ff">
<path fill="#ed2200" opacity="1.00" d=" M 221.64 206.39 C 229.91 205.77 238.09 203.85 246.44 204.39 C 245.37 205.16 244.33 205.96 243.29 206.78 C 243.65 209.52 244.25 212.43 243.06 215.07 C 242.03 218.24 240.19 221.31 240.31 224.74 C 241.45 227.67 245.19 226.72 247.59 226.43 C 255.73 224.54 264.13 224.37 272.43 224.95 C 265.83 225.76 259.18 226.15 252.63 227.31 C 244.53 228.20 236.47 229.43 228.36 230.22 C 225.43 229.80 222.47 229.58 219.53 229.97 C 217.68 229.66 215.85 229.23 214.03 228.81 C 215.49 228.21 216.95 227.62 218.41 227.04 C 217.02 226.30 215.64 225.57 214.26 224.84 C 215.76 219.97 217.11 214.92 216.33 209.77 C 218.13 208.69 219.90 207.57 221.64 206.39 Z" />
</g>
<g id="#dc1f00ff">
<path fill="#dc1f00" opacity="1.00" d=" M 212.56 207.00 C 215.56 206.56 218.60 206.44 221.64 206.39 C 219.90 207.57 218.13 208.69 216.33 209.77 C 217.11 214.92 215.76 219.97 214.26 224.84 C 215.64 225.57 217.02 226.30 218.41 227.04 C 216.95 227.62 215.49 228.21 214.03 228.81 C 215.85 229.23 217.68 229.66 219.53 229.97 C 212.41 231.70 205.03 230.80 197.79 230.85 C 199.58 223.80 200.58 216.59 202.43 209.55 C 204.77 209.21 207.13 208.89 209.39 208.16 C 210.45 207.80 211.51 207.41 212.56 207.00 Z" />
</g>
<g id="#d11d00ff">
<path fill="#d11d00" opacity="1.00" d=" M 183.70 209.10 C 192.27 209.03 200.82 208.41 209.39 208.16 C 207.13 208.89 204.77 209.21 202.43 209.55 C 200.58 216.59 199.58 223.80 197.79 230.85 C 205.03 230.80 212.41 231.70 219.53 229.97 C 222.47 229.58 225.43 229.80 228.36 230.22 C 223.55 230.93 218.73 231.65 213.88 232.00 C 209.47 232.24 205.09 232.70 200.69 233.04 C 201.49 233.62 202.31 234.18 203.15 234.73 C 210.85 238.33 219.46 240.24 227.98 239.58 C 228.83 239.74 230.53 240.06 231.38 240.22 C 225.65 241.65 219.74 241.11 213.91 240.98 C 213.30 242.95 212.55 244.87 211.69 246.75 C 211.22 246.35 210.29 245.55 209.83 245.15 C 209.05 248.42 208.72 251.77 208.66 255.12 C 211.30 256.57 213.93 258.59 217.09 258.52 C 221.33 258.44 225.55 257.92 229.80 257.96 L 229.81 258.57 C 226.98 258.63 224.16 258.94 221.41 259.59 C 207.78 260.40 193.69 258.85 181.22 253.02 C 181.92 252.95 183.32 252.82 184.03 252.75 C 182.88 252.03 181.74 251.31 180.60 250.59 C 180.64 250.00 180.69 249.41 180.74 248.83 C 179.04 248.38 177.05 248.37 175.85 246.91 C 176.14 244.96 178.03 244.03 179.33 242.80 C 178.97 242.02 178.63 241.24 178.31 240.45 C 179.43 239.65 180.66 239.02 181.86 238.35 C 181.27 237.94 180.68 237.55 180.09 237.16 C 188.72 240.02 197.86 241.23 206.94 240.65 C 203.10 237.71 199.40 232.79 193.99 233.51 C 187.05 233.77 180.11 233.24 173.16 233.30 C 172.89 233.14 172.33 232.82 172.06 232.65 C 176.81 231.97 181.67 232.80 186.35 231.59 C 184.33 231.27 182.30 231.00 180.27 230.74 C 180.76 223.41 183.75 216.43 183.70 209.10 Z" />
</g>
<g id="#000000ff">
<path fill="#000000" opacity="1.00" d=" M 388.57 215.17 C 389.99 215.16 391.41 215.16 392.84 215.17 C 393.44 216.60 394.02 218.02 394.65 219.44 C 393.53 220.27 392.69 222.40 391.00 221.71 C 390.15 219.54 389.40 217.34 388.57 215.17 Z" />
<path fill="#000000" opacity="1.00" d=" M 398.47 215.43 C 399.90 214.97 401.46 215.19 402.95 215.07 C 400.89 217.86 398.52 220.40 396.38 223.12 C 394.34 225.55 394.49 228.93 393.67 231.84 C 392.43 231.86 391.19 231.87 389.96 231.89 C 390.49 228.95 390.60 225.83 392.02 223.16 C 394.19 220.60 396.28 217.97 398.47 215.43 Z" />
<path fill="#000000" opacity="1.00" d=" M 372.76 215.23 C 373.77 215.20 375.77 215.16 376.77 215.14 C 375.65 220.70 374.17 226.18 373.12 231.75 C 372.14 231.86 370.18 232.09 369.20 232.20 C 369.77 228.03 371.11 224.01 371.80 219.87 C 372.18 218.33 372.46 216.77 372.76 215.23 Z" />
<path fill="#000000" opacity="1.00" d=" M 412.80 227.04 C 411.73 221.03 417.00 215.56 422.78 214.89 C 423.30 219.07 417.51 218.98 417.07 222.92 C 415.03 226.66 419.84 228.46 419.87 231.86 C 416.68 232.19 413.40 230.32 412.80 227.04 Z" />
<path fill="#000000" opacity="1.00" d=" M 517.42 228.28 C 516.27 222.43 520.20 216.67 525.86 215.14 L 526.28 215.83 C 527.48 218.88 522.66 219.38 521.99 222.07 C 519.90 225.56 523.54 228.48 523.97 231.81 C 523.01 231.63 521.09 231.29 520.14 231.11 C 519.21 230.18 518.31 229.24 517.42 228.28 Z" />
<path fill="#000000" opacity="1.00" d=" M 527.85 215.84 C 530.86 214.17 533.58 217.55 534.07 220.28 C 532.98 220.74 531.93 221.21 530.86 221.68 C 530.18 219.51 526.80 218.36 527.85 215.84 Z" />
</g>
<g id="#010101ff">
<path fill="#010101" opacity="1.00" d=" M 423.37 214.73 C 426.04 215.50 429.13 216.91 429.51 220.05 C 430.61 225.98 425.45 231.24 419.86 232.14 C 419.48 227.98 425.13 227.98 425.47 224.00 C 427.43 220.15 421.84 218.49 423.37 214.73 Z" />
<path fill="#010101" opacity="1.00" d=" M 468.70 215.21 C 470.02 215.15 471.34 215.09 472.67 215.03 C 471.86 218.93 470.93 222.80 470.26 226.73 C 471.01 228.30 472.29 230.03 471.14 231.78 C 470.33 231.77 468.71 231.76 467.90 231.75 C 466.88 230.79 466.14 229.52 466.30 228.07 C 466.45 223.69 467.95 219.50 468.70 215.21 Z" />
<path fill="#010101" opacity="1.00" d=" M 477.70 215.19 C 479.02 215.17 480.35 215.16 481.70 215.16 C 480.60 219.43 480.06 223.87 478.53 228.02 C 477.52 230.60 474.88 231.81 472.36 232.42 C 472.37 231.51 472.39 229.69 472.40 228.78 C 473.32 228.22 474.25 227.66 475.18 227.11 C 475.92 223.11 476.86 219.16 477.70 215.19 Z" />
<path fill="#010101" opacity="1.00" d=" M 503.68 215.22 C 505.01 215.19 506.35 215.18 507.69 215.18 C 507.38 216.39 507.08 217.60 506.75 218.81 C 505.77 222.23 504.84 225.68 503.88 229.11 C 503.16 227.42 502.43 225.74 501.86 224.00 C 502.28 221.03 503.05 218.14 503.68 215.22 Z" />
<path fill="#010101" opacity="1.00" d=" M 361.36 215.24 C 362.28 215.19 364.14 215.11 365.07 215.06 C 363.99 220.70 362.74 226.30 361.41 231.89 C 360.06 231.87 358.71 231.84 357.37 231.81 C 358.89 226.34 359.75 220.69 361.36 215.24 Z" />
<path fill="#010101" opacity="1.00" d=" M 442.61 222.56 C 441.19 217.99 445.94 215.03 449.93 214.91 C 450.20 217.55 448.44 218.46 446.28 218.86 C 446.45 223.38 453.80 220.39 454.53 224.97 C 455.25 229.46 450.84 231.85 447.07 232.33 C 445.80 228.62 451.70 229.14 450.25 225.92 C 447.80 224.63 444.37 224.94 442.61 222.56 Z" />
<path fill="#010101" opacity="1.00" d=" M 494.20 215.24 C 495.10 215.31 496.89 215.44 497.79 215.51 C 498.15 216.99 498.54 218.46 498.98 219.93 C 500.17 224.09 501.89 228.06 503.61 232.02 C 502.69 231.96 500.86 231.84 499.94 231.77 C 498.94 228.83 497.70 225.98 496.82 223.00 C 496.02 220.38 495.11 217.81 494.20 215.24 Z" />
<path fill="#010101" opacity="1.00" d=" M 493.16 217.13 C 496.11 221.88 494.28 227.27 493.38 232.31 C 492.02 232.04 490.67 231.77 489.33 231.50 C 489.55 231.20 490.01 230.59 490.23 230.29 C 490.93 225.85 492.08 221.49 493.16 217.13 Z" />
<path fill="#010101" opacity="1.00" d=" M 526.11 223.82 C 528.75 223.59 531.41 223.72 534.07 223.76 C 532.81 228.21 528.83 231.68 524.17 232.04 C 523.65 228.97 527.04 228.36 528.81 226.82 C 527.92 226.78 526.14 226.71 525.25 226.68 C 525.46 225.97 525.89 224.54 526.11 223.82 Z" />
</g>
<g id="#040404ff">
<path fill="#040404" opacity="1.00" d=" M 450.45 214.98 C 453.51 214.99 456.21 216.96 455.81 220.27 C 454.71 220.36 453.61 220.44 452.53 220.52 C 451.78 219.59 451.02 218.68 450.25 217.78 C 450.31 216.84 450.38 215.91 450.45 214.98 Z" />
<path fill="#040404" opacity="1.00" d=" M 364.36 221.50 C 366.49 221.53 368.62 221.54 370.75 221.55 C 370.63 222.27 370.37 223.70 370.24 224.41 C 368.19 224.74 366.11 224.63 364.05 224.69 C 364.15 223.62 364.25 222.56 364.36 221.50 Z" />
</g>
<g id="#717171ff">
<path fill="#717171" opacity="1.00" d=" M 493.16 217.13 C 493.37 216.32 493.60 215.52 493.83 214.72 C 495.14 214.97 496.47 215.23 497.79 215.51 C 496.89 215.44 495.10 215.31 494.20 215.24 C 495.11 217.81 496.02 220.38 496.82 223.00 C 494.79 225.74 495.01 229.37 493.38 232.31 C 494.28 227.27 496.11 221.88 493.16 217.13 Z" />
</g>
<g id="#7e7e7eff">
<path fill="#7e7e7e" opacity="1.00" d=" M 503.88 229.11 C 504.84 225.68 505.77 222.23 506.75 218.81 C 506.22 223.31 505.59 227.89 503.61 232.02 C 501.89 228.06 500.17 224.09 498.98 219.93 C 499.93 221.29 500.88 222.66 501.86 224.00 C 502.43 225.74 503.16 227.42 503.88 229.11 Z" />
</g>
<g id="#ffc4b4ff">
<path fill="#ffc4b4" opacity="1.00" d=" M 272.43 224.95 C 280.51 224.23 288.62 224.86 296.71 224.38 C 296.55 224.58 296.22 224.96 296.06 225.15 C 290.84 225.19 285.61 225.53 280.44 226.27 C 271.50 227.37 262.66 229.15 253.71 230.15 C 255.33 229.50 256.91 228.76 258.50 228.03 C 256.55 227.76 254.59 227.50 252.63 227.31 C 259.18 226.15 265.83 225.76 272.43 224.95 Z" />
</g>
<g id="#ea3117ff">
<path fill="#ea3117" opacity="1.00" d=" M 296.71 224.38 C 299.44 224.92 301.94 226.14 304.47 227.26 C 296.72 227.75 288.98 228.26 281.24 228.86 L 280.44 226.27 C 285.61 225.53 290.84 225.19 296.06 225.15 C 296.22 224.96 296.55 224.58 296.71 224.38 Z" />
</g>
<g id="#030303ff">
<path fill="#030303" opacity="1.00" d=" M 440.29 226.64 C 441.35 226.55 442.42 226.46 443.50 226.38 C 445.01 228.09 447.30 229.50 446.64 232.18 C 443.29 232.32 439.73 230.49 440.29 226.64 Z" />
</g>
<g id="#d3321cff">
<path fill="#d3321c" opacity="1.00" d=" M 253.71 230.15 C 262.66 229.15 271.50 227.37 280.44 226.27 L 281.24 228.86 C 275.96 229.77 270.65 230.47 265.31 230.99 C 265.98 231.50 266.66 232.00 267.35 232.49 C 268.10 232.45 269.58 232.39 270.32 232.35 C 266.70 234.40 262.59 234.92 258.51 234.36 C 260.60 233.99 262.69 233.64 264.80 233.42 C 264.95 232.89 265.24 231.84 265.38 231.31 C 255.37 232.58 245.39 234.06 235.32 234.75 L 236.61 232.88 C 237.78 232.61 238.95 232.34 240.14 232.13 C 244.67 231.51 249.18 230.76 253.71 230.15 Z" />
</g>
<g id="#fff6f1ff">
<path fill="#fff6f1" opacity="1.00" d=" M 281.24 228.86 C 288.98 228.26 296.72 227.75 304.47 227.26 C 304.58 227.29 304.80 227.37 304.91 227.41 C 293.38 229.01 281.67 229.63 270.32 232.35 C 269.58 232.39 268.10 232.45 267.35 232.49 C 266.66 232.00 265.98 231.50 265.31 230.99 C 270.65 230.47 275.96 229.77 281.24 228.86 Z" />
</g>
<g id="#fff2ecff">
</g>
<g id="#e39186ff">
<path fill="#e39186" opacity="1.00" d=" M 200.69 233.04 C 205.09 232.70 209.47 232.24 213.88 232.00 C 215.82 232.85 217.83 233.76 220.01 233.59 C 226.74 233.49 233.40 232.27 240.14 232.13 C 238.95 232.34 237.78 232.61 236.61 232.88 C 228.62 234.23 220.46 233.52 212.45 234.77 C 209.37 234.48 206.15 233.47 203.15 234.73 C 202.31 234.18 201.49 233.62 200.69 233.04 Z" />
</g>
<g id="#ffe2d7ff">
</g>
<g id="#fffcf9ff">
</g>
<g id="#b24f43ff">
<path fill="#b24f43" opacity="1.00" d=" M 212.45 234.77 C 220.46 233.52 228.62 234.23 236.61 232.88 L 235.32 234.75 C 228.79 235.51 222.21 235.26 215.66 235.27 C 214.86 235.14 213.25 234.89 212.45 234.77 Z" />
</g>
<g id="#ea2100ff">
<path fill="#ea2100" opacity="1.00" d=" M 227.98 239.58 C 234.48 238.40 241.02 237.47 247.52 236.33 C 243.91 239.66 238.68 239.64 234.31 241.43 C 232.01 246.45 230.99 252.27 232.74 257.63 C 233.70 260.31 235.24 262.99 234.45 265.95 C 232.87 263.85 231.60 261.55 230.33 259.26 C 227.36 259.41 224.38 259.53 221.41 259.59 C 224.16 258.94 226.98 258.63 229.81 258.57 L 229.80 257.96 C 225.55 257.92 221.33 258.44 217.09 258.52 C 213.93 258.59 211.30 256.57 208.66 255.12 C 208.72 251.77 209.05 248.42 209.83 245.15 C 210.29 245.55 211.22 246.35 211.69 246.75 C 212.55 244.87 213.30 242.95 213.91 240.98 C 219.74 241.11 225.65 241.65 231.38 240.22 C 230.53 240.06 228.83 239.74 227.98 239.58 Z" />
</g>
<g id="#fff9f6ff">
</g>
<g id="#ea6854ff">
<path fill="#ea6854" opacity="1.00" d=" M 241.05 256.65 C 244.88 255.71 249.03 255.08 252.93 255.83 C 259.89 261.23 269.41 263.55 277.99 261.26 C 281.82 260.47 285.65 259.67 289.45 258.73 C 293.74 257.86 297.96 256.64 302.30 255.95 C 299.00 258.70 294.38 258.85 290.39 260.04 C 285.15 260.41 280.26 262.71 274.99 262.74 C 271.65 262.93 268.31 262.73 264.97 262.64 C 261.42 265.11 256.99 264.40 252.94 264.30 C 250.70 264.03 247.92 264.07 246.60 261.89 C 251.50 262.76 256.47 263.28 261.46 263.20 C 258.19 261.11 255.18 258.64 251.88 256.62 C 247.90 256.40 243.98 257.71 240.04 258.17 C 240.26 258.66 240.71 259.65 240.94 260.14 C 240.32 259.86 239.09 259.29 238.48 259.00 C 237.85 257.35 240.05 257.16 241.05 256.65 Z" />
</g>
<g id="#fff5f3ff">
</g>
<g id="#fffbf9ff">
</g>
<g id="#d2d2d2ff">
</g>
<g id="#d1d1d1ff">
</g>
</svg>
