<?xml version="1.0" encoding="UTF-8" ?>
<!DOCTYPE svg PUBLIC "-//W3C//DTD SVG 1.1//EN" "http://www.w3.org/Graphics/SVG/1.1/DTD/svg11.dtd">
<svg width="286pt" height="200pt" viewBox="0 0 286 200" version="1.1" xmlns="http://www.w3.org/2000/svg">
<g id="#d2db4eff">
<path fill="#d2db4e" opacity="1.00" d=" M 0.00 0.00 L 141.99 0.00 C 141.89 0.64 141.69 1.93 141.58 2.58 C 138.72 5.80 135.07 8.60 133.67 12.83 C 132.79 15.34 130.07 16.51 128.99 18.90 C 126.91 23.30 123.70 27.00 121.05 31.05 C 117.64 34.42 116.56 39.60 112.25 42.13 C 110.50 43.43 108.60 44.56 106.98 46.04 C 104.61 49.55 108.25 55.41 104.04 57.98 C 101.59 59.67 100.45 62.79 97.54 63.86 C 99.21 60.87 101.24 58.11 103.32 55.40 C 104.72 53.67 105.44 50.94 103.96 49.04 C 98.12 45.59 91.89 42.61 85.11 41.65 C 72.18 38.10 58.17 40.41 46.15 45.89 C 43.55 44.77 43.38 39.49 39.76 40.56 C 35.45 36.12 28.31 34.48 22.88 37.87 C 15.79 41.51 14.11 51.84 19.25 57.79 C 22.22 61.92 27.59 63.12 32.40 62.63 C 30.53 63.48 28.56 64.12 26.56 64.58 C 25.43 64.40 24.30 64.27 23.17 64.12 C 18.48 71.81 14.71 80.16 13.04 89.04 C 12.55 95.41 11.11 101.84 12.51 108.19 C 15.10 120.75 19.68 133.65 29.29 142.57 C 33.33 143.67 37.58 143.11 41.68 142.66 C 43.39 142.75 45.00 143.36 46.55 144.03 C 38.05 144.55 29.52 144.00 21.01 144.37 C 18.51 144.46 16.17 146.48 15.92 149.01 C 15.46 152.60 15.38 156.34 16.32 159.86 C 16.76 161.58 18.78 161.88 20.09 162.69 C 19.57 162.89 18.52 163.30 17.99 163.51 C 19.74 164.32 21.58 164.91 23.43 165.47 L 24.64 165.86 C 17.98 173.37 13.93 182.76 7.27 190.26 C 5.67 193.91 3.58 197.30 0.59 200.00 L 0.00 200.00 L 0.00 0.00 M 46.25 18.55 C 49.23 18.56 52.34 19.07 55.17 17.87 C 53.79 14.77 49.66 16.03 47.02 16.18 C 45.52 15.91 44.16 18.41 46.25 18.55 M 57.68 16.69 C 56.11 17.90 58.74 19.06 59.93 18.67 C 62.19 18.34 66.51 19.56 66.94 16.34 C 63.87 16.44 60.68 15.95 57.68 16.69 M 70.21 17.04 C 72.36 19.22 76.40 19.03 78.63 17.05 C 76.35 15.01 72.67 15.62 70.21 17.04 M 83.21 16.24 C 80.38 17.63 84.66 19.58 85.80 17.69 C 86.79 16.17 84.17 15.59 83.21 16.24 M 89.62 16.64 C 88.14 18.39 91.00 18.69 92.19 18.75 C 94.20 18.83 98.06 19.11 97.92 16.22 C 95.26 16.16 91.83 14.95 89.62 16.64 M 44.96 21.93 C 47.54 22.93 50.30 22.32 52.98 22.31 C 55.99 22.17 59.02 22.50 62.02 22.15 C 62.28 21.68 62.81 20.76 63.08 20.29 C 58.08 19.43 53.00 20.03 47.96 19.97 C 46.53 19.69 45.48 20.73 44.96 21.93 M 64.32 20.33 C 64.32 20.87 64.30 21.95 64.29 22.50 C 65.63 22.68 67.04 22.77 68.16 23.63 C 65.83 24.23 63.42 24.30 61.04 24.36 C 61.70 25.48 62.70 26.16 64.06 26.04 C 66.82 26.15 69.96 26.93 72.33 25.07 C 71.76 24.66 70.63 23.82 70.07 23.41 C 72.44 21.74 75.37 22.19 78.07 22.55 C 80.73 22.28 83.35 21.66 86.03 21.49 C 84.87 19.88 82.78 20.36 81.08 20.34 C 75.49 20.57 69.91 19.99 64.32 20.33 M 87.81 20.36 C 87.19 23.46 91.34 21.83 93.13 22.23 C 93.11 21.69 93.06 20.61 93.04 20.07 C 91.30 20.22 89.56 20.34 87.81 20.36 M 94.09 20.25 C 93.08 22.84 97.84 23.33 98.25 21.01 C 97.53 19.06 95.57 19.59 94.09 20.25 M 46.98 26.32 C 50.74 26.51 54.51 26.41 58.25 26.00 C 58.20 24.54 57.47 23.82 56.08 23.84 C 52.73 23.75 49.34 23.53 46.01 24.07 C 43.76 24.04 45.54 26.92 46.98 26.32 M 76.03 25.82 C 81.29 26.81 86.71 26.54 92.00 25.96 C 91.72 25.50 91.17 24.57 90.89 24.11 C 86.95 23.60 82.94 23.66 78.97 23.71 C 77.50 23.45 76.71 24.81 76.03 25.82 M 95.12 24.17 C 92.52 25.63 96.68 27.43 97.77 25.64 C 98.85 24.08 96.10 23.46 95.12 24.17 M 44.91 29.00 C 45.43 31.45 48.23 30.44 49.97 30.43 C 51.74 29.96 55.31 30.96 54.98 28.10 C 51.98 27.70 48.94 27.40 45.91 27.69 C 45.66 28.01 45.16 28.67 44.91 29.00 M 56.33 28.27 C 55.08 29.70 57.68 30.93 58.50 29.55 C 59.68 28.16 57.16 26.96 56.33 28.27 M 60.88 27.97 C 60.91 28.48 60.95 29.52 60.98 30.04 C 64.40 30.70 68.12 30.43 71.26 28.85 C 68.19 27.04 64.26 27.46 60.88 27.97 M 82.34 28.89 C 82.77 29.20 83.61 29.83 84.04 30.15 C 86.94 30.21 91.61 31.66 93.01 28.18 C 89.49 27.70 85.56 26.88 82.34 28.89 Z" />
<path fill="#d2db4e" opacity="1.00" d=" M 177.78 41.32 C 180.14 40.26 183.76 40.73 184.41 43.67 C 185.95 47.09 180.74 48.24 178.42 47.25 C 180.26 46.50 182.01 45.56 183.78 44.65 C 181.80 43.49 179.80 42.39 177.78 41.32 Z" />
<path fill="#d2db4e" opacity="1.00" d=" M 258.48 157.11 C 260.07 156.24 261.76 155.54 263.54 155.14 C 263.48 156.67 263.39 158.20 263.28 159.73 C 262.66 159.88 261.40 160.18 260.77 160.33 C 261.15 159.35 261.52 158.37 261.88 157.38 C 260.66 157.98 259.44 158.57 258.23 159.17 C 258.29 158.65 258.42 157.62 258.48 157.11 Z" />
</g>
<g id="#9fd969ff">
<path fill="#9fd969" opacity="1.00" d=" M 141.99 0.00 L 142.97 0.00 C 143.04 66.67 142.93 133.33 143.00 200.00 L 141.77 200.00 C 141.50 134.19 141.87 68.38 141.58 2.58 C 141.69 1.93 141.89 0.64 141.99 0.00 Z" />
</g>
<g id="#59ae71ff">
<path fill="#59ae71" opacity="1.00" d=" M 142.97 0.00 L 144.09 0.00 C 144.64 32.65 144.17 65.32 144.34 97.98 C 144.23 131.67 144.46 165.37 144.23 199.07 L 144.18 200.00 L 143.00 200.00 C 142.93 133.33 143.04 66.67 142.97 0.00 Z" />
</g>
<g id="#40b0c4ff">
<path fill="#40b0c4" opacity="1.00" d=" M 144.09 0.00 L 286.00 0.00 L 286.00 1.72 C 280.43 8.64 274.91 15.65 270.22 23.21 C 268.83 25.10 267.17 26.76 265.53 28.41 C 263.79 27.12 261.95 24.94 259.54 25.83 C 256.30 26.60 252.97 26.76 249.66 26.53 C 249.01 23.71 248.81 20.81 248.13 18.01 C 244.12 14.78 238.76 15.76 234.01 15.66 C 228.31 15.76 222.60 15.33 216.92 15.81 C 214.87 16.76 212.48 18.38 212.46 20.90 C 212.34 24.31 210.48 27.34 210.38 30.74 C 210.35 31.25 210.28 32.28 210.24 32.80 C 211.18 32.66 213.06 32.39 214.00 32.25 C 213.22 32.71 212.46 33.19 211.71 33.69 C 210.42 34.77 209.19 35.91 207.97 37.07 C 210.89 38.44 213.54 36.73 216.07 35.37 C 220.10 34.71 224.21 35.65 227.98 37.08 C 227.45 38.45 226.78 39.77 226.07 41.06 C 221.22 40.03 216.24 40.09 211.32 39.63 C 209.11 39.46 207.11 40.66 205.00 41.12 C 200.49 42.23 195.94 43.27 191.55 44.82 C 191.10 43.89 190.62 42.97 190.15 42.05 C 188.52 38.34 185.43 34.69 181.05 34.60 C 175.64 33.89 170.21 38.53 170.16 44.00 C 170.00 46.16 170.87 48.20 171.66 50.15 C 169.81 50.07 167.96 50.04 166.11 49.92 C 162.09 49.02 157.46 50.84 156.08 54.93 C 154.64 58.05 156.20 61.33 158.10 63.84 C 159.23 65.36 160.16 67.28 162.02 68.03 C 164.01 68.57 166.10 68.28 168.12 68.04 C 161.43 69.65 159.62 77.32 158.06 83.10 C 153.40 96.61 155.10 111.56 160.56 124.56 C 162.34 127.99 164.42 131.26 166.39 134.58 C 169.72 139.94 174.70 143.89 179.35 148.03 C 174.34 154.00 168.88 159.93 166.08 167.33 C 161.16 175.83 154.91 183.41 149.25 191.40 C 147.49 193.90 145.38 196.20 144.23 199.07 C 144.46 165.37 144.23 131.67 144.34 97.98 C 144.17 65.32 144.64 32.65 144.09 0.00 Z" />
<path fill="#40b0c4" opacity="1.00" d=" M 21.44 41.46 C 26.32 36.13 36.98 37.38 39.41 44.56 L 38.90 45.35 C 37.25 43.59 35.75 41.49 33.45 40.54 C 30.10 38.93 25.92 39.80 23.19 42.20 C 21.31 44.18 20.79 47.21 18.28 48.65 C 18.83 46.09 19.40 43.29 21.44 41.46 Z" />
<path fill="#40b0c4" opacity="1.00" d=" M 33.91 58.04 C 35.91 56.48 37.70 54.59 40.08 53.57 C 37.96 58.47 32.03 61.94 26.80 59.99 C 29.20 59.50 31.72 59.20 33.91 58.04 Z" />
<path fill="#40b0c4" opacity="1.00" d=" M 257.58 146.05 C 260.70 143.85 265.40 144.94 267.06 148.43 C 264.21 146.66 260.91 145.95 257.58 146.05 Z" />
</g>
<g id="#0faabeff">
<path fill="#0faabe" opacity="1.00" d=" M 270.22 23.21 C 274.91 15.65 280.43 8.64 286.00 1.72 L 286.00 200.00 L 144.18 200.00 L 144.23 199.07 C 145.38 196.20 147.49 193.90 149.25 191.40 C 154.91 183.41 161.16 175.83 166.08 167.33 C 169.99 164.33 171.93 159.70 174.94 155.93 C 176.80 153.52 178.78 151.22 180.79 148.94 C 188.35 154.08 196.78 158.19 205.97 159.24 C 219.94 161.54 234.34 158.27 246.71 151.67 C 246.29 156.41 246.31 161.39 248.16 165.84 C 250.66 168.39 253.72 170.33 256.60 172.42 C 259.38 174.63 263.17 173.33 266.02 171.95 C 268.22 170.65 271.28 169.75 271.89 166.92 C 274.01 162.23 272.78 157.07 271.48 152.35 C 271.00 152.08 270.02 151.53 269.54 151.26 C 268.69 150.33 267.86 149.40 267.06 148.43 C 265.40 144.94 260.70 143.85 257.58 146.05 C 257.05 146.20 255.99 146.50 255.46 146.65 C 255.50 146.36 255.56 145.78 255.60 145.48 L 255.84 144.74 C 262.53 137.53 268.63 129.52 272.14 120.24 C 276.63 106.27 276.54 90.67 271.04 77.01 C 267.64 70.39 264.19 63.42 258.37 58.57 C 256.21 55.61 253.24 53.41 250.88 50.64 C 251.10 50.14 251.52 49.14 251.73 48.65 C 256.45 48.13 262.02 50.01 266.14 47.08 C 269.16 42.87 268.15 37.13 267.64 32.29 C 267.30 31.97 266.61 31.34 266.27 31.03 C 266.08 30.38 265.71 29.07 265.53 28.41 C 267.17 26.76 268.83 25.10 270.22 23.21 M 211.32 169.84 C 208.38 170.44 205.38 170.19 202.44 169.79 C 201.37 169.58 200.39 169.69 199.50 170.13 C 196.15 170.07 192.79 169.98 189.47 170.43 C 189.39 170.90 189.24 171.85 189.16 172.32 C 188.71 172.53 187.81 172.95 187.37 173.16 C 189.92 176.87 188.12 181.53 189.41 185.61 C 193.09 185.49 196.72 184.72 200.42 184.83 L 200.48 184.18 C 201.48 184.18 203.48 184.16 204.48 184.16 L 204.75 183.72 C 208.28 184.31 211.91 184.32 215.43 183.65 L 215.75 184.07 C 218.02 184.14 220.28 184.33 222.54 184.46 C 226.67 185.05 231.18 185.74 235.18 184.26 C 235.81 184.16 237.06 183.97 237.68 183.87 C 237.90 183.92 238.32 184.02 238.53 184.06 C 239.96 184.01 241.38 183.93 242.80 183.82 C 242.84 183.04 242.93 181.50 242.97 180.72 L 242.66 179.90 C 242.70 179.24 242.79 177.94 242.83 177.29 C 243.80 176.79 244.57 176.04 245.14 175.06 C 244.29 173.47 243.43 171.89 242.60 170.30 C 240.01 170.22 237.41 170.22 234.83 169.99 C 233.55 169.58 232.42 169.69 231.44 170.31 C 229.74 169.97 228.04 169.89 226.32 170.08 C 225.22 169.58 224.23 169.64 223.36 170.28 C 220.83 170.23 218.30 170.16 215.81 169.77 C 214.34 169.15 212.79 169.35 211.32 169.84 Z" />
</g>
<g id="#cad41dff">
<path fill="#cad41d" opacity="1.00" d=" M 133.67 12.83 C 135.07 8.60 138.72 5.80 141.58 2.58 C 141.87 68.38 141.50 134.19 141.77 200.00 L 0.59 200.00 C 3.58 197.30 5.67 193.91 7.27 190.26 C 13.93 182.76 17.98 173.37 24.64 165.86 C 27.31 166.04 29.98 165.86 32.65 165.81 C 33.06 169.14 33.63 174.63 38.02 174.75 C 47.32 174.83 56.63 174.49 65.93 174.85 C 65.66 174.59 65.11 174.07 64.83 173.81 C 65.99 173.30 67.12 172.74 68.25 172.19 C 68.54 168.01 69.67 163.91 71.88 160.32 C 73.07 159.22 74.27 158.11 75.44 156.98 C 76.85 158.55 78.79 159.80 81.00 159.23 C 87.07 158.97 92.15 155.24 97.93 153.95 C 99.64 154.60 99.57 157.14 100.56 158.56 C 101.01 158.76 101.91 159.17 102.35 159.37 C 105.89 163.68 112.21 166.08 117.40 163.28 C 122.27 161.04 124.65 155.59 124.38 150.43 L 125.14 149.79 C 124.41 147.26 124.04 144.57 122.76 142.25 C 121.04 141.04 119.04 140.34 117.14 139.49 C 118.71 137.51 120.23 135.48 121.36 133.21 C 124.71 126.91 129.19 120.96 130.51 113.80 C 133.98 97.31 130.92 79.37 121.70 65.23 C 117.62 62.02 114.64 57.72 110.73 54.31 C 109.65 52.99 107.18 51.42 108.41 49.47 C 110.26 47.32 112.16 45.13 112.25 42.13 C 116.56 39.60 117.64 34.42 121.05 31.05 C 123.70 27.00 126.91 23.30 128.99 18.90 C 130.07 16.51 132.79 15.34 133.67 12.83 Z" />
</g>
<g id="#e2e77aff">
<path fill="#e2e77a" opacity="1.00" d=" M 46.25 18.55 C 44.16 18.41 45.52 15.91 47.02 16.18 C 49.66 16.03 53.79 14.77 55.17 17.87 C 52.34 19.07 49.23 18.56 46.25 18.55 Z" />
</g>
<g id="#ebf08aff">
<path fill="#ebf08a" opacity="1.00" d=" M 57.68 16.69 C 60.68 15.95 63.87 16.44 66.94 16.34 C 66.51 19.56 62.19 18.34 59.93 18.67 C 58.74 19.06 56.11 17.90 57.68 16.69 Z" />
<path fill="#ebf08a" opacity="1.00" d=" M 161.10 63.73 C 157.49 62.28 156.29 58.09 157.51 54.61 C 157.19 58.14 159.23 60.97 161.10 63.73 Z" />
<path fill="#ebf08a" opacity="1.00" d=" M 105.54 142.41 C 104.48 140.03 107.27 139.44 109.04 139.31 C 111.54 139.20 114.65 138.43 116.43 140.72 C 112.71 140.05 108.74 140.19 105.54 142.41 Z" />
</g>
<g id="#e4e885ff">
<path fill="#e4e885" opacity="1.00" d=" M 70.21 17.04 C 72.67 15.62 76.35 15.01 78.63 17.05 C 76.40 19.03 72.36 19.22 70.21 17.04 Z" />
</g>
<g id="#e5ed74ff">
<path fill="#e5ed74" opacity="1.00" d=" M 83.21 16.24 C 84.17 15.59 86.79 16.17 85.80 17.69 C 84.66 19.58 80.38 17.63 83.21 16.24 Z" />
</g>
<g id="#e2e879ff">
<path fill="#e2e879" opacity="1.00" d=" M 89.62 16.64 C 91.83 14.95 95.26 16.16 97.92 16.22 C 98.06 19.11 94.20 18.83 92.19 18.75 C 91.00 18.69 88.14 18.39 89.62 16.64 Z" />
<path fill="#e2e879" opacity="1.00" d=" M 44.96 21.93 C 45.48 20.73 46.53 19.69 47.96 19.97 C 53.00 20.03 58.08 19.43 63.08 20.29 C 62.81 20.76 62.28 21.68 62.02 22.15 C 59.02 22.50 55.99 22.17 52.98 22.31 C 50.30 22.32 47.54 22.93 44.96 21.93 Z" />
</g>
<g id="#71b883ff">
<path fill="#71b883" opacity="1.00" d=" M 212.46 20.90 C 212.48 18.38 214.87 16.76 216.92 15.81 C 222.60 15.33 228.31 15.76 234.01 15.66 C 238.76 15.76 244.12 14.78 248.13 18.01 C 248.81 20.81 249.01 23.71 249.66 26.53 C 252.97 26.76 256.30 26.60 259.54 25.83 C 261.95 24.94 263.79 27.12 265.53 28.41 C 265.71 29.07 266.08 30.38 266.27 31.03 C 264.96 29.90 263.71 28.71 262.30 27.70 L 261.66 27.26 C 256.99 26.77 252.29 27.37 247.62 26.90 C 247.55 26.51 247.43 25.75 247.37 25.36 C 247.06 23.20 246.64 21.06 246.16 18.94 C 243.85 18.20 241.51 17.39 239.06 17.51 C 232.70 17.59 226.34 17.41 219.98 17.57 C 218.21 17.54 216.44 18.00 215.00 19.04 C 213.42 22.91 214.67 28.43 210.38 30.74 C 210.48 27.34 212.34 24.31 212.46 20.90 Z" />
</g>
<g id="#c9d41dff">
<path fill="#c9d41d" opacity="1.00" d=" M 215.00 19.04 C 216.44 18.00 218.21 17.54 219.98 17.57 C 226.34 17.41 232.70 17.59 239.06 17.51 C 241.51 17.39 243.85 18.20 246.16 18.94 C 246.64 21.06 247.06 23.20 247.37 25.36 C 245.93 25.55 244.49 25.75 243.04 25.82 C 240.47 26.02 238.21 23.88 235.62 24.55 C 232.62 25.22 229.77 26.65 227.42 28.62 C 226.34 30.16 225.44 31.84 224.05 33.15 C 220.69 32.97 217.38 31.83 214.00 32.25 C 213.06 32.39 211.18 32.66 210.24 32.80 C 210.28 32.28 210.35 31.25 210.38 30.74 C 214.67 28.43 213.42 22.91 215.00 19.04 Z" />
</g>
<g id="#eaec96ff">
<path fill="#eaec96" opacity="1.00" d=" M 64.32 20.33 C 69.91 19.99 75.49 20.57 81.08 20.34 C 82.78 20.36 84.87 19.88 86.03 21.49 C 83.35 21.66 80.73 22.28 78.07 22.55 C 75.37 22.19 72.44 21.74 70.07 23.41 C 70.63 23.82 71.76 24.66 72.33 25.07 C 69.96 26.93 66.82 26.15 64.06 26.04 C 62.70 26.16 61.70 25.48 61.04 24.36 C 63.42 24.30 65.83 24.23 68.16 23.63 C 67.04 22.77 65.63 22.68 64.29 22.50 C 64.30 21.95 64.32 20.87 64.32 20.33 Z" />
<path fill="#eaec96" opacity="1.00" d=" M 49.86 52.12 C 52.84 48.67 58.78 51.06 58.75 55.52 C 56.63 52.77 53.29 51.55 49.86 52.12 Z" />
<path fill="#eaec96" opacity="1.00" d=" M 54.85 69.67 C 67.51 69.42 80.17 70.14 92.82 69.89 C 98.15 70.05 103.83 68.88 108.90 70.98 C 86.28 70.65 63.66 71.01 41.04 70.85 C 38.84 70.76 36.65 71.08 34.52 71.62 C 33.95 88.58 34.39 105.58 34.31 122.55 C 31.61 122.54 28.91 122.72 26.23 123.09 C 26.31 124.21 26.38 125.33 26.44 126.45 C 24.92 125.82 22.29 124.07 24.22 122.42 C 27.03 122.07 29.87 122.04 32.70 121.78 C 33.63 115.89 33.15 109.93 33.25 104.00 C 33.24 92.78 33.26 81.55 33.24 70.32 C 39.82 68.93 46.53 70.08 53.17 69.68 C 53.59 69.68 54.43 69.67 54.85 69.67 Z" />
</g>
<g id="#e8ef7cff">
<path fill="#e8ef7c" opacity="1.00" d=" M 87.81 20.36 C 89.56 20.34 91.30 20.22 93.04 20.07 C 93.06 20.61 93.11 21.69 93.13 22.23 C 91.34 21.83 87.19 23.46 87.81 20.36 Z" />
</g>
<g id="#e5ea78ff">
<path fill="#e5ea78" opacity="1.00" d=" M 94.09 20.25 C 95.57 19.59 97.53 19.06 98.25 21.01 C 97.84 23.33 93.08 22.84 94.09 20.25 Z" />
</g>
<g id="#e5ea83ff">
<path fill="#e5ea83" opacity="1.00" d=" M 46.98 26.32 C 45.54 26.92 43.76 24.04 46.01 24.07 C 49.34 23.53 52.73 23.75 56.08 23.84 C 57.47 23.82 58.20 24.54 58.25 26.00 C 54.51 26.41 50.74 26.51 46.98 26.32 Z" />
</g>
<g id="#e4e986ff">
<path fill="#e4e986" opacity="1.00" d=" M 76.03 25.82 C 76.71 24.81 77.50 23.45 78.97 23.71 C 82.94 23.66 86.95 23.60 90.89 24.11 C 91.17 24.57 91.72 25.50 92.00 25.96 C 86.71 26.54 81.29 26.81 76.03 25.82 Z" />
</g>
<g id="#e3e977ff">
<path fill="#e3e977" opacity="1.00" d=" M 95.12 24.17 C 96.10 23.46 98.85 24.08 97.77 25.64 C 96.68 27.43 92.52 25.63 95.12 24.17 Z" />
</g>
<g id="#cbc845ff">
<path fill="#cbc845" opacity="1.00" d=" M 235.62 24.55 C 238.21 23.88 240.47 26.02 243.04 25.82 C 244.49 25.75 245.93 25.55 247.37 25.36 C 247.43 25.75 247.55 26.51 247.62 26.90 C 252.29 27.37 256.99 26.77 261.66 27.26 L 262.30 27.70 C 255.01 28.24 247.72 27.41 240.43 27.60 C 237.62 27.58 234.74 27.16 231.99 27.89 C 229.51 28.56 228.60 31.19 227.27 33.10 C 226.47 33.11 224.86 33.13 224.05 33.15 C 225.44 31.84 226.34 30.16 227.42 28.62 C 229.77 26.65 232.62 25.22 235.62 24.55 Z" />
</g>
<g id="#e3e978ff">
<path fill="#e3e978" opacity="1.00" d=" M 44.91 29.00 C 45.16 28.67 45.66 28.01 45.91 27.69 C 48.94 27.40 51.98 27.70 54.98 28.10 C 55.31 30.96 51.74 29.96 49.97 30.43 C 48.23 30.44 45.43 31.45 44.91 29.00 Z" />
</g>
<g id="#e7ef79ff">
<path fill="#e7ef79" opacity="1.00" d=" M 56.33 28.27 C 57.16 26.96 59.68 28.16 58.50 29.55 C 57.68 30.93 55.08 29.70 56.33 28.27 Z" />
</g>
<g id="#e4ea82ff">
<path fill="#e4ea82" opacity="1.00" d=" M 60.88 27.97 C 64.26 27.46 68.19 27.04 71.26 28.85 C 68.12 30.43 64.40 30.70 60.98 30.04 C 60.95 29.52 60.91 28.48 60.88 27.97 Z" />
</g>
<g id="#e3ea7aff">
<path fill="#e3ea7a" opacity="1.00" d=" M 82.34 28.89 C 85.56 26.88 89.49 27.70 93.01 28.18 C 91.61 31.66 86.94 30.21 84.04 30.15 C 83.61 29.83 82.77 29.20 82.34 28.89 Z" />
</g>
<g id="#fbfec5ff">
<path fill="#fbfec5" opacity="1.00" d=" M 227.27 33.10 C 228.60 31.19 229.51 28.56 231.99 27.89 C 234.74 27.16 237.62 27.58 240.43 27.60 C 238.21 28.80 235.67 28.88 233.25 29.35 C 232.22 30.41 231.71 31.85 231.03 33.14 C 230.25 33.42 229.46 33.69 228.68 33.95 C 228.33 33.74 227.62 33.31 227.27 33.10 Z" />
</g>
<g id="#eff3f6ff">
<path fill="#eff3f6" opacity="1.00" d=" M 240.43 27.60 C 247.72 27.41 255.01 28.24 262.30 27.70 C 263.71 28.71 264.96 29.90 266.27 31.03 C 266.05 36.01 268.16 43.32 262.30 45.83 C 253.20 46.43 244.09 46.08 234.99 46.23 C 233.01 46.44 231.39 45.25 229.85 44.22 C 228.00 45.18 226.23 46.28 224.57 47.53 C 223.97 47.53 222.77 47.55 222.17 47.56 C 223.48 45.40 224.82 43.25 226.07 41.06 C 226.78 39.77 227.45 38.45 227.98 37.08 C 228.16 36.30 228.50 34.73 228.68 33.95 C 229.46 33.69 230.25 33.42 231.03 33.14 C 231.71 31.85 232.22 30.41 233.25 29.35 C 235.67 28.88 238.21 28.80 240.43 27.60 Z" />
</g>
<g id="#167c80ff">
<path fill="#167c80" opacity="1.00" d=" M 266.27 31.03 C 266.61 31.34 267.30 31.97 267.64 32.29 C 268.15 37.13 269.16 42.87 266.14 47.08 C 262.02 50.01 256.45 48.13 251.73 48.65 C 253.81 44.73 259.19 48.35 262.30 45.83 C 268.16 43.32 266.05 36.01 266.27 31.03 Z" />
</g>
<g id="#8db956ff">
<path fill="#8db956" opacity="1.00" d=" M 214.00 32.25 C 217.38 31.83 220.69 32.97 224.05 33.15 C 224.86 33.13 226.47 33.11 227.27 33.10 C 227.62 33.31 228.33 33.74 228.68 33.95 C 223.02 34.70 217.38 33.24 211.71 33.69 C 212.46 33.19 213.22 32.71 214.00 32.25 Z" />
</g>
<g id="#3d9589ff">
<path fill="#3d9589" opacity="1.00" d=" M 211.71 33.69 C 217.38 33.24 223.02 34.70 228.68 33.95 C 228.50 34.73 228.16 36.30 227.98 37.08 C 224.21 35.65 220.10 34.71 216.07 35.37 C 213.54 36.73 210.89 38.44 207.97 37.07 C 209.19 35.91 210.42 34.77 211.71 33.69 Z" />
</g>
<g id="#001100ff">
<path fill="#001100" opacity="1.00" d=" M 170.16 44.00 C 170.21 38.53 175.64 33.89 181.05 34.60 C 185.43 34.69 188.52 38.34 190.15 42.05 C 190.69 46.09 189.46 50.56 185.88 52.87 C 182.80 55.40 178.57 54.59 175.05 53.63 C 173.79 52.61 172.63 51.46 171.66 50.15 C 170.87 48.20 170.00 46.16 170.16 44.00 M 174.99 37.97 C 171.36 40.56 170.56 46.53 173.78 49.73 C 173.81 49.96 173.88 50.43 173.91 50.66 L 174.69 50.77 C 178.47 54.89 186.07 52.86 187.96 47.74 C 189.15 45.50 188.57 42.78 187.89 40.46 L 187.54 40.47 C 185.23 36.06 178.76 34.69 174.99 37.97 Z" />
<path fill="#001100" opacity="1.00" d=" M 22.88 37.87 C 28.31 34.48 35.45 36.12 39.76 40.56 C 42.62 43.81 41.96 48.68 44.91 51.77 C 44.40 51.33 43.38 50.45 42.88 50.01 C 42.82 50.58 42.71 51.72 42.65 52.29 C 41.33 57.33 37.26 61.03 32.40 62.63 C 27.59 63.12 22.22 61.92 19.25 57.79 C 14.11 51.84 15.79 41.51 22.88 37.87 M 21.44 41.46 C 19.40 43.29 18.83 46.09 18.28 48.65 C 18.51 50.20 18.11 52.07 19.12 53.39 C 19.89 55.80 21.43 58.49 24.12 59.03 L 24.39 59.59 C 24.99 59.69 26.20 59.89 26.80 59.99 C 32.03 61.94 37.96 58.47 40.08 53.57 C 40.95 50.49 40.98 47.13 39.67 44.16 L 39.41 44.56 C 36.98 37.38 26.32 36.13 21.44 41.46 Z" />
<path fill="#001100" opacity="1.00" d=" M 156.08 54.93 C 157.46 50.84 162.09 49.02 166.11 49.92 C 169.40 51.45 171.14 54.60 171.81 58.02 C 170.87 60.42 169.93 63.12 167.52 64.43 C 164.61 66.35 160.93 65.41 158.10 63.84 C 156.20 61.33 154.64 58.05 156.08 54.93 M 159.48 52.90 C 159.34 53.03 159.05 53.28 158.90 53.41 L 157.84 53.69 L 157.51 54.61 C 156.29 58.09 157.49 62.28 161.10 63.73 L 161.32 64.07 C 166.09 65.53 171.56 60.83 169.76 55.90 C 168.94 51.46 162.05 49.09 159.48 52.90 Z" />
<path fill="#001100" opacity="1.00" d=" M 46.03 55.58 C 47.12 54.24 48.40 53.05 49.86 52.12 C 53.29 51.55 56.63 52.77 58.75 55.52 C 58.84 56.35 59.02 58.03 59.11 58.86 C 58.99 59.05 58.75 59.43 58.63 59.62 C 58.35 55.49 54.16 52.06 50.11 53.76 C 45.21 55.08 44.86 62.68 49.35 64.74 C 53.05 66.80 57.82 64.24 58.47 60.13 C 58.65 60.33 59.01 60.71 59.19 60.90 C 58.61 65.21 53.97 67.37 50.01 66.63 C 46.01 65.08 44.13 60.52 45.24 56.48 C 45.44 56.25 45.84 55.80 46.03 55.58 Z" />
<path fill="#001100" opacity="1.00" d=" M 50.90 60.70 C 52.42 59.10 53.91 57.45 55.74 56.20 C 54.66 58.42 53.15 60.65 51.02 61.93 C 49.40 62.17 49.34 60.24 48.93 59.20 C 49.42 59.57 50.41 60.32 50.90 60.70 Z" />
<path fill="#001100" opacity="1.00" d=" M 161.03 55.54 C 162.15 56.26 163.34 57.66 164.60 56.21 C 165.34 56.52 166.07 56.88 166.77 57.28 C 165.94 58.19 165.12 59.11 164.30 60.03 C 164.15 59.49 163.86 58.40 163.71 57.85 C 162.84 58.55 161.97 59.26 161.10 59.96 C 161.09 58.48 161.07 57.01 161.03 55.54 Z" />
<path fill="#001100" opacity="1.00" d=" M 105.54 142.41 C 108.74 140.19 112.71 140.05 116.43 140.72 C 120.09 143.01 123.19 146.16 124.38 150.43 C 124.65 155.59 122.27 161.04 117.40 163.28 C 112.21 166.08 105.89 163.68 102.35 159.37 C 98.98 153.86 100.28 146.24 105.54 142.41 M 109.55 142.63 C 105.60 143.92 102.05 147.59 102.24 151.96 C 101.77 156.71 105.56 161.07 110.02 162.20 C 116.10 163.88 122.91 158.39 122.35 152.04 C 122.60 145.69 115.46 140.86 109.55 142.63 Z" />
<path fill="#001100" opacity="1.00" d=" M 255.60 145.48 C 255.56 145.78 255.50 146.36 255.46 146.65 C 255.99 146.50 257.05 146.20 257.58 146.05 C 260.91 145.95 264.21 146.66 267.06 148.43 C 267.86 149.40 268.69 150.33 269.54 151.26 C 271.59 155.17 272.68 160.16 270.05 164.09 C 266.76 170.59 257.04 172.52 251.77 167.29 C 246.46 163.16 246.73 155.31 250.17 150.06 C 251.86 148.79 253.62 147.59 255.31 146.31 L 255.60 145.48 M 254.36 149.38 C 250.09 151.78 248.10 157.50 250.08 162.01 C 251.78 167.05 258.02 169.69 262.91 167.81 C 268.16 166.16 271.43 159.55 268.89 154.52 C 268.90 154.22 268.90 153.63 268.91 153.33 L 268.52 153.35 C 265.99 148.26 259.16 146.65 254.36 149.38 Z" />
</g>
<g id="#dfe166ff">
<path fill="#dfe166" opacity="1.00" d=" M 174.99 37.97 C 178.76 34.69 185.23 36.06 187.54 40.47 C 187.23 40.47 186.61 40.49 186.31 40.50 C 183.67 38.73 180.49 35.97 177.26 38.26 C 172.78 40.37 172.86 45.58 173.78 49.73 C 170.56 46.53 171.36 40.56 174.99 37.97 Z" />
<path fill="#dfe166" opacity="1.00" d=" M 39.76 40.56 C 43.38 39.49 43.55 44.77 46.15 45.89 C 58.17 40.41 72.18 38.10 85.11 41.65 C 91.89 42.61 98.12 45.59 103.96 49.04 C 105.44 50.94 104.72 53.67 103.32 55.40 C 101.24 58.11 99.21 60.87 97.54 63.86 C 95.99 65.89 94.44 67.92 92.82 69.89 C 80.17 70.14 67.51 69.42 54.85 69.67 C 56.59 68.91 58.38 68.15 59.81 66.87 C 61.06 65.23 61.03 63.01 61.58 61.10 C 60.98 61.05 59.79 60.95 59.19 60.90 C 59.01 60.71 58.65 60.33 58.47 60.13 L 58.63 59.62 C 58.75 59.43 58.99 59.05 59.11 58.86 C 59.02 58.03 58.84 56.35 58.75 55.52 C 58.78 51.06 52.84 48.67 49.86 52.12 C 48.40 53.05 47.12 54.24 46.03 55.58 C 44.89 54.50 43.75 53.42 42.65 52.29 C 42.71 51.72 42.82 50.58 42.88 50.01 C 43.38 50.45 44.40 51.33 44.91 51.77 C 41.96 48.68 42.62 43.81 39.76 40.56 Z" />
<path fill="#dfe166" opacity="1.00" d=" M 180.67 51.54 C 183.32 50.77 185.61 49.14 187.96 47.74 C 186.07 52.86 178.47 54.89 174.69 50.77 C 176.68 51.02 178.66 51.45 180.67 51.54 Z" />
<path fill="#dfe166" opacity="1.00" d=" M 40.15 62.08 C 42.31 60.58 42.46 57.21 45.24 56.48 C 44.13 60.52 46.01 65.08 50.01 66.63 C 49.81 67.15 49.40 68.19 49.20 68.71 C 50.52 69.04 51.84 69.39 53.17 69.68 C 46.53 70.08 39.82 68.93 33.24 70.32 C 33.26 81.55 33.24 92.78 33.25 104.00 C 33.15 109.93 33.63 115.89 32.70 121.78 C 29.87 122.04 27.03 122.07 24.22 122.42 C 22.29 124.07 24.92 125.82 26.44 126.45 C 27.61 127.84 28.90 129.49 30.95 129.31 C 37.21 129.52 43.49 129.42 49.76 129.24 L 49.81 129.62 C 48.00 134.56 43.35 137.72 41.68 142.66 C 37.58 143.11 33.33 143.67 29.29 142.57 C 19.68 133.65 15.10 120.75 12.51 108.19 C 11.11 101.84 12.55 95.41 13.04 89.04 C 14.71 80.16 18.48 71.81 23.17 64.12 C 24.30 64.27 25.43 64.40 26.56 64.58 C 31.16 66.27 36.49 65.36 40.15 62.08 Z" />
<path fill="#dfe166" opacity="1.00" d=" M 254.36 149.38 C 259.16 146.65 265.99 148.26 268.52 153.35 C 267.47 153.42 266.41 153.46 265.36 153.52 C 263.29 156.28 267.19 159.99 264.18 162.21 C 264.28 158.84 264.28 155.48 264.19 152.12 C 261.84 153.15 259.53 154.25 257.26 155.45 C 257.27 157.14 257.29 158.82 257.30 160.51 C 255.99 161.04 253.46 160.81 254.20 162.96 C 253.95 164.77 256.53 163.92 257.58 164.12 C 257.33 164.75 256.84 165.99 256.60 166.61 C 260.39 168.40 264.59 166.01 267.27 163.33 C 268.21 160.48 268.54 157.48 268.89 154.52 C 271.43 159.55 268.16 166.16 262.91 167.81 C 258.02 169.69 251.78 167.05 250.08 162.01 C 248.10 157.50 250.09 151.78 254.36 149.38 M 256.78 149.70 C 254.29 151.26 251.53 153.10 250.77 156.12 C 250.31 158.57 250.19 161.52 252.55 163.03 C 252.99 160.64 255.35 159.36 255.80 157.03 C 256.50 152.84 261.38 151.18 265.15 151.59 C 262.92 149.69 259.60 148.48 256.78 149.70 Z" />
</g>
<g id="#ced317ff">
<path fill="#ced317" opacity="1.00" d=" M 177.26 38.26 C 180.49 35.97 183.67 38.73 186.31 40.50 C 186.61 40.49 187.23 40.47 187.54 40.47 L 187.89 40.46 C 188.57 42.78 189.15 45.50 187.96 47.74 C 185.61 49.14 183.32 50.77 180.67 51.54 C 178.66 51.45 176.68 51.02 174.69 50.77 L 173.91 50.66 C 173.88 50.43 173.81 49.96 173.78 49.73 C 172.86 45.58 172.78 40.37 177.26 38.26 M 177.78 41.32 L 177.64 42.71 C 175.55 42.29 175.37 46.82 177.49 46.50 L 177.40 47.56 C 177.66 47.48 178.17 47.33 178.42 47.25 C 180.74 48.24 185.95 47.09 184.41 43.67 C 183.76 40.73 180.14 40.26 177.78 41.32 Z" />
</g>
<g id="#59c0cfff">
<path fill="#59c0cf" opacity="1.00" d=" M 205.00 41.12 C 207.11 40.66 209.11 39.46 211.32 39.63 C 216.24 40.09 221.22 40.03 226.07 41.06 C 224.82 43.25 223.48 45.40 222.17 47.56 C 222.77 47.55 223.97 47.53 224.57 47.53 C 224.53 48.66 224.50 49.80 224.47 50.94 C 226.77 49.87 229.02 48.68 231.21 47.37 C 237.20 50.61 244.42 47.60 250.47 50.13 C 248.83 52.72 245.69 55.02 246.63 58.47 C 242.14 57.44 237.52 57.80 232.96 57.77 C 219.64 57.75 206.32 57.80 193.00 57.74 C 191.11 57.72 189.21 57.86 187.41 58.46 C 185.25 59.27 185.14 62.03 184.99 63.99 C 184.88 88.32 184.95 112.66 184.90 136.99 C 184.85 139.24 185.34 141.45 185.93 143.61 C 183.30 144.35 181.14 146.02 179.35 148.03 C 174.70 143.89 169.72 139.94 166.39 134.58 C 164.42 131.26 162.34 127.99 160.56 124.56 C 155.10 111.56 153.40 96.61 158.06 83.10 C 159.62 77.32 161.43 69.65 168.12 68.04 C 171.56 66.28 175.11 61.58 171.81 58.02 C 171.14 54.60 169.40 51.45 166.11 49.92 C 167.96 50.04 169.81 50.07 171.66 50.15 C 172.63 51.46 173.79 52.61 175.05 53.63 C 176.34 57.81 181.17 57.74 184.75 57.36 C 189.72 55.73 193.19 49.97 191.55 44.82 C 195.94 43.27 200.49 42.23 205.00 41.12 Z" />
</g>
<g id="#0eaac0ff">
<path fill="#0eaac0" opacity="1.00" d=" M 23.19 42.20 C 25.92 39.80 30.10 38.93 33.45 40.54 C 35.75 41.49 37.25 43.59 38.90 45.35 L 39.41 44.56 L 39.67 44.16 C 40.98 47.13 40.95 50.49 40.08 53.57 C 37.70 54.59 35.91 56.48 33.91 58.04 C 31.72 59.20 29.20 59.50 26.80 59.99 C 26.20 59.89 24.99 59.69 24.39 59.59 L 24.12 59.03 C 23.29 56.50 21.26 54.81 19.12 53.39 C 18.11 52.07 18.51 50.20 18.28 48.65 C 20.79 47.21 21.31 44.18 23.19 42.20 M 23.91 50.84 L 25.36 50.94 C 24.81 52.37 26.67 54.60 28.12 54.46 C 28.14 54.79 28.18 55.46 28.20 55.80 C 30.58 51.51 33.54 47.55 35.61 43.09 C 31.78 45.76 27.22 47.48 23.91 50.84 Z" />
</g>
<g id="#d8db42ff">
<path fill="#d8db42" opacity="1.00" d=" M 106.98 46.04 C 108.60 44.56 110.50 43.43 112.25 42.13 C 112.16 45.13 110.26 47.32 108.41 49.47 C 107.18 51.42 109.65 52.99 110.73 54.31 C 114.64 57.72 117.62 62.02 121.70 65.23 C 130.92 79.37 133.98 97.31 130.51 113.80 C 129.19 120.96 124.71 126.91 121.36 133.21 C 120.23 135.48 118.71 137.51 117.14 139.49 C 119.04 140.34 121.04 141.04 122.76 142.25 C 124.04 144.57 124.41 147.26 125.14 149.79 L 124.38 150.43 C 123.19 146.16 120.09 143.01 116.43 140.72 C 114.65 138.43 111.54 139.20 109.04 139.31 C 107.27 139.44 104.48 140.03 105.54 142.41 C 100.28 146.24 98.98 153.86 102.35 159.37 C 101.91 159.17 101.01 158.76 100.56 158.56 C 99.57 157.14 99.64 154.60 97.93 153.95 C 92.15 155.24 87.07 158.97 81.00 159.23 C 78.79 159.80 76.85 158.55 75.44 156.98 C 74.57 156.09 73.81 155.09 72.82 154.34 C 70.41 154.25 68.26 155.60 65.94 156.03 C 62.84 155.86 59.82 155.04 56.74 154.80 C 58.17 151.64 59.88 148.63 61.18 145.41 C 60.16 145.51 59.14 145.61 58.13 145.71 C 58.36 144.84 58.58 143.95 58.77 143.07 C 56.84 143.88 54.98 144.84 53.02 145.59 C 50.78 145.55 48.71 144.53 46.55 144.03 C 45.00 143.36 43.39 142.75 41.68 142.66 C 43.35 137.72 48.00 134.56 49.81 129.62 C 72.55 129.69 95.29 129.67 118.03 129.60 C 120.44 130.05 121.73 128.02 122.28 125.99 C 120.96 126.01 119.65 126.06 118.34 126.13 C 118.52 124.98 118.70 123.82 118.89 122.67 C 113.59 122.24 108.29 122.67 103.00 122.92 C 95.19 122.91 87.36 122.30 79.56 122.70 C 89.79 122.32 100.08 121.86 110.32 122.52 C 110.31 107.31 110.29 92.10 110.32 76.89 C 110.32 74.85 110.28 72.63 108.90 70.98 C 103.83 68.88 98.15 70.05 92.82 69.89 C 94.44 67.92 95.99 65.89 97.54 63.86 C 100.45 62.79 101.59 59.67 104.04 57.98 C 108.25 55.41 104.61 49.55 106.98 46.04 Z" />
</g>
<g id="#d4db46ff">
<path fill="#d4db46" opacity="1.00" d=" M 177.49 46.50 C 175.37 46.82 175.55 42.29 177.64 42.71 C 177.62 43.98 177.62 45.24 177.49 46.50 Z" />
</g>
<g id="#111f00ff">
<path fill="#111f00" opacity="1.00" d=" M 177.64 42.71 L 177.78 41.32 C 179.80 42.39 181.80 43.49 183.78 44.65 C 182.01 45.56 180.26 46.50 178.42 47.25 C 178.17 47.33 177.66 47.48 177.40 47.56 L 177.49 46.50 C 177.62 45.24 177.62 43.98 177.64 42.71 Z" />
</g>
<g id="#45979bff">
<path fill="#45979b" opacity="1.00" d=" M 190.15 42.05 C 190.62 42.97 191.10 43.89 191.55 44.82 C 193.19 49.97 189.72 55.73 184.75 57.36 C 181.17 57.74 176.34 57.81 175.05 53.63 C 178.57 54.59 182.80 55.40 185.88 52.87 C 189.46 50.56 190.69 46.09 190.15 42.05 Z" />
<path fill="#45979b" opacity="1.00" d=" M 167.52 64.43 C 169.93 63.12 170.87 60.42 171.81 58.02 C 175.11 61.58 171.56 66.28 168.12 68.04 C 166.10 68.28 164.01 68.57 162.02 68.03 C 160.16 67.28 159.23 65.36 158.10 63.84 C 160.93 65.41 164.61 66.35 167.52 64.43 Z" />
</g>
<g id="#121a26ff">
<path fill="#121a26" opacity="1.00" d=" M 23.91 50.84 C 27.22 47.48 31.78 45.76 35.61 43.09 C 33.54 47.55 30.58 51.51 28.20 55.80 C 28.18 55.46 28.14 54.79 28.12 54.46 C 28.10 53.36 27.94 52.29 27.64 51.24 C 27.07 51.16 25.93 51.01 25.36 50.94 L 23.91 50.84 Z" />
</g>
<g id="#339098ff">
<path fill="#339098" opacity="1.00" d=" M 224.57 47.53 C 226.23 46.28 228.00 45.18 229.85 44.22 C 231.39 45.25 233.01 46.44 234.99 46.23 C 244.09 46.08 253.20 46.43 262.30 45.83 C 259.19 48.35 253.81 44.73 251.73 48.65 C 251.52 49.14 251.10 50.14 250.88 50.64 L 250.47 50.13 C 244.42 47.60 237.20 50.61 231.21 47.37 C 229.02 48.68 226.77 49.87 224.47 50.94 C 224.50 49.80 224.53 48.66 224.57 47.53 Z" />
</g>
<g id="#2ab9c9ff">
<path fill="#2ab9c9" opacity="1.00" d=" M 250.47 50.13 L 250.88 50.64 C 253.24 53.41 256.21 55.61 258.37 58.57 C 264.19 63.42 267.64 70.39 271.04 77.01 C 276.54 90.67 276.63 106.27 272.14 120.24 C 268.63 129.52 262.53 137.53 255.84 144.74 L 255.60 145.48 L 255.31 146.31 C 253.62 147.59 251.86 148.79 250.17 150.06 C 249.04 150.65 247.88 151.17 246.71 151.67 C 234.34 158.27 219.94 161.54 205.97 159.24 C 196.78 158.19 188.35 154.08 180.79 148.94 C 178.78 151.22 176.80 153.52 174.94 155.93 C 171.93 159.70 169.99 164.33 166.08 167.33 C 168.88 159.93 174.34 154.00 179.35 148.03 C 181.14 146.02 183.30 144.35 185.93 143.61 C 186.43 143.86 187.44 144.37 187.94 144.63 C 188.69 146.40 189.74 148.19 191.99 147.83 C 208.96 148.05 225.95 147.78 242.93 147.96 C 245.03 147.71 247.84 148.32 249.24 146.31 C 251.52 143.39 250.60 139.47 250.72 136.06 C 250.63 112.71 250.68 89.36 250.68 66.01 C 250.94 64.07 249.63 62.67 248.39 61.40 C 247.78 60.43 247.18 59.46 246.63 58.47 C 245.69 55.02 248.83 52.72 250.47 50.13 Z" />
</g>
<g id="#339294ff">
<path fill="#339294" opacity="1.00" d=" M 25.36 50.94 C 25.93 51.01 27.07 51.16 27.64 51.24 C 27.94 52.29 28.10 53.36 28.12 54.46 C 26.67 54.60 24.81 52.37 25.36 50.94 Z" />
</g>
<g id="#c7ce1bff">
<path fill="#c7ce1b" opacity="1.00" d=" M 159.48 52.90 C 162.05 49.09 168.94 51.46 169.76 55.90 C 171.56 60.83 166.09 65.53 161.32 64.07 L 161.10 63.73 C 159.23 60.97 157.19 58.14 157.51 54.61 L 157.84 53.69 L 158.90 53.41 L 159.33 53.31 L 159.48 52.90 M 161.03 55.54 C 161.07 57.01 161.09 58.48 161.10 59.96 C 161.97 59.26 162.84 58.55 163.71 57.85 C 163.86 58.40 164.15 59.49 164.30 60.03 C 165.12 59.11 165.94 58.19 166.77 57.28 C 166.07 56.88 165.34 56.52 164.60 56.21 C 163.34 57.66 162.15 56.26 161.03 55.54 Z" />
</g>
<g id="#c2bf4dff">
<path fill="#c2bf4d" opacity="1.00" d=" M 32.40 62.63 C 37.26 61.03 41.33 57.33 42.65 52.29 C 43.75 53.42 44.89 54.50 46.03 55.58 C 45.84 55.80 45.44 56.25 45.24 56.48 C 42.46 57.21 42.31 60.58 40.15 62.08 C 36.49 65.36 31.16 66.27 26.56 64.58 C 28.56 64.12 30.53 63.48 32.40 62.63 Z" />
<path fill="#c2bf4d" opacity="1.00" d=" M 59.19 60.90 C 59.79 60.95 60.98 61.05 61.58 61.10 C 61.03 63.01 61.06 65.23 59.81 66.87 C 58.38 68.15 56.59 68.91 54.85 69.67 C 54.43 69.67 53.59 69.68 53.17 69.68 C 51.84 69.39 50.52 69.04 49.20 68.71 C 49.40 68.19 49.81 67.15 50.01 66.63 C 53.97 67.37 58.61 65.21 59.19 60.90 Z" />
</g>
<g id="#eafd8aff">
<path fill="#eafd8a" opacity="1.00" d=" M 158.90 53.41 C 159.05 53.28 159.34 53.03 159.48 52.90 L 159.33 53.31 L 158.90 53.41 Z" />
</g>
<g id="#2f8b94ff">
<path fill="#2f8b94" opacity="1.00" d=" M 19.12 53.39 C 21.26 54.81 23.29 56.50 24.12 59.03 C 21.43 58.49 19.89 55.80 19.12 53.39 Z" />
</g>
<g id="#1fa5bcff">
<path fill="#1fa5bc" opacity="1.00" d=" M 50.11 53.76 C 54.16 52.06 58.35 55.49 58.63 59.62 L 58.47 60.13 C 57.82 64.24 53.05 66.80 49.35 64.74 C 44.86 62.68 45.21 55.08 50.11 53.76 M 50.90 60.70 C 50.41 60.32 49.42 59.57 48.93 59.20 C 49.34 60.24 49.40 62.17 51.02 61.93 C 53.15 60.65 54.66 58.42 55.74 56.20 C 53.91 57.45 52.42 59.10 50.90 60.70 Z" />
</g>
<g id="#082631ff">
<path fill="#082631" opacity="1.00" d=" M 187.41 58.46 C 189.21 57.86 191.11 57.72 193.00 57.74 C 206.32 57.80 219.64 57.75 232.96 57.77 C 237.52 57.80 242.14 57.44 246.63 58.47 C 247.18 59.46 247.78 60.43 248.39 61.40 C 248.35 87.27 248.38 113.15 248.35 139.02 C 248.58 141.29 247.38 143.28 245.57 144.56 C 245.88 141.90 246.41 139.27 246.67 136.61 C 246.36 136.44 245.74 136.10 245.43 135.93 C 245.37 112.88 245.19 89.82 245.52 66.77 C 247.34 64.83 247.49 61.38 244.77 60.16 C 236.68 58.07 228.26 59.09 220.00 58.85 C 209.14 58.69 198.25 59.31 187.41 58.46 Z" />
</g>
<g id="#163140ff">
<path fill="#163140" opacity="1.00" d=" M 184.99 63.99 C 185.14 62.03 185.25 59.27 187.41 58.46 C 198.25 59.31 209.14 58.69 220.00 58.85 C 228.26 59.09 236.68 58.07 244.77 60.16 C 247.49 61.38 247.34 64.83 245.52 66.77 C 226.39 66.69 207.25 66.81 188.12 66.69 C 188.16 89.77 188.14 112.85 188.13 135.94 C 207.23 135.91 226.33 135.94 245.43 135.93 C 245.74 136.10 246.36 136.44 246.67 136.61 C 246.41 139.27 245.88 141.90 245.57 144.56 C 234.42 145.22 223.24 144.60 212.07 144.82 C 204.03 144.75 195.97 145.06 187.94 144.63 C 187.44 144.37 186.43 143.86 185.93 143.61 C 185.34 141.45 184.85 139.24 184.90 136.99 C 184.95 112.66 184.88 88.32 184.99 63.99 M 214.54 139.30 C 214.61 140.26 214.69 141.23 214.76 142.20 C 215.96 142.50 217.19 142.64 218.41 142.40 C 218.72 141.10 219.35 139.05 217.66 138.46 C 216.55 137.65 215.48 138.82 214.54 139.30 Z" />
</g>
<g id="#1e8494ff">
<path fill="#1e8494" opacity="1.00" d=" M 248.39 61.40 C 249.63 62.67 250.94 64.07 250.68 66.01 C 250.68 89.36 250.63 112.71 250.72 136.06 C 250.60 139.47 251.52 143.39 249.24 146.31 C 247.84 148.32 245.03 147.71 242.93 147.96 C 225.95 147.78 208.96 148.05 191.99 147.83 C 189.74 148.19 188.69 146.40 187.94 144.63 C 195.97 145.06 204.03 144.75 212.07 144.82 C 223.24 144.60 234.42 145.22 245.57 144.56 C 247.38 143.28 248.58 141.29 248.35 139.02 C 248.38 113.15 248.35 87.27 248.39 61.40 Z" />
</g>
<g id="#fefefdff">
<path fill="#fefefd" opacity="1.00" d=" M 188.12 66.69 C 207.25 66.81 226.39 66.69 245.52 66.77 C 245.19 89.82 245.37 112.88 245.43 135.93 C 226.33 135.94 207.23 135.91 188.13 135.94 C 188.14 112.85 188.16 89.77 188.12 66.69 M 193.32 71.82 C 193.55 72.26 194.00 73.15 194.23 73.59 C 209.06 73.84 223.90 73.60 238.73 73.70 C 238.72 73.09 238.69 71.88 238.67 71.27 C 225.77 71.35 212.87 71.32 199.97 71.28 C 197.74 71.31 195.45 71.04 193.32 71.82 M 193.86 78.04 C 193.71 79.37 193.68 80.71 193.79 82.04 C 206.86 82.38 219.95 82.04 233.03 82.21 C 236.30 83.04 236.29 77.04 233.06 77.80 C 220.00 78.08 206.91 77.55 193.86 78.04 M 193.15 84.43 C 193.54 85.28 193.63 86.93 195.02 86.62 C 209.58 86.74 224.14 86.59 238.71 86.68 C 238.71 86.09 238.71 84.91 238.72 84.31 C 223.53 84.35 208.33 84.10 193.15 84.43 M 193.97 88.96 L 193.42 90.03 C 193.78 90.32 194.49 90.89 194.84 91.17 C 206.52 91.02 218.25 91.57 229.90 90.84 L 230.53 89.97 L 230.23 88.83 C 221.82 88.32 213.38 88.78 204.96 88.62 C 201.30 88.70 197.59 88.29 193.97 88.96 M 193.36 96.15 C 193.19 101.97 193.39 107.80 193.28 113.62 C 199.88 113.84 206.48 113.61 213.08 113.75 C 213.49 107.79 213.37 101.79 213.17 95.83 C 208.13 95.43 203.06 95.69 198.01 95.63 C 196.51 95.88 194.57 95.05 193.36 96.15 M 217.76 95.81 C 217.48 100.55 217.69 105.29 217.59 110.04 C 217.71 111.28 217.18 113.79 219.18 113.65 C 225.31 113.81 231.45 113.68 237.59 113.71 C 237.68 107.84 237.52 101.98 237.73 96.12 C 231.15 95.14 224.40 95.75 217.76 95.81 M 193.70 121.14 C 205.46 121.52 217.26 121.22 229.03 121.32 C 230.97 120.81 230.45 118.73 230.64 117.22 C 218.80 116.55 206.88 116.84 195.03 116.98 C 192.68 117.00 193.77 119.75 193.70 121.14 M 193.24 123.23 C 193.54 124.04 193.85 124.85 194.16 125.66 C 208.99 125.89 223.81 125.53 238.64 125.76 C 238.67 125.13 238.72 123.88 238.74 123.25 C 223.58 123.24 208.40 123.23 193.24 123.23 M 193.59 127.83 C 193.66 128.40 193.79 129.54 193.85 130.10 C 207.25 130.51 220.69 130.29 234.09 130.22 C 234.43 129.93 235.10 129.36 235.44 129.07 C 235.45 126.81 232.35 127.99 230.97 127.62 C 218.51 127.78 206.05 127.39 193.59 127.83 Z" />
</g>
<g id="#1a292aff">
<path fill="#1a292a" opacity="1.00" d=" M 34.52 71.62 C 36.65 71.08 38.84 70.76 41.04 70.85 C 63.66 71.01 86.28 70.65 108.90 70.98 C 110.28 72.63 110.32 74.85 110.32 76.89 C 110.29 92.10 110.31 107.31 110.32 122.52 C 100.08 121.86 89.79 122.32 79.56 122.70 C 77.31 124.19 74.61 123.81 72.07 123.84 C 69.50 123.77 66.67 124.27 64.48 122.59 C 54.43 122.42 44.36 122.51 34.31 122.55 C 34.39 105.58 33.95 88.58 34.52 71.62 M 37.15 74.25 C 37.20 89.30 37.05 104.36 37.23 119.41 C 60.58 119.21 83.94 119.31 107.30 119.35 C 107.42 104.38 107.14 89.39 107.44 74.42 C 84.02 74.03 60.57 74.34 37.15 74.25 Z" />
</g>
<g id="#cecccbff">
<path fill="#cecccb" opacity="1.00" d=" M 193.32 71.82 C 195.45 71.04 197.74 71.31 199.97 71.28 C 212.87 71.32 225.77 71.35 238.67 71.27 C 238.69 71.88 238.72 73.09 238.73 73.70 C 223.90 73.60 209.06 73.84 194.23 73.59 C 194.00 73.15 193.55 72.26 193.32 71.82 Z" />
</g>
<g id="#fefefeff">
<path fill="#fefefe" opacity="1.00" d=" M 37.15 74.25 C 60.57 74.34 84.02 74.03 107.44 74.42 C 107.14 89.39 107.42 104.38 107.30 119.35 C 83.94 119.31 60.58 119.21 37.23 119.41 C 37.05 104.36 37.20 89.30 37.15 74.25 M 41.12 78.00 C 41.18 79.61 41.22 81.22 41.27 82.82 C 54.14 83.34 67.07 82.93 79.96 83.02 C 79.98 81.30 79.99 79.59 80.00 77.87 C 67.04 77.78 54.08 77.56 41.12 78.00 M 41.67 85.90 L 41.52 87.34 C 58.35 87.54 75.17 87.30 92.00 87.49 C 93.46 87.51 95.27 87.50 96.05 85.99 C 94.71 85.77 93.36 85.63 92.00 85.57 C 76.01 85.62 60.02 85.56 44.04 85.60 C 43.45 85.68 42.26 85.83 41.67 85.90 M 41.08 89.22 C 40.94 90.69 41.56 91.40 42.94 91.33 C 60.66 91.26 78.38 91.33 96.10 91.33 C 97.38 91.33 97.97 90.63 97.87 89.23 C 78.95 89.06 60.00 89.10 41.08 89.22 M 41.12 96.84 C 55.07 96.92 69.03 97.07 82.98 96.77 C 83.26 94.95 81.43 94.64 80.04 94.75 C 67.67 94.73 55.30 94.72 42.93 94.77 C 41.53 94.69 40.93 95.38 41.12 96.84 M 41.47 98.76 C 41.16 101.47 44.53 100.12 46.03 100.49 C 60.37 100.30 74.73 100.74 89.07 100.28 C 89.01 98.00 86.51 98.66 85.07 98.55 C 70.54 98.84 56.00 98.42 41.47 98.76 M 41.25 104.19 C 41.30 105.35 41.34 106.51 41.39 107.68 C 56.15 107.58 70.90 107.64 85.66 107.64 C 85.67 106.50 85.68 105.36 85.69 104.22 C 70.88 104.04 56.06 104.12 41.25 104.19 M 41.20 109.29 C 41.33 109.82 41.58 110.87 41.70 111.40 C 60.56 111.14 79.45 111.59 98.30 111.18 C 98.20 110.71 98.01 109.77 97.91 109.30 C 79.01 109.35 60.10 109.39 41.20 109.29 M 40.46 114.06 C 42.09 115.28 44.16 115.14 46.09 115.17 C 61.74 115.07 77.39 115.26 93.04 115.10 C 95.26 114.45 93.80 112.63 92.10 112.96 C 76.75 112.97 61.39 113.00 46.03 112.92 C 44.12 112.99 41.95 112.54 40.46 114.06 Z" />
</g>
<g id="#d2cfcfff">
<path fill="#d2cfcf" opacity="1.00" d=" M 41.12 78.00 C 54.08 77.56 67.04 77.78 80.00 77.87 C 79.99 79.59 79.98 81.30 79.96 83.02 C 67.07 82.93 54.14 83.34 41.27 82.82 C 41.22 81.22 41.18 79.61 41.12 78.00 Z" />
</g>
<g id="#d2cecfff">
<path fill="#d2cecf" opacity="1.00" d=" M 193.86 78.04 C 206.91 77.55 220.00 78.08 233.06 77.80 C 236.29 77.04 236.30 83.04 233.03 82.21 C 219.95 82.04 206.86 82.38 193.79 82.04 C 193.68 80.71 193.71 79.37 193.86 78.04 Z" />
</g>
<g id="#cccbc9ff">
<path fill="#cccbc9" opacity="1.00" d=" M 193.15 84.43 C 208.33 84.10 223.53 84.35 238.72 84.31 C 238.71 84.91 238.71 86.09 238.71 86.68 C 224.14 86.59 209.58 86.74 195.02 86.62 C 193.63 86.93 193.54 85.28 193.15 84.43 Z" />
</g>
<g id="#cbcac9ff">
<path fill="#cbcac9" opacity="1.00" d=" M 41.67 85.90 C 42.26 85.83 43.45 85.68 44.04 85.60 C 60.02 85.56 76.01 85.62 92.00 85.57 C 93.36 85.63 94.71 85.77 96.05 85.99 C 95.27 87.50 93.46 87.51 92.00 87.49 C 75.17 87.30 58.35 87.54 41.52 87.34 L 41.67 85.90 Z" />
</g>
<g id="#d3d3d2ff">
<path fill="#d3d3d2" opacity="1.00" d=" M 41.08 89.22 C 60.00 89.10 78.95 89.06 97.87 89.23 C 97.97 90.63 97.38 91.33 96.10 91.33 C 78.38 91.33 60.66 91.26 42.94 91.33 C 41.56 91.40 40.94 90.69 41.08 89.22 Z" />
</g>
<g id="#cfcdcdff">
<path fill="#cfcdcd" opacity="1.00" d=" M 193.97 88.96 C 197.59 88.29 201.30 88.70 204.96 88.62 C 213.38 88.78 221.82 88.32 230.23 88.83 L 230.53 89.97 L 229.90 90.84 C 218.25 91.57 206.52 91.02 194.84 91.17 C 194.49 90.89 193.78 90.32 193.42 90.03 L 193.97 88.96 Z" />
</g>
<g id="#d3d1d1ff">
<path fill="#d3d1d1" opacity="1.00" d=" M 41.12 96.84 C 40.93 95.38 41.53 94.69 42.93 94.77 C 55.30 94.72 67.67 94.73 80.04 94.75 C 81.43 94.64 83.26 94.95 82.98 96.77 C 69.03 97.07 55.07 96.92 41.12 96.84 Z" />
</g>
<g id="#d3cfceff">
<path fill="#d3cfce" opacity="1.00" d=" M 193.36 96.15 C 194.57 95.05 196.51 95.88 198.01 95.63 C 203.06 95.69 208.13 95.43 213.17 95.83 C 213.37 101.79 213.49 107.79 213.08 113.75 C 206.48 113.61 199.88 113.84 193.28 113.62 C 193.39 107.80 193.19 101.97 193.36 96.15 Z" />
</g>
<g id="#d1d0ceff">
<path fill="#d1d0ce" opacity="1.00" d=" M 217.76 95.81 C 224.40 95.75 231.15 95.14 237.73 96.12 C 237.52 101.98 237.68 107.84 237.59 113.71 C 231.45 113.68 225.31 113.81 219.18 113.65 C 217.18 113.79 217.71 111.28 217.59 110.04 C 217.69 105.29 217.48 100.55 217.76 95.81 Z" />
</g>
<g id="#c9c8c8ff">
<path fill="#c9c8c8" opacity="1.00" d=" M 41.47 98.76 C 56.00 98.42 70.54 98.84 85.07 98.55 C 86.51 98.66 89.01 98.00 89.07 100.28 C 74.73 100.74 60.37 100.30 46.03 100.49 C 44.53 100.12 41.16 101.47 41.47 98.76 Z" />
</g>
<g id="#cccfccff">
<path fill="#cccfcc" opacity="1.00" d=" M 41.25 104.19 C 56.06 104.12 70.88 104.04 85.69 104.22 C 85.68 105.36 85.67 106.50 85.66 107.64 C 70.90 107.64 56.15 107.58 41.39 107.68 C 41.34 106.51 41.30 105.35 41.25 104.19 Z" />
</g>
<g id="#cecccdff">
<path fill="#cecccd" opacity="1.00" d=" M 41.20 109.29 C 60.10 109.39 79.01 109.35 97.91 109.30 C 98.01 109.77 98.20 110.71 98.30 111.18 C 79.45 111.59 60.56 111.14 41.70 111.40 C 41.58 110.87 41.33 109.82 41.20 109.29 Z" />
<path fill="#cecccd" opacity="1.00" d=" M 193.24 123.23 C 208.40 123.23 223.58 123.24 238.74 123.25 C 238.72 123.88 238.67 125.13 238.64 125.76 C 223.81 125.53 208.99 125.89 194.16 125.66 C 193.85 124.85 193.54 124.04 193.24 123.23 Z" />
</g>
<g id="#d2d0d0ff">
<path fill="#d2d0d0" opacity="1.00" d=" M 40.46 114.06 C 41.95 112.54 44.12 112.99 46.03 112.92 C 61.39 113.00 76.75 112.97 92.10 112.96 C 93.80 112.63 95.26 114.45 93.04 115.10 C 77.39 115.26 61.74 115.07 46.09 115.17 C 44.16 115.14 42.09 115.28 40.46 114.06 Z" />
</g>
<g id="#d1cfd0ff">
<path fill="#d1cfd0" opacity="1.00" d=" M 193.70 121.14 C 193.77 119.75 192.68 117.00 195.03 116.98 C 206.88 116.84 218.80 116.55 230.64 117.22 C 230.45 118.73 230.97 120.81 229.03 121.32 C 217.26 121.22 205.46 121.52 193.70 121.14 Z" />
<path fill="#d1cfd0" opacity="1.00" d=" M 193.59 127.83 C 206.05 127.39 218.51 127.78 230.97 127.62 C 232.35 127.99 235.45 126.81 235.44 129.07 C 235.10 129.36 234.43 129.93 234.09 130.22 C 220.69 130.29 207.25 130.51 193.85 130.10 C 193.79 129.54 193.66 128.40 193.59 127.83 Z" />
</g>
<g id="#f5faffff">
<path fill="#f5faff" opacity="1.00" d=" M 34.31 122.55 C 44.36 122.51 54.43 122.42 64.48 122.59 C 66.67 124.27 69.50 123.77 72.07 123.84 C 74.61 123.81 77.31 124.19 79.56 122.70 C 87.36 122.30 95.19 122.91 103.00 122.92 C 108.29 122.67 113.59 122.24 118.89 122.67 C 118.70 123.82 118.52 124.98 118.34 126.13 C 113.56 126.60 108.75 126.45 103.95 126.41 C 86.32 126.40 68.69 126.41 51.07 126.43 C 42.86 126.33 34.65 126.51 26.44 126.45 C 26.38 125.33 26.31 124.21 26.23 123.09 C 28.91 122.72 31.61 122.54 34.31 122.55 Z" />
</g>
<g id="#b6bd49ff">
<path fill="#b6bd49" opacity="1.00" d=" M 26.44 126.45 C 34.65 126.51 42.86 126.33 51.07 126.43 C 51.24 126.64 51.58 127.05 51.74 127.26 C 51.09 127.92 50.42 128.58 49.76 129.24 C 43.49 129.42 37.21 129.52 30.95 129.31 C 28.90 129.49 27.61 127.84 26.44 126.45 Z" />
</g>
<g id="#abb524ff">
<path fill="#abb524" opacity="1.00" d=" M 51.07 126.43 C 68.69 126.41 86.32 126.40 103.95 126.41 C 108.75 126.45 113.56 126.60 118.34 126.13 C 119.65 126.06 120.96 126.01 122.28 125.99 C 121.73 128.02 120.44 130.05 118.03 129.60 C 95.29 129.67 72.55 129.69 49.81 129.62 L 49.76 129.24 C 50.42 128.58 51.09 127.92 51.74 127.26 C 51.58 127.05 51.24 126.64 51.07 126.43 Z" />
</g>
<g id="#f3fdffff">
<path fill="#f3fdff" opacity="1.00" d=" M 214.54 139.30 C 215.48 138.82 216.55 137.65 217.66 138.46 C 219.35 139.05 218.72 141.10 218.41 142.40 C 217.19 142.64 215.96 142.50 214.76 142.20 C 214.69 141.23 214.61 140.26 214.54 139.30 Z" />
</g>
<g id="#1ba2b7ff">
<path fill="#1ba2b7" opacity="1.00" d=" M 109.55 142.63 C 115.46 140.86 122.60 145.69 122.35 152.04 C 122.91 158.39 116.10 163.88 110.02 162.20 C 105.56 161.07 101.77 156.71 102.24 151.96 C 102.05 147.59 105.60 143.92 109.55 142.63 M 109.36 148.70 C 108.67 146.13 106.87 149.27 106.38 150.26 C 103.99 155.50 111.48 161.22 115.79 157.19 C 115.44 157.01 114.75 156.66 114.40 156.48 C 114.58 156.12 114.94 155.39 115.12 155.03 L 115.99 155.38 L 115.13 156.59 C 119.02 157.14 119.20 150.78 117.21 148.62 C 115.43 146.35 109.64 144.46 109.36 148.70 Z" />
</g>
<g id="#f0f3f6ff">
<path fill="#f0f3f6" opacity="1.00" d=" M 53.02 145.59 C 54.98 144.84 56.84 143.88 58.77 143.07 C 58.58 143.95 58.36 144.84 58.13 145.71 C 56.19 148.93 53.56 152.07 53.53 156.02 L 53.47 156.66 C 53.48 157.33 53.49 158.68 53.50 159.35 C 52.01 161.07 50.29 162.84 47.84 162.86 C 43.28 162.66 38.73 163.39 34.18 162.93 C 29.49 162.18 24.76 163.54 20.09 162.69 C 18.78 161.88 16.76 161.58 16.32 159.86 C 15.38 156.34 15.46 152.60 15.92 149.01 C 16.17 146.48 18.51 144.46 21.01 144.37 C 29.52 144.00 38.05 144.55 46.55 144.03 C 48.71 144.53 50.78 145.55 53.02 145.59 Z" />
</g>
<g id="#b0bc2aff">
<path fill="#b0bc2a" opacity="1.00" d=" M 58.13 145.71 C 59.14 145.61 60.16 145.51 61.18 145.41 C 59.88 148.63 58.17 151.64 56.74 154.80 C 55.66 155.17 54.59 155.58 53.53 156.02 C 53.56 152.07 56.19 148.93 58.13 145.71 Z" />
</g>
<g id="#08535fff">
<path fill="#08535f" opacity="1.00" d=" M 109.36 148.70 C 109.64 144.46 115.43 146.35 117.21 148.62 C 119.20 150.78 119.02 157.14 115.13 156.59 L 115.99 155.38 C 117.73 154.84 117.01 151.64 115.26 153.14 C 115.22 153.62 115.16 154.56 115.12 155.03 C 114.94 155.39 114.58 156.12 114.40 156.48 C 114.75 156.66 115.44 157.01 115.79 157.19 C 111.48 161.22 103.99 155.50 106.38 150.26 C 106.87 149.27 108.67 146.13 109.36 148.70 M 112.22 147.19 C 110.86 147.91 110.83 148.57 112.12 149.18 C 113.48 148.47 113.52 147.80 112.22 147.19 M 108.17 149.95 C 107.92 150.27 107.42 150.91 107.17 151.23 C 108.41 154.40 112.05 149.03 108.17 149.95 M 111.09 150.32 C 109.82 151.94 112.87 152.91 113.78 151.69 C 115.01 150.10 111.99 149.11 111.09 150.32 M 115.11 150.09 C 114.69 151.73 115.28 152.29 116.87 151.78 C 117.29 150.13 116.71 149.57 115.11 150.09 M 108.22 153.17 C 106.64 156.07 111.56 153.54 108.22 153.17 M 111.13 153.16 C 109.97 154.74 112.82 155.91 113.76 154.62 C 115.03 153.05 112.06 151.95 111.13 153.16 M 112.13 156.28 C 112.71 156.85 112.71 156.85 112.13 156.28 Z" />
</g>
<g id="#4e8691ff">
<path fill="#4e8691" opacity="1.00" d=" M 112.22 147.19 C 113.52 147.80 113.48 148.47 112.12 149.18 C 110.83 148.57 110.86 147.91 112.22 147.19 Z" />
</g>
<g id="#ccd211ff">
<path fill="#ccd211" opacity="1.00" d=" M 256.78 149.70 C 259.60 148.48 262.92 149.69 265.15 151.59 C 261.38 151.18 256.50 152.84 255.80 157.03 C 255.35 159.36 252.99 160.64 252.55 163.03 C 250.19 161.52 250.31 158.57 250.77 156.12 C 251.53 153.10 254.29 151.26 256.78 149.70 Z" />
</g>
<g id="#2a8f97ff">
<path fill="#2a8f97" opacity="1.00" d=" M 108.17 149.95 C 112.05 149.03 108.41 154.40 107.17 151.23 C 107.42 150.91 107.92 150.27 108.17 149.95 Z" />
</g>
<g id="#2b96a2ff">
<path fill="#2b96a2" opacity="1.00" d=" M 111.09 150.32 C 111.99 149.11 115.01 150.10 113.78 151.69 C 112.87 152.91 109.82 151.94 111.09 150.32 Z" />
</g>
<g id="#43959bff">
<path fill="#43959b" opacity="1.00" d=" M 115.11 150.09 C 116.71 149.57 117.29 150.13 116.87 151.78 C 115.28 152.29 114.69 151.73 115.11 150.09 Z" />
</g>
<g id="#1e8492ff">
<path fill="#1e8492" opacity="1.00" d=" M 246.71 151.67 C 247.88 151.17 249.04 150.65 250.17 150.06 C 246.73 155.31 246.46 163.16 251.77 167.29 C 257.04 172.52 266.76 170.59 270.05 164.09 C 272.68 160.16 271.59 155.17 269.54 151.26 C 270.02 151.53 271.00 152.08 271.48 152.35 C 272.78 157.07 274.01 162.23 271.89 166.92 C 271.28 169.75 268.22 170.65 266.02 171.95 C 263.17 173.33 259.38 174.63 256.60 172.42 C 253.72 170.33 250.66 168.39 248.16 165.84 C 246.31 161.39 246.29 156.41 246.71 151.67 Z" />
</g>
<g id="#45a9b5ff">
<path fill="#45a9b5" opacity="1.00" d=" M 108.22 153.17 C 111.56 153.54 106.64 156.07 108.22 153.17 Z" />
</g>
<g id="#46959dff">
<path fill="#46959d" opacity="1.00" d=" M 111.13 153.16 C 112.06 151.95 115.03 153.05 113.76 154.62 C 112.82 155.91 109.97 154.74 111.13 153.16 Z" />
</g>
<g id="#4698a1ff">
<path fill="#4698a1" opacity="1.00" d=" M 115.26 153.14 C 117.01 151.64 117.73 154.84 115.99 155.38 L 115.12 155.03 C 115.16 154.56 115.22 153.62 115.26 153.14 Z" />
</g>
<g id="#1d1c00ff">
<path fill="#1d1c00" opacity="1.00" d=" M 257.26 155.45 C 259.53 154.25 261.84 153.15 264.19 152.12 C 264.28 155.48 264.28 158.84 264.18 162.21 C 263.76 162.59 262.92 163.36 262.51 163.75 C 261.64 163.24 260.77 162.73 259.92 162.21 C 260.13 161.74 260.56 160.80 260.77 160.33 C 261.40 160.18 262.66 159.88 263.28 159.73 C 263.39 158.20 263.48 156.67 263.54 155.14 C 261.76 155.54 260.07 156.24 258.48 157.11 C 258.42 157.62 258.29 158.65 258.23 159.17 C 258.04 160.82 257.86 162.48 257.58 164.12 C 256.53 163.92 253.95 164.77 254.20 162.96 C 253.46 160.81 255.99 161.04 257.30 160.51 C 257.29 158.82 257.27 157.14 257.26 155.45 Z" />
</g>
<g id="#cad413ff">
<path fill="#cad413" opacity="1.00" d=" M 265.36 153.52 C 266.41 153.46 267.47 153.42 268.52 153.35 L 268.91 153.33 C 268.90 153.63 268.90 154.22 268.89 154.52 C 268.54 157.48 268.21 160.48 267.27 163.33 C 264.59 166.01 260.39 168.40 256.60 166.61 C 256.84 165.99 257.33 164.75 257.58 164.12 C 257.86 162.48 258.04 160.82 258.23 159.17 C 259.44 158.57 260.66 157.98 261.88 157.38 C 261.52 158.37 261.15 159.35 260.77 160.33 C 260.56 160.80 260.13 161.74 259.92 162.21 C 260.77 162.73 261.64 163.24 262.51 163.75 C 262.92 163.36 263.76 162.59 264.18 162.21 C 267.19 159.99 263.29 156.28 265.36 153.52 Z" />
</g>
<g id="#a7d879ff">
<path fill="#a7d879" opacity="1.00" d=" M 65.94 156.03 C 68.26 155.60 70.41 154.25 72.82 154.34 C 73.81 155.09 74.57 156.09 75.44 156.98 C 74.27 158.11 73.07 159.22 71.88 160.32 C 72.28 158.62 72.61 156.91 72.95 155.20 C 71.58 156.04 70.23 156.89 68.86 157.71 C 63.73 157.22 58.66 156.18 53.47 156.66 L 53.53 156.02 C 54.59 155.58 55.66 155.17 56.74 154.80 C 59.82 155.04 62.84 155.86 65.94 156.03 Z" />
</g>
<g id="#4aa17eff">
<path fill="#4aa17e" opacity="1.00" d=" M 68.86 157.71 C 70.23 156.89 71.58 156.04 72.95 155.20 C 72.61 156.91 72.28 158.62 71.88 160.32 C 69.67 163.91 68.54 168.01 68.25 172.19 C 67.12 172.74 65.99 173.30 64.83 173.81 C 57.58 174.55 50.27 174.21 42.99 174.15 C 40.40 173.81 36.99 174.17 35.46 171.57 C 33.70 169.06 34.41 165.80 34.18 162.93 C 38.73 163.39 43.28 162.66 47.84 162.86 C 48.09 163.11 48.60 163.62 48.86 163.87 C 45.21 163.77 41.55 163.30 37.90 163.67 C 35.00 164.53 34.96 168.48 36.41 170.59 C 43.26 173.38 50.79 172.28 57.98 172.55 C 61.16 172.79 64.33 171.76 66.77 169.72 C 67.82 167.53 67.16 164.72 69.03 162.87 C 70.07 161.58 70.62 160.03 70.87 158.41 C 70.37 158.24 69.36 157.89 68.86 157.71 Z" />
</g>
<g id="#6ea5aaff">
<path fill="#6ea5aa" opacity="1.00" d=" M 112.13 156.28 C 112.71 156.85 112.71 156.85 112.13 156.28 Z" />
</g>
<g id="#2da18fff">
<path fill="#2da18f" opacity="1.00" d=" M 53.47 156.66 C 58.66 156.18 63.73 157.22 68.86 157.71 C 69.36 157.89 70.37 158.24 70.87 158.41 C 70.62 160.03 70.07 161.58 69.03 162.87 C 69.14 162.07 69.34 160.47 69.45 159.67 C 64.32 157.70 58.75 158.22 53.50 159.35 C 53.49 158.68 53.48 157.33 53.47 156.66 Z" />
</g>
<g id="#11abc0ff">
<path fill="#11abc0" opacity="1.00" d=" M 53.50 159.35 C 58.75 158.22 64.32 157.70 69.45 159.67 C 69.34 160.47 69.14 162.07 69.03 162.87 C 67.16 164.72 67.82 167.53 66.77 169.72 C 64.33 171.76 61.16 172.79 57.98 172.55 C 50.79 172.28 43.26 173.38 36.41 170.59 C 34.96 168.48 35.00 164.53 37.90 163.67 C 41.55 163.30 45.21 163.77 48.86 163.87 C 48.60 163.62 48.09 163.11 47.84 162.86 C 50.29 162.84 52.01 161.07 53.50 159.35 Z" />
</g>
<g id="#a6c549ff">
<path fill="#a6c549" opacity="1.00" d=" M 17.99 163.51 C 18.52 163.30 19.57 162.89 20.09 162.69 C 24.76 163.54 29.49 162.18 34.18 162.93 C 34.41 165.80 33.70 169.06 35.46 171.57 C 36.99 174.17 40.40 173.81 42.99 174.15 C 50.27 174.21 57.58 174.55 64.83 173.81 C 65.11 174.07 65.66 174.59 65.93 174.85 C 56.63 174.49 47.32 174.83 38.02 174.75 C 33.63 174.63 33.06 169.14 32.65 165.81 C 32.59 165.40 32.48 164.56 32.42 164.14 C 29.35 163.33 26.06 163.59 23.43 165.47 C 21.58 164.91 19.74 164.32 17.99 163.51 Z" />
</g>
<g id="#acbd22ff">
<path fill="#acbd22" opacity="1.00" d=" M 23.43 165.47 C 26.06 163.59 29.35 163.33 32.42 164.14 C 32.48 164.56 32.59 165.40 32.65 165.81 C 29.98 165.86 27.31 166.04 24.64 165.86 L 23.43 165.47 Z" />
</g>
<g id="#20a3b2ff">
<path fill="#20a3b2" opacity="1.00" d=" M 211.32 169.84 C 212.79 169.35 214.34 169.15 215.81 169.77 C 215.68 170.35 215.43 171.53 215.30 172.11 C 217.74 172.23 220.20 172.34 222.64 172.11 C 222.82 171.65 223.18 170.74 223.36 170.28 C 224.23 169.64 225.22 169.58 226.32 170.08 C 226.64 173.30 230.33 172.57 231.44 170.31 C 232.42 169.69 233.55 169.58 234.83 169.99 C 234.64 170.53 234.26 171.61 234.08 172.15 C 236.84 171.84 241.37 173.72 242.60 170.30 C 243.43 171.89 244.29 173.47 245.14 175.06 C 244.57 176.04 243.80 176.79 242.83 177.29 C 241.83 177.50 240.93 177.89 240.11 178.47 C 238.88 180.02 241.69 180.72 242.66 179.90 L 242.97 180.72 C 241.20 181.41 239.36 182.19 238.53 184.06 C 238.32 184.02 237.90 183.92 237.68 183.87 C 237.39 183.50 236.80 182.77 236.51 182.40 C 233.67 181.85 230.78 181.80 227.90 181.75 C 227.92 182.31 227.94 183.42 227.95 183.98 C 230.36 184.10 232.77 184.24 235.18 184.26 C 231.18 185.74 226.67 185.05 222.54 184.46 C 224.18 184.16 226.60 184.42 226.44 182.07 C 223.10 182.03 219.74 181.75 216.41 182.07 C 216.24 182.57 215.92 183.57 215.75 184.07 L 215.43 183.65 C 213.40 180.60 209.08 182.24 206.02 181.66 C 205.70 182.18 205.07 183.21 204.75 183.72 L 204.48 184.16 C 203.75 183.25 203.74 181.29 202.22 181.36 C 200.65 181.37 200.55 183.02 200.48 184.18 L 200.42 184.83 C 196.72 184.72 193.09 185.49 189.41 185.61 C 188.12 181.53 189.92 176.87 187.37 173.16 C 187.81 172.95 188.71 172.53 189.16 172.32 C 192.33 172.29 195.52 172.48 198.68 172.03 C 198.89 171.56 199.29 170.60 199.50 170.13 C 200.39 169.69 201.37 169.58 202.44 169.79 C 202.59 170.53 202.88 171.99 203.03 172.72 C 205.94 172.65 208.84 172.42 211.70 171.95 C 211.61 171.42 211.42 170.37 211.32 169.84 M 189.67 175.99 C 195.41 176.36 201.22 176.32 206.96 176.06 C 207.07 175.56 207.29 174.56 207.40 174.06 C 202.93 174.17 198.47 174.21 194.01 174.09 C 192.45 174.13 190.13 174.04 189.67 175.99 M 209.03 174.13 C 208.95 174.63 208.79 175.63 208.71 176.13 C 213.70 177.06 218.87 175.21 223.72 176.94 C 223.76 176.25 223.84 174.87 223.87 174.18 C 218.93 174.15 213.97 173.81 209.03 174.13 M 224.80 176.01 C 226.67 176.12 228.55 176.20 230.43 176.25 C 230.97 172.87 224.68 172.95 224.80 176.01 M 231.88 176.10 C 234.09 176.09 237.97 177.34 238.17 173.97 C 236.09 174.42 232.09 172.95 231.88 176.10 M 239.40 174.38 C 237.93 176.46 242.54 177.10 242.80 175.12 C 242.49 173.66 240.34 173.41 239.40 174.38 M 189.26 178.98 L 190.10 179.84 C 194.03 180.26 198.04 180.12 201.99 179.88 C 202.22 179.41 202.67 178.47 202.90 178.00 C 198.92 178.03 194.95 178.01 190.98 177.97 C 190.55 178.22 189.69 178.73 189.26 178.98 M 206.00 178.12 C 205.96 179.46 206.61 180.10 207.95 180.05 C 210.82 180.40 213.81 180.65 216.65 179.87 C 216.76 179.45 217.00 178.62 217.12 178.20 C 213.41 178.04 209.69 177.68 206.00 178.12 M 220.94 178.05 C 220.88 178.53 220.76 179.51 220.71 180.00 C 225.50 179.96 230.32 180.43 235.09 179.84 C 235.32 179.46 235.76 178.70 235.99 178.32 C 231.00 177.71 225.95 177.61 220.94 178.05 M 189.86 181.86 C 189.83 182.39 189.76 183.45 189.73 183.99 C 192.82 184.03 195.91 183.95 199.00 183.87 C 199.00 183.37 199.02 182.39 199.02 181.90 C 195.97 181.86 192.91 181.61 189.86 181.86 Z" />
</g>
<g id="#56caddff">
<path fill="#56cadd" opacity="1.00" d=" M 189.47 170.43 C 192.79 169.98 196.15 170.07 199.50 170.13 C 199.29 170.60 198.89 171.56 198.68 172.03 C 195.52 172.48 192.33 172.29 189.16 172.32 C 189.24 171.85 189.39 170.90 189.47 170.43 Z" />
</g>
<g id="#5fcee2ff">
<path fill="#5fcee2" opacity="1.00" d=" M 202.44 169.79 C 205.38 170.19 208.38 170.44 211.32 169.84 C 211.42 170.37 211.61 171.42 211.70 171.95 C 208.84 172.42 205.94 172.65 203.03 172.72 C 202.88 171.99 202.59 170.53 202.44 169.79 Z" />
</g>
<g id="#64d1e6ff">
<path fill="#64d1e6" opacity="1.00" d=" M 215.81 169.77 C 218.30 170.16 220.83 170.23 223.36 170.28 C 223.18 170.74 222.82 171.65 222.64 172.11 C 220.20 172.34 217.74 172.23 215.30 172.11 C 215.43 171.53 215.68 170.35 215.81 169.77 Z" />
</g>
<g id="#57cde3ff">
<path fill="#57cde3" opacity="1.00" d=" M 226.32 170.08 C 228.04 169.89 229.74 169.97 231.44 170.31 C 230.33 172.57 226.64 173.30 226.32 170.08 Z" />
</g>
<g id="#60d2e5ff">
<path fill="#60d2e5" opacity="1.00" d=" M 234.83 169.99 C 237.41 170.22 240.01 170.22 242.60 170.30 C 241.37 173.72 236.84 171.84 234.08 172.15 C 234.26 171.61 234.64 170.53 234.83 169.99 Z" />
</g>
<g id="#69cdddff">
<path fill="#69cddd" opacity="1.00" d=" M 189.67 175.99 C 190.13 174.04 192.45 174.13 194.01 174.09 C 198.47 174.21 202.93 174.17 207.40 174.06 C 207.29 174.56 207.07 175.56 206.96 176.06 C 201.22 176.32 195.41 176.36 189.67 175.99 Z" />
</g>
<g id="#6ccfe0ff">
<path fill="#6ccfe0" opacity="1.00" d=" M 209.03 174.13 C 213.97 173.81 218.93 174.15 223.87 174.18 C 223.84 174.87 223.76 176.25 223.72 176.94 C 218.87 175.21 213.70 177.06 208.71 176.13 C 208.79 175.63 208.95 174.63 209.03 174.13 Z" />
</g>
<g id="#61d5e3ff">
<path fill="#61d5e3" opacity="1.00" d=" M 224.80 176.01 C 224.68 172.95 230.97 172.87 230.43 176.25 C 228.55 176.20 226.67 176.12 224.80 176.01 Z" />
</g>
<g id="#60cddfff">
<path fill="#60cddf" opacity="1.00" d=" M 231.88 176.10 C 232.09 172.95 236.09 174.42 238.17 173.97 C 237.97 177.34 234.09 176.09 231.88 176.10 Z" />
</g>
<g id="#6dd5e4ff">
<path fill="#6dd5e4" opacity="1.00" d=" M 239.40 174.38 C 240.34 173.41 242.49 173.66 242.80 175.12 C 242.54 177.10 237.93 176.46 239.40 174.38 Z" />
</g>
<g id="#4acddbff">
<path fill="#4acddb" opacity="1.00" d=" M 240.11 178.47 C 240.93 177.89 241.83 177.50 242.83 177.29 C 242.79 177.94 242.70 179.24 242.66 179.90 C 241.69 180.72 238.88 180.02 240.11 178.47 Z" />
</g>
<g id="#65d2deff">
<path fill="#65d2de" opacity="1.00" d=" M 189.26 178.98 C 189.69 178.73 190.55 178.22 190.98 177.97 C 194.95 178.01 198.92 178.03 202.90 178.00 C 202.67 178.47 202.22 179.41 201.99 179.88 C 198.04 180.12 194.03 180.26 190.10 179.84 L 189.26 178.98 Z" />
</g>
<g id="#67d0e1ff">
<path fill="#67d0e1" opacity="1.00" d=" M 206.00 178.12 C 209.69 177.68 213.41 178.04 217.12 178.20 C 217.00 178.62 216.76 179.45 216.65 179.87 C 213.81 180.65 210.82 180.40 207.95 180.05 C 206.61 180.10 205.96 179.46 206.00 178.12 Z" />
</g>
<g id="#69d0ddff">
<path fill="#69d0dd" opacity="1.00" d=" M 220.94 178.05 C 225.95 177.61 231.00 177.71 235.99 178.32 C 235.76 178.70 235.32 179.46 235.09 179.84 C 230.32 180.43 225.50 179.96 220.71 180.00 C 220.76 179.51 220.88 178.53 220.94 178.05 Z" />
</g>
<g id="#57cdd6ff">
<path fill="#57cdd6" opacity="1.00" d=" M 202.22 181.36 C 203.74 181.29 203.75 183.25 204.48 184.16 C 203.48 184.16 201.48 184.18 200.48 184.18 C 200.55 183.02 200.65 181.37 202.22 181.36 Z" />
</g>
<g id="#4cccddff">
<path fill="#4cccdd" opacity="1.00" d=" M 238.53 184.06 C 239.36 182.19 241.20 181.41 242.97 180.72 C 242.93 181.50 242.84 183.04 242.80 183.82 C 241.38 183.93 239.96 184.01 238.53 184.06 Z" />
</g>
<g id="#68d7e0ff">
<path fill="#68d7e0" opacity="1.00" d=" M 189.86 181.86 C 192.91 181.61 195.97 181.86 199.02 181.90 C 199.02 182.39 199.00 183.37 199.00 183.87 C 195.91 183.95 192.82 184.03 189.73 183.99 C 189.76 183.45 189.83 182.39 189.86 181.86 Z" />
</g>
<g id="#67d3dcff">
<path fill="#67d3dc" opacity="1.00" d=" M 204.75 183.72 C 205.07 183.21 205.70 182.18 206.02 181.66 C 209.08 182.24 213.40 180.60 215.43 183.65 C 211.91 184.32 208.28 184.31 204.75 183.72 Z" />
</g>
<g id="#66d6dfff">
<path fill="#66d6df" opacity="1.00" d=" M 216.41 182.07 C 219.74 181.75 223.10 182.03 226.44 182.07 C 226.60 184.42 224.18 184.16 222.54 184.46 C 220.28 184.33 218.02 184.14 215.75 184.07 C 215.92 183.57 216.24 182.57 216.41 182.07 Z" />
</g>
<g id="#6ad6dcff">
<path fill="#6ad6dc" opacity="1.00" d=" M 227.90 181.75 C 230.78 181.80 233.67 181.85 236.51 182.40 C 236.80 182.77 237.39 183.50 237.68 183.87 C 237.06 183.97 235.81 184.16 235.18 184.26 C 232.77 184.24 230.36 184.10 227.95 183.98 C 227.94 183.42 227.92 182.31 227.90 181.75 Z" />
</g>
</svg>
