<?xml version="1.0" encoding="UTF-8" ?>
<!DOCTYPE svg PUBLIC "-//W3C//DTD SVG 1.1//EN" "http://www.w3.org/Graphics/SVG/1.1/DTD/svg11.dtd">
<svg width="128pt" height="20pt" viewBox="0 0 128 20" version="1.1" xmlns="http://www.w3.org/2000/svg">
<g id="#ffffffff">
<path fill="#ffffff" opacity="1.00" d=" M 12.00 0.00 L 19.14 0.00 C 16.63 2.53 14.25 5.19 11.80 7.78 C 14.79 11.71 17.69 15.71 20.53 19.76 C 18.19 19.52 15.59 20.23 13.38 19.38 C 11.34 17.04 9.65 14.42 7.88 11.88 C 7.15 12.49 6.42 13.11 5.70 13.72 C 5.71 15.74 5.73 17.75 5.73 19.77 C 3.82 19.75 1.91 19.73 0.00 19.71 L 0.00 0.14 C 1.90 0.12 3.81 0.09 5.71 0.07 C 5.72 1.98 5.71 3.90 5.71 5.81 C 7.74 3.80 9.78 1.80 12.00 0.00 Z" />
<path fill="#ffffff" opacity="1.00" d=" M 105.48 0.00 L 111.17 0.00 C 111.22 3.11 111.16 6.21 111.04 9.32 C 112.22 8.07 113.40 6.82 114.58 5.57 C 116.63 5.60 118.68 5.61 120.73 5.64 C 119.04 7.42 117.38 9.23 115.72 11.04 C 117.76 13.88 119.72 16.78 121.62 19.72 C 119.41 19.71 117.21 19.69 115.00 19.68 C 113.93 18.04 112.84 16.40 111.72 14.80 C 111.42 16.40 111.19 18.02 110.98 19.64 C 109.15 19.68 107.31 19.71 105.48 19.75 C 105.47 13.17 105.33 6.58 105.48 0.00 Z" />
<path fill="#ffffff" opacity="1.00" d=" M 122.19 0.12 C 124.12 0.19 126.06 0.23 128.00 0.39 L 128.00 4.09 C 126.07 4.11 124.14 4.12 122.21 4.13 C 122.21 3.13 122.19 1.12 122.19 0.12 Z" />
<path fill="#ffffff" opacity="1.00" d=" M 19.93 9.87 C 20.79 3.40 31.28 3.10 34.17 8.13 C 34.70 11.96 34.30 15.85 34.67 19.70 C 32.80 19.24 29.85 20.69 28.90 18.41 C 25.77 21.04 19.02 19.96 19.34 15.06 C 20.21 10.79 25.56 11.76 28.73 10.56 C 28.71 9.99 28.66 8.85 28.64 8.28 C 27.46 8.37 26.10 8.05 25.22 9.05 C 23.85 10.55 21.69 9.74 19.93 9.87 M 24.49 14.53 C 24.54 15.00 24.63 15.94 24.68 16.42 C 25.84 16.56 27.00 16.69 28.17 16.82 C 28.75 15.59 29.28 14.34 29.73 13.06 C 27.91 13.25 26.12 13.68 24.49 14.53 Z" />
<path fill="#ffffff" opacity="1.00" d=" M 43.82 5.39 C 45.47 5.37 47.12 5.36 48.78 5.36 C 49.44 7.63 50.07 9.91 50.97 12.09 C 51.63 9.88 52.30 7.66 52.98 5.45 C 54.85 5.38 56.72 5.34 58.59 5.32 C 56.85 10.11 55.38 14.99 53.48 19.73 C 51.89 19.71 50.30 19.69 48.70 19.68 C 47.88 17.09 47.13 14.48 46.02 12.00 C 45.45 14.59 44.77 17.15 44.01 19.69 C 42.36 19.69 40.71 19.68 39.07 19.64 C 37.35 14.89 35.74 10.10 33.94 5.38 C 35.80 5.36 37.66 5.35 39.52 5.33 C 40.33 7.60 41.04 9.91 42.07 12.10 C 42.66 9.86 43.22 7.62 43.82 5.39 Z" />
<path fill="#ffffff" opacity="1.00" d=" M 58.32 10.13 C 58.10 7.36 60.33 5.30 62.94 5.03 C 66.14 4.56 70.67 4.63 72.25 8.04 C 72.95 11.88 72.34 15.82 72.79 19.69 C 70.90 19.28 67.94 20.69 67.01 18.34 C 63.97 21.18 57.10 19.80 57.49 15.00 C 58.67 10.53 64.31 11.93 67.54 10.11 C 66.88 7.55 63.64 7.71 62.60 9.85 C 61.17 9.95 59.74 10.04 58.32 10.13 M 62.39 14.86 C 62.64 15.32 63.13 16.26 63.38 16.73 C 65.95 17.37 67.76 15.60 67.85 13.09 C 65.90 13.22 64.00 13.71 62.39 14.86 Z" />
<path fill="#ffffff" opacity="1.00" d=" M 75.80 5.82 C 79.95 3.89 86.26 4.28 88.01 9.26 C 86.39 9.30 84.76 9.33 83.14 9.35 C 81.64 7.76 79.87 7.32 78.50 9.28 C 81.86 10.40 87.32 9.64 88.38 14.05 C 89.29 18.30 84.13 19.99 80.77 20.00 L 80.16 20.00 C 76.80 20.02 73.97 17.92 73.00 14.70 C 74.70 14.70 76.40 14.73 78.11 14.79 C 79.30 15.95 80.74 16.77 82.45 16.80 C 82.48 16.23 82.53 15.09 82.56 14.51 C 79.95 13.77 77.16 13.52 74.72 12.27 C 72.24 10.78 73.51 6.87 75.80 5.82 Z" />
<path fill="#ffffff" opacity="1.00" d=" M 89.78 10.15 C 90.03 3.77 99.39 3.40 103.08 6.90 C 105.30 10.72 103.63 15.49 104.40 19.68 C 102.43 19.34 99.73 20.53 98.44 18.49 C 96.10 19.96 92.71 20.52 90.49 18.51 C 88.46 17.00 88.70 13.22 91.15 12.28 C 93.60 11.35 96.27 11.16 98.77 10.38 C 98.55 8.96 97.76 7.59 96.08 8.29 C 94.38 9.97 92.05 10.22 89.78 10.15 M 94.61 16.39 C 97.20 17.88 99.10 15.54 99.60 13.21 C 97.69 13.20 93.25 13.41 94.61 16.39 Z" />
<path fill="#ffffff" opacity="1.00" d=" M 122.16 5.63 C 124.11 5.63 126.05 5.63 128.00 5.63 L 128.00 19.67 C 126.08 19.68 124.15 19.69 122.23 19.70 C 122.16 15.01 122.21 10.32 122.16 5.63 Z" />
</g>
</svg>
