<?xml version="1.0" encoding="UTF-8" standalone="no"?>
<svg
   xmlns:dc="http://purl.org/dc/elements/1.1/"
   xmlns:cc="http://creativecommons.org/ns#"
   xmlns:rdf="http://www.w3.org/1999/02/22-rdf-syntax-ns#"
   xmlns:svg="http://www.w3.org/2000/svg"
   xmlns="http://www.w3.org/2000/svg"
   height="1128.604"
   width="1121.7798"
   id="svg4861"
   version="1.1"
   viewBox="0 0 1121.7798 1128.604">
  <metadata
     id="metadata4867">
    <rdf:RDF>
      <cc:Work
         rdf:about="">
        <dc:format>image/svg+xml</dc:format>
        <dc:type
           rdf:resource="http://purl.org/dc/dcmitype/StillImage" />
        <dc:title></dc:title>
      </cc:Work>
    </rdf:RDF>
  </metadata>
  <defs
     id="defs4865" />
  <path
     style="fill:#80d3b9"
     id="path4495"
     d="m 520.15117,186.688 c 0.21,0.075 0.415,0.16 0.63,0.228 l -0.59,0.097 -0.04,-0.326 z m 595.30003,604.37 -3.1,-2.24 c -6.824,-4.935 -16.45,-3.387 -21.374,3.438 l -24.312,33.622 24.487,-33.875 c 4.838,-6.686 3.325,-16.11 -3.362,-20.944 l -18.638,-13.467 c 0.95,-24.175 -13.237,-39.023 -32.962,-53.29 l -0.025,0.01 c -17.376,-13.21 -39.12603,-26.457 -65.41303,-36.723 6.838,-29.13 10.475,-59.49 10.475,-90.706 0,-56.08 -11.713,-109.42 -32.764,-157.75 12.5,-7.648 23.476,-15.758 33,-23.756 18.87603,-14.1 31.39003,-29.68 28.11403,-55.613 l 16.062,-11.194 c 6.763,-4.716 8.45,-14.114 3.725,-20.88 l -0.175,-0.257 c 4.813,6.908 14.413,8.622 21.313,3.807 l 3.15,-2.19 c 6.9,-4.814 8.625,-14.408 3.8,-21.318 L 985.22717,184.087 c -4.813,-6.91 -14.412,-8.622 -21.313,-3.807 l -3.15,2.19 c -6.9,4.814 -8.625,14.406 -3.8,21.316 l -0.187,-0.256 c -4.713,-6.77 -14.11,-8.448 -20.88,-3.73 l -18.86,13.145 c -22.508,-8.877 -41.204,-0.383 -61.182,13.54 v 0.02 c -12.262,8.11 -25.197,18.09 -37.948,30.29 -38.178,-27.72 -81.5,-48.773 -128.274,-61.46 2.01,-19.28 1.77,-37.11 0.334,-52.88 -0.724,-20.95 -5.344,-38.413 -22.81,-50.52 v -24.61 c 0,-8.25 -6.75,-15 -15,-15 h -0.313 c 8.423,0 15.313,-6.89 15.313,-15.313 v -3.828 c 0,-8.422 -6.89,-15.313 -15.313,-15.313 h -126.33 c -8.422,0 -15.312,6.892 -15.312,15.314 v 3.828 c 0,8.423 6.89,15.313 15.313,15.313 h -0.313 c -8.25,0 -15,6.75 -15,15 v 20.056 c -26.087,13.194 -30.608,34.995 -30.608,61.846 l 0.014,0.01 c -0.34,14.014 0.368,29.505 2.786,46.03 -58.68,15.878 -111.945,44.91 -156.43,83.76 -20.974,-17.866 -42.43,-30.656 -61.81,-39.774 -20.906,-11.29 -40.56,-16.202 -63.246,-2.748 l -17.596,-10.298 c -6.957,-4.068 -16.11,-1.784 -20.34,5.076 l -0.353,0.57 c 4.423,-7.174 2.017,-16.57 -5.35,-20.877 l -3.348,-1.96 c -7.367,-4.308 -17.013,-1.964 -21.437,5.21 l -26.672,43.256 c -2.32,1.77 -4.354,3.925 -5.937999,6.495 -1.595,2.587 -2.622,5.365 -3.13,8.212 l -30.618,49.653 c -4.425,7.174 -2.018,16.57 5.35,20.877 l 3.347,1.96 c 7.367,4.308 17.013,1.963 21.437,-5.21 l 0.015,-0.026 c -4.434,7.188 -2.096,16.558 5.193999,20.82 l 19.975,11.684 c 1.125,24.016 16.835,37.517 38.134,49.975 l 0.017,-0.01 c 14.82,9.15 32.424,18.085 52.722,25.356 -14.087,40.61 -21.763,84.212 -21.763,129.614 0,16.75 1.05,33.256 3.072,49.458 -27.398,4.513 -51.04,12.75 -70.432,21.785 -21.9,8.723 -38.023999,20.53 -41.579999,46.45 l -15.174,5.465 c -9.51,3.427 -14.994,12.584 -12.187,20.35 l 7.144,19.768 v 0.004 l -3.863,-10.688 -3.18,-8.802 c -2.86,-7.92 -11.7,-12.065 -19.638,-9.206 l -3.608,1.3 c -7.94,2.858 -12.093,11.678 -9.23,19.6 l 42.932,118.832 c 2.863,7.923 11.7,12.065 19.64,9.206 l 3.608,-1.298 c 7.938,-2.86 12.091999,-11.68 9.23,-19.602 l -8.33,-23.054 0.017,0.01 8.44,23.35 c 2.799999,7.75 12.859999,11.295 22.349999,7.877 l 18.37,-6.62 c 19.418,14.367 39.663,11.01 62.55,2.757 v -0.017 c 20.52,-6.844 43.493,-17.215 66.576,-32.9 51.866,70.493 126.554,123.144 213.176,147.06 -1.4,17.043 -1.07,32.863 0.22,47.024 0.81,23.423 6.487,42.486 29.545,54.58 v 19.577 c 0,8.25 6.75,15 15,15 h 0.313 c -8.423,0 -15.313,6.892 -15.313,15.313 v 3.83 c 0,8.42 6.89,15.312 15.313,15.312 h 126.33 c 8.422,0 15.312,-6.892 15.312,-15.313 v -3.83 c 0,-8.42 -6.89,-15.312 -15.313,-15.312 h 0.313 c 8.25,0 15,-6.75 15,-15 v -22.99 c 20.15,-13.39 23.87,-33.587 23.87,-57.938 l -0.012,-0.01 c 0.296,-12.194 -0.194,-25.502 -1.92,-39.638 72.178,-19.47 136.173,-58.856 185.733,-111.914 14.76,13.328 29.69,23.853 43.61,32.103 19.454,13.06 38.228,19.625 61.528,8.024 l 15.875,11.47 c 6.68703,4.832 16.11203,3.316 20.93703,-3.37 l 20.038,-27.713 -14.363,19.878 -5.487,7.583 c -4.938,6.826 -3.388,16.448 3.437,21.38 l 3.1,2.244 c 6.825,4.933 16.45,3.386 21.387,-3.44 l 29.75,-41.152 c 2.413,-1.58 4.588,-3.573 6.35,-6.018 1.776,-2.462 3.013,-5.16 3.763,-7.973 l 34.138,-47.237 c 4.937,-6.827 3.387,-16.448 -3.438,-21.382" />
  <path
     style="fill:#372526"
     id="path4497"
     d="m 76.317171,821.634 -42.935,-118.83 c -2.862,-7.923 -11.7,-12.066 -19.637,-9.207 l -3.61,1.298 c -7.9380004,2.858 -12.0920004,11.68 -9.23000042,19.602 L 43.838171,833.327 c 2.864,7.923 11.7,12.066 19.64,9.208 l 3.608,-1.3 c 7.938,-2.86 12.092,-11.68 9.23,-19.602" />
  <path
     style="fill:#cf4554"
     id="path4499"
     d="m 73.134171,812.832 -36.572,-101.226 c -2.438,-6.75 -9.004,-10.625 -14.59,-8.613 l -2.54,0.914 c -5.586,2.01 -8.162,9.18 -5.724,15.926 l 36.574,101.228 c 2.437,6.75 9.004,10.624 14.59,8.612 l 2.54,-0.915 c 5.586,-2.01 8.162,-9.177 5.724,-15.926" />
  <path
     style="fill:#372526"
     id="path4501"
     d="m 76.442171,821.941 -43.16,-119.42 c -2.81,-7.767 2.676,-16.924 12.186,-20.35 L 173.62717,636.008 c 9.49,-3.42 19.548,0.126 22.35,7.876 l 43.16,119.42 c 2.808,7.766 -2.678,16.924 -12.188,20.35 L 98.789171,829.817 c -9.49,3.417 -19.546,-0.128 -22.347,-7.878 M 935.98417,185.916 1008.2142,289.561 c 4.813,6.91 14.413,8.622 21.313,3.807 l 3.15,-2.19 c 6.9,-4.814 8.625,-14.408 3.8,-21.316 L 964.25217,166.217 c -4.813,-6.91 -14.41,-8.625 -21.32,-3.81 l -3.14,2.19 c -6.91,4.815 -8.622,14.408 -3.807,21.318" />
  <path
     style="fill:#cf4554"
     id="path4503"
     d="m 941.33717,193.593 61.52703,88.29 c 4.1,5.886 11.438,7.93 16.3,4.54 l 2.213,-1.54 c 4.862,-3.388 5.475,-10.976 1.375,-16.863 l -61.52503,-88.29 c -4.1,-5.886 -11.436,-7.93 -16.3,-4.54 l -2.21,1.54 c -4.86,3.388 -5.484,10.977 -1.38,16.863" />
  <path
     style="fill:#372526"
     id="path4505"
     d="m 935.80717,185.658 72.58203,104.16 c 4.726,6.768 3.038,16.165 -3.724,20.88 l -86.36303,60.185 c -6.77,4.717 -16.165,3.04 -20.883,-3.73 l -72.587,-104.158 c -4.716,-6.768 -3.038,-16.166 3.73,-20.882 l 86.36,-60.185 c 6.77,-4.716 16.168,-3.038 20.884,3.73 M 75.285171,321.598 141.64317,213.985 c 4.424,-7.173 2.016,-16.568 -5.35,-20.877 l -3.347,-1.96 c -7.368,-4.308 -17.014,-1.963 -21.44,5.21 L 45.150171,303.973 c -4.424,7.175 -2.017,16.57 5.35,20.88 l 3.347,1.956 c 7.367,4.31 17.014,1.965 21.437,-5.21" />
  <path
     style="fill:#cf4554"
     id="path4507"
     d="m 80.201171,313.628 56.526999,-91.67 c 3.77,-6.112 2.61,-13.594 -2.573,-16.625 l -2.356,-1.38 c -5.183,-3.03 -12.506,-0.51 -16.275,5.6 l -56.527999,91.67 c -3.768,6.113 -2.61,13.594 2.574,16.626 l 2.358,1.38 c 5.182,3.03 12.507,0.51 16.276,-5.6" />
  <path
     style="fill:#372526"
     id="path4509"
     d="m 75.301171,321.574 66.694999,-108.16 c 4.23,-6.86 13.382,-9.144 20.34,-5.074 l 114.607,67.035 c 7.29,4.264 9.627,13.634 5.195,20.822 l -66.695,108.16 c -4.23,6.86 -13.383,9.142 -20.34,5.072 L 80.493171,342.394 c -7.288,-4.263 -9.626,-13.632 -5.193,-20.82 m 994.702029,452.814 -74.01303,102.38 c -4.937,6.828 -3.387,16.45 3.438,21.383 l 3.10003,2.242 c 6.825,4.934 16.45,3.386 21.387,-3.44 l 74,-102.383 c 4.938,-6.825 3.388,-16.446 -3.437,-21.38 l -3.1,-2.243 c -6.825,-4.935 -16.45,-3.386 -21.375,3.44" />
  <path
     style="fill:#cf4554"
     id="path4511"
     d="m 1064.5152,781.97 -63.038,87.215 c -4.21203,5.815 -3.71203,13.413 1.088,16.884 l 2.187,1.58 c 4.8,3.473 12.163,1.555 16.375,-4.26 l 63.038,-87.214 c 4.2,-5.815 3.712,-13.412 -1.088,-16.884 l -2.188,-1.578 c -4.8,-3.473 -12.174,-1.555 -16.374,4.26" />
  <path
     style="fill:#372526"
     id="path4513"
     d="m 1070.1772,774.133 -74.37503,102.89 c -4.825,6.686 -14.25,8.203 -20.938,3.37 l -104.17,-75.3 c -6.686,-4.833 -8.202,-14.258 -3.37,-20.943 l 74.374,-102.89 c 4.835,-6.686 14.255,-8.202 20.943,-3.37 l 104.17503,75.3 c 6.687,4.832 8.2,14.257 3.362,20.943 m -439.30903,302.15 h -126.33 c -8.422,0 -15.313,6.89 -15.313,15.312 v 3.828 c 0,8.422 6.89,15.313 15.31,15.313 h 126.333 c 8.42,0 15.312,-6.89 15.312,-15.313 v -3.828 c 0,-8.422 -6.89,-15.312 -15.313,-15.312" />
  <path
     style="fill:#cf4554"
     id="path4515"
     d="m 621.51117,1076.283 h -107.614 c -7.175,0 -13.045,4.848 -13.045,10.775 v 2.694 c 0,5.927 5.87,10.776 13.045,10.776 h 107.614 c 7.175,0 13.045,-4.85 13.045,-10.776 v -2.694 c 0,-5.926 -5.87,-10.775 -13.046,-10.775" />
  <path
     style="fill:#372526"
     id="path4517"
     d="m 631.18217,1076.283 h -126.955 c -8.25,0 -15,-6.75 -15,-15 V 956.018 c 0,-8.25 6.75,-15 15,-15 h 126.955 c 8.25,0 15,6.75 15,15 v 105.265 c 0,8.25 -6.75,15 -15,15 M 504.53717,34.454 h 126.333 c 8.42,0 15.312,-6.89 15.312,-15.312 v -3.83 c 0,-8.42 -6.89,-15.312 -15.313,-15.312 h -126.33 c -8.422,0 -15.313,6.892 -15.313,15.313 v 3.83 c 0,8.42 6.89,15.31 15.31,15.31" />
  <path
     style="fill:#cf4554"
     id="path4519"
     d="m 513.89717,34.454 h 107.614 c 7.175,0 13.045,-4.85 13.045,-10.776 v -2.694 c 0,-5.926 -5.87,-10.775 -13.046,-10.775 h -107.613 c -7.175,0 -13.045,4.85 -13.045,10.776 v 2.694 c 0,5.927 5.87,10.776 13.045,10.776" />
  <path
     style="fill:#372526"
     id="path4521"
     d="m 504.22717,34.454 h 126.955 c 8.25,0 15,6.75 15,15 v 105.264 c 0,8.25 -6.75,15 -15,15 h -126.955 c -8.25,0 -15,-6.75 -15,-15 V 49.453 c 0,-8.25 6.75,-15 15,-15" />
  <path
     style="fill:#be8858"
     id="tableBrownTop"
     d="m 960.25217,559.013 c 0,218.336 -177,395.334 -395.34,395.334 -218.335,0 -395.332,-177 -395.332,-395.335 0,-218.338 176.997,-395.334 395.333,-395.334 218.338,0 395.34,176.998 395.34,395.335" />
  <path
     style="fill:#efefee"
     id="path4525"
     d="m 343.93717,389.203 487.47,-15.64 -3.98,333.745 -477.575,8.63 -5.915,-326.735" />
  <path
     style="fill:#ffffff"
     id="businessChart"
     d="m 371.67717,364.878 480.953,80.97 -69.838,326.382 -469.866,-85.888 58.751,-321.464" />
  <path
     style="fill:#544746"
     id="path4529"
     d="m 1014.0652,763.428 c 13.587,8.855 15.212,30.45 3.625,48.233 -11.588,17.782 -32.00003,25.018 -45.58803,16.163 -13.588,-8.855 -15.213,-30.45 -3.625,-48.232 11.588,-17.783 31.98803,-25.02 45.58703,-16.164" />
  <path
     style="fill:#99a09e"
     id="path4533"
     d="m 507.68517,374.418 137.197,-3.455 c 6.17,-0.155 11.09,-5.33 10.934,-11.497 l -0.97,-38.463 c -0.155,-6.167 -5.33,-11.087 -11.497,-10.932 l -137.198,3.453 c -6.17,0.155 -11.09,5.33 -10.932,11.498 l 0.967,38.462 c 0.155,6.168 5.33,11.088 11.498,10.933" />
  <g
     id="laptop">
    <g
       id="g7840">
      <g
         id="g7859">
        <path
           style="fill:#777886"
           id="path4535"
           d="m 509.69717,370.625 132.986,-3.347 c 5.98,-0.15 10.75,-5.01 10.605,-10.8 l -0.908,-36.1 c -0.145,-5.79 -5.156,-10.405 -11.135,-10.254 l -132.987,3.348 c -5.98,0.15 -10.75,5.01 -10.605,10.8 l 0.91,36.1 c 0.144,5.79 5.155,10.403 11.134,10.253" />
        <path
           d="m 504.95017,211.702 133.927,-3.37 c 8.248,-0.21 15.165,6.37 15.373,14.617 l 1.915,76.08 c 0.207,8.248 -6.372,15.165 -14.618,15.373 l -133.928,3.37 c -8.247,0.208 -15.165,-6.37 -15.372,-14.618 l -1.915,-76.08 c -0.207,-8.246 6.37,-15.164 14.618,-15.37"
           id="laptopKeyboard"
           style="fill:#99a09e" />
        <path
           d="m 513.95117,366.778 124.288,-3.13 c 5.588,-0.14 10.05,-4.68 9.913,-10.093 l -0.85,-33.74 c -0.136,-5.41 -4.82,-9.722 -10.408,-9.582 l -124.287,3.13 c -5.59,0.14 -10.05,4.68 -9.912,10.092 l 0.85,33.74 c 0.134,5.412 4.818,9.723 10.406,9.583"
           id="laptopScreen"
           style="fill:#ffffff" />
        <path
           d="m 636.16117,293.638 10.476,-0.264 0.28,11.07 -10.478,0.263 -0.278,-11.07 m -18.76,0.471 10.475,-0.262 0.277,11.07 -10.475,0.263 -0.278,-11.07 m -18.761,0.473 10.475,-0.264 0.28,11.07 -10.476,0.263 -0.278,-11.07 m -18.763,0.473 10.477,-0.264 0.28,11.07 -10.477,0.263 -0.28,-11.07 m -18.76,0.475 10.476,-0.265 0.28,11.07 -10.476,0.262 -0.28,-11.068 m -18.76,0.471 10.475,-0.264 0.28,11.07 -10.476,0.264 -0.28,-11.07 m -18.759,0.472 10.475,-0.263 0.278,11.07 -10.475,0.262 -0.28,-11.07 m -18.76,0.474 10.476,-0.264 0.28,11.07 -10.478,0.264 -0.28,-11.07 m 130.928,-19.195 10.476,-0.262 0.28,11.07 -10.478,0.263 -0.278,-11.07 m -18.76,0.473 10.475,-0.264 0.278,11.07 -10.475,0.264 -0.28,-11.07 m -18.759,0.472 10.475,-0.264 0.278,11.07 -10.475,0.263 -0.278,-11.07 m -18.763,0.475 10.478,-0.265 0.278,11.07 -10.476,0.263 -0.28,-11.07 m -18.76,0.472 10.476,-0.263 0.28,11.07 -10.476,0.263 -0.28,-11.07 m -18.76,0.472 10.475,-0.263 0.28,11.07 -10.476,0.262 -0.28,-11.07 m -18.759,0.474 10.475,-0.264 0.278,11.07 -10.475,0.265 -0.28,-11.07 m 112.167,-18.722 10.475,-0.264 0.28,11.07 -10.478,0.264 -0.277,-11.07 m -18.761,0.472 10.475,-0.264 0.278,11.07 -10.475,0.264 -0.28,-11.07 m -18.759,0.474 10.476,-0.265 0.276,11.07 -10.475,0.263 -0.277,-11.07 m -18.76,0.472 10.475,-0.262 0.278,11.068 -10.476,0.264 -0.278,-11.07 m -18.762,0.472 10.476,-0.263 0.28,11.07 -10.476,0.262 -0.28,-11.07 m -18.76,0.474 10.475,-0.264 0.28,11.07 -10.476,0.265 -0.28,-11.07 m 93.406,-18.25 10.475,-0.264 0.28,11.07 -10.476,0.264 -0.28,-11.07 m -18.76,0.474 10.475,-0.265 0.277,11.07 -10.475,0.263 -0.278,-11.07 m -18.76,0.472 10.476,-0.263 0.278,11.07 -10.477,0.263 -0.277,-11.07 m -18.76,0.473 10.475,-0.263 0.278,11.07 -10.476,0.263 -0.278,-11.07 m -18.762,0.472 10.476,-0.264 0.28,11.07 -10.476,0.265 -0.28,-11.07 m -18.76,0.471 10.475,-0.263 0.28,11.07 -10.476,0.263 -0.28,-11.07 m -18.759,0.473 10.475,-0.264 0.28,11.07 -10.478,0.263 -0.278,-11.07 m -18.759,0.474 10.474,-0.264 0.28,11.068 -10.477,0.263 -0.278,-11.067 m 130.926,-19.193 10.475,-0.265 0.28,11.07 -10.476,0.264 -0.28,-11.07 m -18.76,0.471 10.475,-0.263 0.277,11.07 -10.475,0.263 -0.278,-11.07 m -93.803,2.363 10.475,-0.264 0.28,11.068 -10.478,0.263 -0.278,-11.067 m -18.759,0.471 10.474,-0.263 0.28,11.07 -10.476,0.264 -0.28,-11.07 m 36.562,-1.935 69.5,-1.75 0.295,11.77 -69.5,1.75 -0.295,-11.77 m -35.77,33.335 29.235,-0.735 0.29,11.442 -29.24,0.737 -0.286,-11.445"
           id="path4539"
           style="fill:#273246" />
      </g>
    </g>
  </g>
  <path
     style="fill:#273246"
     id="path4541"
     d="m 504.02717,264.793 10.475,-0.264 0.688,27.332 -10.477,0.264 -0.687,-27.33" />
  <path
     style="fill:#fcce7e"
     id="path4543"
     d="m 796.15417,404.213 c 2.494,2.748 11.113,2.935 16.627,2.75 1.097,-0.036 1.486,1.436 0.512,1.945 -6.04,3.155 -16.72,8.774 -20.163,10.834 -3.754,2.246 -1.86,5.74 -0.808,7.66 -1.19,1.29 -1.56,3.226 -0.78,4.912 l 0.43,0.923 c 0.995,2.146 3.505,3.113 5.68,2.26 -0.257,0.974 -0.21,2.033 0.244,3.01 1.025,2.215 3.663,3.19 5.88,2.193 0.848,-0.263 1.553,-0.665 1.865,-0.86 l 0.178,-0.082 c -0.022,0.335 -0.14,4.055 4.85,4.63 5.222,0.6 16.062,-7.015 16.062,-7.015 14.704,-3.597 19.203,-10.487 19.203,-10.487 l 9.078,-5.305 -11.18,-23.787 c 0,0 -7.143,3.682 -14.275,1.273 -7.13,-2.41 -15.426,-3.896 -21.41,-2.47 -5.987,1.428 -14.09,1.553 -14.09,1.553 0,0 -1.66,1.925 2.098,6.062 m -34.941,-50.134 c -1.713,-3.29 1.095,-11.442 3.177,-16.55 0.415,-1.02 -0.833,-1.892 -1.647,-1.155 -5.05,4.574 -14.02,12.65 -17.145,15.165 -3.406,2.745 -6.027,-0.242 -7.465,-1.892 -1.625,0.667 -3.568,0.346 -4.878,-0.972 l -0.72,-0.72 c -1.67,-1.678 -1.706,-4.367 -0.154,-6.113 -1.002,-0.095 -1.98,-0.505 -2.74,-1.27 -1.722,-1.73 -1.722,-4.542 -0.02,-6.28 0.54,-0.7 1.16,-1.223 1.452,-1.45 l 0.138,-0.138 c -0.32,-0.095 -3.85,-1.272 -2.663,-6.152 1.243,-5.108 12.142,-12.64 12.142,-12.64 8.465,-12.55 16.488,-14.384 16.488,-14.384 l 8.118,-6.682 18.446,18.723 c 0,0 -5.926,5.428 -6.135,12.953 -0.207,7.523 -1.686,15.82 -5.097,20.943 -3.412,5.122 -6.333,12.678 -6.333,12.678 0,0 -2.38,0.892 -4.963,-4.065" />
  <path
     style="fill:#3ead4f"
     id="path4545"
     d="m 758.01717,285.625 34.536,17.767 c 17.213,-25.187 38.847,-46.367 64.56,-63.16 l -16.895,-35.045 c -26.58,16.707 -57.06,42.252 -82.2,80.437" />
  <path
     style="fill:#fabac4"
     id="path4547"
     d="m 751.47717,296.041 33.133,19.757 c 2.528,-4.24 5.184,-8.37 7.943,-12.406 l -34.535,-17.766 c -2.22,3.375 -4.406,6.838 -6.54,10.415" />
  <path
     style="fill:#3ead4f"
     id="path4549"
     d="m 861.87017,430.243 c 43.94,-12.774 77.36,-34.392 101.17,-54.885 l -28.51,-26.468 c -23.543,19.56 -50.06,33.962 -79.084,42.998 l 6.423,38.355" />
  <path
     style="fill:#fabac4"
     id="path4551"
     d="m 840.96017,395.918 9.12,37.48 c 4.014,-0.976 7.938,-2.036 11.79,-3.155 l -6.424,-38.355 c -4.765,1.484 -9.59,2.837 -14.488,4.03" />
  <path
     style="fill:#3ead4f"
     id="path4553"
     d="m 834.87717,208.614 c 0,0 3.818,43.162 43.294,98.108 37.88,56.06 77.056,74.58 77.056,74.58 35.338,-24.624 53.36303,-51.355 1.8,-129.534 -55.49,-75.444 -86.812,-67.78 -122.15,-43.154" />
  <path
     style="fill:#fcce7e"
     id="path4555"
     d="m 894.72317,231.023 c 23.853,-16.622 56.664,-10.76 73.292,13.09 16.612,23.854 10.762,56.665 -13.1,73.29 -23.848,16.62 -56.66,10.76 -73.283,-13.093 -16.622,-23.852 -10.76,-56.665 13.09,-73.287" />
  <path
     style="fill:#fcce7e"
     id="path4557"
     d="m 943.84517,304.156 c 8.145,-5.675 18.27,-5.21 22.632,1.04 4.35,6.25 1.288,15.916 -6.862,21.592 -8.143,5.675 -18.276,5.21 -22.63,-1.04 -4.356,-6.25 -1.284,-15.917 6.86,-21.592 m -54.478,-78.174 c 8.142,-5.675 18.275,-5.21 22.63,1.04 4.356,6.25 1.285,15.917 -6.86,21.592 -8.143,5.675 -18.275,5.21 -22.63,-1.04 -4.356,-6.25 -1.285,-15.916 6.86,-21.592" />
  <path
     style="fill:#4f4340"
     id="path4559"
     d="m 986.22717,265.533 c -5.5,-15.41 1.063,-33.1 -17.775,-37.86 -14.688,-3.71 -1.363,-6.77 -16.725,-9.988 -15.815,-3.313 -16.926,-10.245 -20.224,-2.717 l -4.13,2.805 h -0.03 c -0.77,-2.65 -2.332,-5.503 -6.61,-4.09 -13.83,4.56 -42.69,23.757 -40.266,40.13 -0.094,0.287 -0.174,0.58 -0.263,0.867 -2.033,2.624 -12.485,18.852 6.222,55.55 l 0.88,-9.875 c 0,0 -0.95,17.42 17.175,25.17 0,0 -4.43,-5.926 0.352,-9.288 0.8,0.444 1.61,0.865 2.427,1.266 2.236,3.748 7.942,11.523 17.56,13.253 0,0 -1.125,-4.41 -0.873,-8.254 1.31,0.165 2.63,0.273 3.95,0.34 2.067,3.756 5.606,8.183 10.726,7.913 0,0 -1.852,-4.09 -2.982,-8.093 7.59,-0.738 15.103,-3.14 21.986,-7.307 l 0.012,0.01 c 11.763,-0.89 28.988,-6.454 25.375,-26.55 -3.612,-20.094 8.725,-7.876 3.213,-23.285" />
  <path
     style="fill:#544746"
     id="path4561"
     d="m 907.18317,235.104 c 12.844,-9.907 33.765,-4.316 46.73,12.49 12.964,16.805 13.064,38.46 0.214,48.368 -12.844,9.907 -33.764,4.315 -46.727,-12.49 -12.964,-16.805 -13.06,-38.46 -0.217,-48.368" />
  <path
     style="fill:#fcce7e"
     id="path4563"
     d="m 601.06717,276.403 c 3.625,-0.79 8.088,-8.168 10.68,-13.037 0.514,-0.97 1.984,-0.573 1.94,0.524 -0.28,6.81 -0.737,18.87 -0.67,22.88 0.074,4.374 4.046,4.475 6.235,4.523 0.527,1.675 2.02,2.962 3.87,3.125 l 1.014,0.09 c 2.356,0.207 4.446,-1.485 4.79,-3.796 0.718,0.708 1.658,1.197 2.734,1.29 2.43,0.216 4.59,-1.584 4.833,-4.005 0.194,-0.865 0.198,-1.676 0.185,-2.045 l 0.018,-0.194 c 0.28,0.185 3.444,2.142 6.43,-1.894 3.127,-4.226 1.934,-17.42 1.934,-17.42 4.217,-14.54 0.488,-21.875 0.488,-21.875 l -0.067,-10.513 -26.192,-2.176 c 0,0 -0.373,8.027 -6.02,13.006 -5.644,4.98 -11.07,11.43 -12.82,17.328 -1.75,5.9 -5.682,12.983 -5.682,12.983 0,0 0.84,2.4 6.3,1.208 m -113.25,-36.037 5.224,8.005 1.436,29.274 c 0.152,3.09 1.606,5.974 4.003,7.934 l 15.082,13.367 c 2.216,1.814 5.51,1.326 7.107,-1.05 1.263,-1.88 1.06,-4.38 -0.488,-6.032 l -12.283,-12.852 c -1.583,-1.687 -2.59,-3.833 -2.876,-6.13 l -0.683,-5.457 c -0.23,-1.846 2.15,-2.784 3.24,-1.276 0.1,0.14 0.222,0.265 0.36,0.37 l 11.2,8.62 c 1.446,1.112 3.485,1.03 4.84,-0.198 1.306,-1.186 1.617,-3.118 0.75,-4.655 l -7.95,-14.062 c -0.13,-0.23 -0.21,-0.485 -0.23,-0.75 l -0.763,-10.11 c -0.025,-0.33 -0.14,-0.647 -0.336,-0.917 l -12.486,-17.27 -15.145,13.19" />
  <path
     style="fill:#303b3d"
     id="path4565"
     d="m 482.66217,249.764 35.15,-15.885 c -14.72,-32.58 -21.614,-67.07 -20.54,-102.687 l -38.413,-6.178 c -1.62,34.134 2.693,78.038 23.803,124.75 m 169.068,-2.362 -35.965,-13.947 c 12.923,-33.332 17.927,-68.15 14.916,-103.655 l 38.017,-8.26 c 3.48,33.994 1.565,78.068 -16.967,125.862" />
  <path
     style="fill:#303b3d"
     id="path4567"
     d="m 458.61917,131.354 c 0,0 37.592,25.373 105.243,24.4 67.65,0.973 105.243,-24.4 105.243,-24.4 0,-43.07 -11.62,-73.148 -105.243,-75.542 -93.624,2.394 -105.243,32.472 -105.243,75.542" />
  <path
     style="fill:#ffffff"
     id="path4569"
     d="M 551.06717,155.624 V 93.206 h 22.18 v 62.508 c 6.406,-0.14 12.52,-0.507 18.324,-1.063 V 57.556 c -8.33,-0.895 -17.533,-1.483 -27.71,-1.744 -12.067,0.31 -22.762,1.08 -32.254,2.277 v 96.086 c 6.128,0.707 12.62,1.21 19.46,1.45" />
  <path
     style="fill:#da2935"
     id="path4571"
     d="m 551.06717,93.205 v 62.42 c 4.138,0.144 8.402,0.193 12.795,0.13 3.2,0.045 6.322,0.027 9.386,-0.04 v -62.51 h -22.18" />
  <path
     style="fill:#fcce7e"
     id="path4573"
     d="m 511.22017,91.693 c 0,-29.074 23.568,-52.643 52.642,-52.643 29.073,0 52.64,23.57 52.64,52.643 0,29.074 -23.567,52.642 -52.64,52.642 -29.074,0 -52.642,-23.568 -52.642,-52.642" />
  <path
     style="fill:#fcce7e"
     id="path4575"
     d="m 599.30517,93.205 c 0,-9.926 6.175,-17.972 13.792,-17.972 7.618,0 13.793,8.046 13.793,17.973 0,9.926 -6.175,17.973 -13.793,17.973 -7.617,0 -13.792,-8.046 -13.792,-17.973 m -95.284,-0.001 c 0,-9.926 6.175,-17.972 13.792,-17.972 7.618,0 13.794,8.046 13.794,17.973 0,9.926 -6.176,17.973 -13.794,17.973 -7.617,0 -13.792,-8.046 -13.792,-17.973" />
  <path
     style="fill:#b1963c"
     id="path4577"
     d="m 511.22017,84.858 c 0,-29.026 23.568,-52.558 52.642,-52.558 29.073,0 52.64,23.532 52.64,52.558 0,29.027 -23.567,52.56 -52.64,52.56 -29.074,0 -52.642,-23.533 -52.642,-52.56" />
  <path
     style="fill:#bc9d47"
     id="path4579"
     d="m 525.80717,73.67 c 0,-19.12 17.037,-34.62 38.055,-34.62 21.017,0 38.055,15.5 38.055,34.62 0,19.12 -17.038,34.62 -38.055,34.62 -21.017,0 -38.056,-15.5 -38.056,-34.62" />
  <g
     id="todo_note">
    <path
       d="m 503.83517,906.358 h 123.72 v -166.49 h -123.718 v 166.49 z"
       id="path4581"
       style="fill:#996541" />
    <path
       d="m 516.33517,893.858 h 98.72 v -141.49 h -98.72 z"
       id="path4583"
       style="fill:#f5e2d5" />
    <path
       d="m 534.35017,754.668 h 62.716 v -20.06 h -62.717 v 20.063 z m -11.153,25.906 h 79.67 v -4.593 h -79.67 z m 0,18.134 h 79.67 v -4.595 h -79.67 v 4.594 z m 0,18.132 h 79.67 v -4.593 h -79.67 v 4.592 z m 0,18.133 h 79.67 v -4.592 h -79.67 z m 0,18.135 h 61.258 v -4.595 h -61.26 v 4.594 z"
       id="path4585"
       style="fill:#837871" />
  </g>
  <path
     style="fill:#5f5048"
     id="path4587"
     d="m 446.47117,400.612 -136.734,-94.994 -70.59,101.606 136.732,94.994 70.592,-101.606" />
  <path
     style="fill:#e9d4c6"
     id="path4589"
     d="m 312.87117,323.016 116.202,80.73 -56.327,81.075 -116.203,-80.73 56.327,-81.075" />
  <path
     style="fill:#837871"
     id="path4591"
     d="m 381.11717,468.733 35.785,-51.506 16.48,11.447 -35.785,51.506 -16.48,-11.448 m -24.583,-10.017 45.458,-65.428 3.772,2.62 -45.456,65.43 -3.772,-2.623 m -14.893,-10.346 45.458,-65.427 3.772,2.62 -45.457,65.43 -3.774,-2.622 m -14.891,-10.346 45.457,-65.43 3.774,2.623 -45.456,65.428 -3.774,-2.62 m -14.892,-10.346 45.456,-65.43 3.772,2.62 -45.457,65.43 -3.773,-2.62 m 34.339,-73.155 -3.772,-2.62 -34.953,50.31 3.772,2.62 34.953,-50.31" />
  <path
     style="fill:#f5e8de"
     id="path4593"
     d="m 333.42717,394.098 73.265,121.048 -84.456,51.117 -73.265,-121.047 84.456,-51.118" />
  <path
     style="fill:#837871"
     id="path4595"
     d="m 318.05717,535.818 68.16,-41.25 2.378,3.93 -68.158,41.25 -2.38,-3.93 m -9.388,-15.51 68.158,-41.254 2.38,3.93 -68.16,41.253 -2.378,-3.93 m -9.39,-15.514 68.16,-41.252 2.377,3.93 -68.16,41.252 -2.377,-3.93 m -9.388,-15.512 68.157,-41.253 2.38,3.93 -68.157,41.253 -2.38,-3.93 m 61.146,-52.837 -2.377,-3.93 -52.41,31.72 2.38,3.93 52.408,-31.72" />
  <g
     id="note_color">
    <path
       d="m 861.46317,479.428 73.265,121.05 -84.455,51.116 -73.265,-121.05 84.456,-51.116"
       id="path4597"
       style="fill:#f5e8de" />
    <path
       d="m 815.93217,539.166 -13.47,8.765 -5.635,-8.66 13.47,-8.764 5.635,8.657"
       id="path4599"
       style="fill:#d03643" />
    <path
       d="m 833.92217,569.345 -13.47,8.767 -5.635,-8.66 13.47,-8.765 5.635,8.657"
       id="path4601"
       style="fill:#5dc4cd" />
    <path
       d="m 843.71417,589.043 -13.47,8.766 5.634,8.66 13.47,-8.766 -5.633,-8.66 m 35.094,12.565 -13.47,8.765 5.634,8.66 13.47,-8.766 -5.634,-8.66"
       id="path4603"
       style="fill:#d03643" />
    <path
       d="m 902.42217,587.514 -13.47,8.767 5.634,8.658 13.47,-8.765 -5.635,-8.66 m -57.544,-57.006 -13.47,8.764 5.634,8.658 13.47,-8.765 -5.634,-8.657"
       id="path4605"
       style="fill:#ecaf2a" />
    <path
       d="m 880.57717,556.798 -13.47,8.766 5.634,8.66 13.47,-8.766 -5.634,-8.66"
       id="path4607"
       style="fill:#5dc4cd" />
  </g>
  <g
     id="stats_paper">
    <path
       d="m 417.06717,638.194 4.18,141.43 -98.68,2.918 -4.18,-141.432 98.68,-2.916"
       id="textReport"
       style="fill:#f5e8de" />
    <path
       d="m 344.01717,657.378 c -7.38,2.688 -12.66,9.745 -12.66,18.052 0,2.304 0.426,4.503 1.17,6.55 l 18.06,-6.55 -6.57,-18.052"
       id="path4611"
       style="fill:#ef3446" />
    <path
       d="m 362.84017,656.353 -6.197,18.606 v 18.815 c 10.62,0 19.23,-8.61 19.23,-19.23 0,-8.45 -5.457,-15.61 -13.033,-18.19"
       id="path4613"
       style="fill:#f8a10e" />
    <path
       d="m 357.52417,653.283 c -1.947,-0.664 -4.026,-1.04 -6.197,-1.04 -2.31,0 -4.518,0.43 -6.57,1.176 l 7.124,17.698 5.644,-17.833"
       id="path4615"
       style="fill:#85d7e6" />
    <path
       d="m 332.52717,684.912 c 2.68,7.39 9.742,12.68 18.06,12.68 v -19.23 l -18.06,6.55"
       id="path4617"
       style="fill:#3ead4f" />
    <path
       d="m 349.85217,715.938 -12.592,0.5 -0.23,-5.81 12.592,-0.5 0.23,5.81"
       id="path4619"
       style="fill:#ef3446" />
    <path
       d="m 350.71017,736.712 -12.593,0.497 -0.23,-5.81 12.592,-0.496 0.23,5.81"
       id="path4621"
       style="fill:#85d7e6" />
    <path
       d="m 351.55317,756.162 -12.592,0.498 -0.23,-5.81 12.592,-0.498 0.23,5.81"
       id="path4623"
       style="fill:#3ead4f" />
    <path
       d="m 352.00117,773.674 -12.593,0.5 -0.23,-5.81 12.594,-0.5 0.23,5.81"
       id="path4625"
       style="fill:#f8a10e" />
    <path
       d="m 403.39717,709.396 -43.518,1.468 0.064,1.885 43.517,-1.467 -0.064,-1.885 m 1.465,21.114 -43.518,1.468 0.064,1.888 43.517,-1.47 -0.063,-1.885 m -1.464,19.84 -43.518,1.468 0.064,1.885 43.517,-1.468 -0.064,-1.886 m 0.001,17.513 -43.518,1.47 0.064,1.885 43.517,-1.467 -0.064,-1.887"
       id="path4627"
       style="fill:#6f9897" />
  </g>
  <path
     style="fill:#273246"
     id="path4637"
     d="m 534.10717,831.364 -5.96,-0.735 -49.315,23.513 c -1.61,0.768 -2.292,2.695 -1.525,4.305 0.767,1.61 2.695,2.292 4.305,1.525 l 49.314,-23.512 3.18,-5.094" />
  <g
     id="human">
    <path
       d="m 640.85717,871.338 -5.226,-8.003 -1.436,-29.275 c -0.152,-3.09 -1.605,-5.975 -4.002,-7.933 l -15.083,-13.37 c -2.215,-1.81 -5.51,-1.325 -7.107,1.05 -1.264,1.88 -1.06,4.384 0.49,6.035 l 12.28,12.85 c 1.584,1.69 2.59,3.834 2.88,6.13 l 0.682,5.457 c 0.23,1.845 -2.15,2.783 -3.24,1.277 -0.1,-0.143 -0.223,-0.268 -0.36,-0.373 l -11.198,-8.617 c -1.45,-1.114 -3.486,-1.032 -4.84,0.195 -1.308,1.186 -1.62,3.12 -0.75,4.656 l 7.95,14.064 c 0.13,0.23 0.206,0.486 0.226,0.748 l 0.765,10.11 c 0.026,0.332 0.142,0.65 0.336,0.918 l 12.488,17.273 15.145,-13.193"
       id="path4629"
       style="fill:#fcce7e" />
    <path
       d="m 646.01117,861.944 -35.154,15.884 c 14.724,32.58 21.616,67.074 20.544,102.69 l 38.41,6.176 c 1.62,-34.132 -2.692,-78.037 -23.8,-124.75"
       id="path4631"
       style="fill:#5cc8d7" />
    <path
       d="m 482.40217,873.262 -3.42,-29.356 c 0,0 11.29,-20.712 16.21,-20.793 4.915,-0.08 7.23,8.297 16.96,7.664 9.73,-0.635 5.674,5.674 -0.923,7.108 -5.18,1.126 -10.12,-0.844 -12.003,-1.743 -0.446,-0.21 -0.975,-0.006 -1.17,0.446 l -4.458,10.335 c -0.063,0.15 -0.086,0.304 -0.063,0.464 0.214,1.484 1.202,4.268 7.182,8.078 0,0 8.644,1.082 12.732,-9.822 1.98,-5.285 7.418,-4.08 6.065,3.123 -1.356,7.2 -4.07,9.744 -4.07,9.744 l -13.502,18.4 -19.543,-3.65"
       id="path4633"
       style="fill:#fcce7e" />
    <path
       d="m 476.94217,864.306 35.966,13.946 c -12.924,33.332 -17.927,68.15 -14.915,103.655 l -38.017,8.26 c -3.48,-33.994 -1.565,-78.068 16.967,-125.863"
       id="path4635"
       style="fill:#5cc8d7" />
    <path
       d="m 670.05317,980.353 c 0,0 -37.592,-21.546 -105.242,-20.574 -67.65,-0.97 -105.243,20.575 -105.243,20.575 0,43.07 11.62,73.15 105.244,75.543 93.622,-2.393 105.242,-32.473 105.242,-75.543"
       id="path4639"
       style="fill:#5cc8d7" />
    <path
       d="m 617.45317,1016.638 c 0,29.075 -23.568,52.643 -52.642,52.643 -29.074,0 -52.643,-23.568 -52.643,-52.642 0,-29.07 23.57,-52.64 52.644,-52.64 29.073,0 52.642,23.57 52.642,52.64"
       id="path4641"
       style="fill:#fcce7e" />
    <path
       d="m 529.36717,1015.128 c 0,9.925 -6.174,17.97 -13.793,17.97 -7.617,0 -13.792,-8.045 -13.792,-17.97 0,-9.927 6.175,-17.974 13.792,-17.974 7.62,0 13.794,8.047 13.794,17.973 m 95.284,0 c 0,9.925 -6.176,17.97 -13.794,17.97 -7.616,0 -13.79,-8.045 -13.79,-17.97 0,-9.927 6.174,-17.974 13.79,-17.974 7.62,0 13.795,8.047 13.795,17.973"
       id="path4643"
       style="fill:#fcce7e" />
    <path
       d="m 617.45317,1023.474 c 0,29.028 -23.568,52.56 -52.642,52.56 -29.074,0 -52.643,-23.532 -52.643,-52.56 0,-29.027 23.57,-52.558 52.644,-52.558 29.073,0 52.642,23.53 52.642,52.558"
       id="path4645"
       style="fill:#7b3321" />
    <path
       d="m 602.86717,1034.662 c 0,19.12 -17.04,34.62 -38.056,34.62 -21.018,0 -38.055,-15.5 -38.055,-34.62 0,-19.12 17.036,-34.62 38.054,-34.62 21.017,0 38.055,15.5 38.055,34.62"
       id="path4647"
       style="fill:#853626" />
  </g>
  <path
     style="fill:#fcce7e"
     id="path4649"
     d="m 333.54917,305.248 23.177,18.34 c 0,0 6.66,22.628 3.24,26.163 -3.42,3.533 -10.98,-0.755 -17.413,6.575 -6.432,7.328 -8.025,-0.002 -4.373,-5.68 2.867,-4.46 7.753,-6.56 9.718,-7.255 0.465,-0.165 0.694,-0.685 0.513,-1.143 l -4.156,-10.46 c -0.06,-0.15 -0.154,-0.275 -0.284,-0.37 -1.2,-0.9 -3.87,-2.17 -10.79,-0.635 0,0 -6.88,5.346 -2.058,15.947 2.336,5.138 -2.362,8.13 -6.498,2.08 -4.135,-6.05 -4.014,-9.767 -4.014,-9.767 l -3.462,-22.558 16.4,-11.238" />
  <path
     style="fill:#273246"
     id="path4651"
     d="m 326.61517,371.433 4.735,-3.694 18.245,-51.495 c 0.596,-1.68 -0.284,-3.528 -1.965,-4.123 -1.682,-0.596 -3.527,0.284 -4.123,1.965 l -18.245,51.498 1.353,5.85" />
  <path
     style="fill:#fcce7e"
     id="path4653"
     d="m 304.77117,411.738 c -2.35,2.89 -11.11,3.656 -16.734,3.844 -1.12,0.037 -1.414,1.524 -0.388,1.962 6.367,2.72 17.628,7.574 21.274,9.383 3.976,1.972 2.29,5.564 1.353,7.54 1.3,1.2 1.81,3.093 1.13,4.816 l -0.37,0.944 c -0.868,2.196 -3.355,3.322 -5.628,2.624 0.33,0.95 0.355,2 -0.04,3.002 -0.892,2.264 -3.508,3.408 -5.837,2.568 -0.88,-0.203 -1.624,-0.554 -1.956,-0.725 l -0.186,-0.07 c 0.043,0.33 0.42,4.007 -4.618,4.914 -5.275,0.95 -16.835,-5.873 -16.835,-5.873 -15.214,-2.575 -20.27,-9.104 -20.27,-9.104 l -9.607,-4.647 9.736,-24.335 c 0,0 7.524,3.17 14.616,0.3 7.093,-2.87 15.434,-4.9 21.627,-3.888 6.19,1.012 14.445,0.59 14.445,0.59 0,0 1.825,1.797 -1.714,6.152" />
  <path
     style="fill:#f1b623"
     id="path4655"
     d="m 242.37417,442.453 2.132,-38.535 c -30.63,-5.372 -59.38,-16.382 -85.74,-32.874 l -25.58,29.562 c 26.646,17.31 63.148,34.568 109.188,41.847" />
  <path
     style="fill:#f8e3aa"
     id="path4657"
     d="m 254.80117,444.151 4.57,-38.072 c -5.004,-0.57 -9.956,-1.3 -14.865,-2.16 l -2.133,38.535 c 4.07,0.643 8.207,1.216 12.427,1.698" />
  <path
     style="fill:#f1b623"
     id="path4659"
     d="m 333.68517,289.514 c -30.227,-34.652 -64.298,-56.17 -93.314,-69.436 l -12.745,36.61 c 28.034,13.4 52.506,31.59 73.03,54.24 l 33.027,-21.414" />
  <path
     style="fill:#f8e3aa"
     id="path4661"
     d="m 310.45217,322.424 31.09,-23.502 c -2.585,-3.243 -5.207,-6.37 -7.857,-9.408 l -33.03,21.413 c 3.37,3.715 6.643,7.54 9.797,11.496" />
  <path
     style="fill:#f1b623"
     id="path4663"
     d="m 138.60717,404.054 c 0,0 38.59,-21 73.275,-79.125 36.386,-57.13 37.286,-100.174 37.286,-100.174 -37.67,-22.034 -70.08,-27.525 -121.35,51.003 h -0.002 c -47.083999,80.976 -26.88,106.263 10.79,128.296" />
  <path
     style="fill:#f1b623"
     id="path4665"
     d="m 243.68217,251.868 c 0,0 19.78,69.276 -31.8,73.06 l -25.082,-31.454 56.882,-41.606" />
  <path
     style="fill:#f1b623"
     id="path4667"
     d="m 161.07217,385.835 c 0,0 72.084,-15.543 51.28,-61.667 l -40.296,-6.785 -10.985,68.452" />
  <path
     style="fill:#fcce7e"
     id="path4669"
     d="m 134.49717,340.683 c -25.427,-14.874 -33.66,-47.008 -18.39,-71.774 15.27,-24.765 48.265,-32.784 73.695,-17.91 25.43,14.872 33.663,47.007 18.39,71.774 -15.27,24.766 -48.265,32.785 -73.694,17.91" />
  <path
     style="fill:#fcce7e"
     id="path4671"
     d="m 182.09117,266.423 c -8.683,-5.08 -12.476,-14.455 -8.475,-20.945 4,-6.49 14.28,-7.633 22.964,-2.554 8.68,5.078 12.476,14.455 8.475,20.944 -4.004,6.49 -14.285,7.633 -22.966,2.555 m -50.048,81.165 c -8.683,-5.076 -12.476,-14.454 -8.475,-20.943 4,-6.488 14.28,-7.632 22.964,-2.555 8.68,5.08 12.476,14.455 8.473,20.944 -4,6.49 -14.282,7.634 -22.963,2.555" />
  <path
     style="fill:#6c3d33"
     id="path4673"
     d="m 128.52117,337.188 c -25.39,-14.85 -33.589999,-46.966 -18.32,-71.732 15.273,-24.767 48.235,-32.804 73.623,-17.954 25.388,14.85 33.59,46.965 18.318,71.73 -15.27,24.766 -48.233,32.805 -73.62,17.955" />
  <path
     style="fill:#6c3d33"
     id="path4675"
     d="m 136.41717,343.334 c -25.035,-14.644 -37.219999,-39.67 -27.21,-55.9 10.006,-16.23 38.415,-17.516 63.453,-2.87 25.036,14.643 37.22,39.67 27.212,55.9 -10.008,16.23 -38.416,17.515 -63.454,2.87" />
  <path
     style="fill:#6c3d33"
     id="path4677"
     d="m 158.60117,307.362 c -25.036,-14.644 -37.596,-39.063 -28.053,-54.54 9.546,-15.48 37.58,-16.154 62.616,-1.51 25.036,14.645 37.596,39.064 28.05,54.54 -9.542,15.478 -37.576,16.155 -62.612,1.51" />
  <path
     style="fill:#6c3d33"
     id="path4679"
     d="m 90.497171,283.348 c -14.03,-8.204 -19.22,-24.876 -11.6,-37.24 7.625,-12.36 25.175999,-15.73 39.203999,-7.525 14.03,8.206 19.22,24.88 11.6,37.24 -7.624,12.362 -25.177,15.73 -39.203999,7.526" />
  <path
     style="fill:#5cbadc"
     id="path4681"
     d="m 96.951171,288.72 27.853999,-45.17 c 1.14,-1.852 3.612,-2.468 5.49,-1.37 l 1.398,0.818 c 1.968,1.15 2.598,3.68 1.4,5.62 l -27.852,45.17 c -1.14,1.85 -3.61,2.467 -5.489999,1.37 l -1.398,-0.82 c -1.967,-1.15 -2.598,-3.68 -1.402,-5.618" />
  <path
     style="fill:#79443d"
     id="path4683"
     d="m 125.45717,314.108 c -12.802,-10.213 -12.06,-31.72 1.66,-48.035 13.718,-16.316 35.22,-21.265 48.024,-11.054 12.804,10.214 12.06,31.72 -1.658,48.036 -13.72,16.317 -35.22,21.265 -48.025,11.054" />
  <path
     style="fill:#99a09e"
     id="path4685"
     d="m 931.20717,676.148 -73.977,111.693 c -4.556,6.877 -13.91,8.778 -20.79,4.222 l -63.447,-42.025 c -6.877,-4.555 -8.777,-13.91 -4.222,-20.79 l 73.978,-111.69 c 4.557,-6.877 13.912,-8.777 20.79,-4.22 l 63.447,42.022 c 6.877,4.557 8.777,13.912 4.22,20.79" />
  <path
     style="fill:#99a09e"
     id="path4687"
     d="m 796.28917,585.153 -75.786,114.42 c -3.407,5.144 -1.986,12.14 3.158,15.547 l 32.077,21.247 c 5.145,3.406 12.14,1.985 15.55,-3.16 l 75.784,-114.42 c 3.407,-5.142 1.986,-12.14 -3.158,-15.546 l -32.076,-21.247 c -5.145,-3.407 -12.14,-1.986 -15.548,3.158" />
  <path
     style="fill:#777886"
     id="path4689"
     d="m 798.24317,588.974 -73.458,110.908 c -3.303,4.986 -2.055,11.682 2.773,14.88 l 30.11,19.942 c 4.826,3.198 11.48,1.734 14.78,-3.25 l 73.46,-110.91 c 3.304,-4.985 2.055,-11.68 -2.772,-14.88 l -30.108,-19.94 c -4.83,-3.2 -11.48,-1.736 -14.784,3.25" />
  <path
     style="fill:#ffffff"
     id="path4691"
     d="m 798.95717,594.668 -68.654,103.65 c -3.086,4.66 -1.918,10.92 2.594,13.91 l 28.137,18.636 c 4.513,2.99 10.73,1.622 13.817,-3.038 l 68.655,-103.654 c 3.085,-4.66 1.92,-10.918 -2.594,-13.906 l -28.138,-18.638 c -4.513,-2.99 -10.73,-1.62 -13.817,3.04" />
  <path
     style="fill:#273246"
     id="path4693"
     d="m 788.87317,736.734 -5.786,8.736 -9.233,-6.115 5.787,-8.736 9.232,6.116 m 10.364,-15.647 -5.788,8.736 -9.23,-6.115 5.785,-8.735 9.232,6.115 m 10.363,-15.647 -5.786,8.736 -9.232,-6.115 5.787,-8.736 9.232,6.114 m 10.362,-15.645 -5.786,8.736 -9.233,-6.114 5.787,-8.736 9.23,6.114 m 10.367,-15.648 -5.788,8.738 -9.232,-6.114 5.787,-8.736 9.232,6.113 m 10.361,-15.646 -5.785,8.736 -9.23,-6.112 5.785,-8.737 9.23,6.115 m 10.365,-15.647 -5.786,8.736 -9.234,-6.115 5.788,-8.735 9.23,6.115 m 10.364,-15.647 -5.786,8.736 -9.23,-6.115 5.786,-8.736 9.23,6.114 m -59.291,118.297 -5.787,8.738 -9.233,-6.114 5.787,-8.736 9.232,6.113 m 10.365,-15.645 -5.788,8.737 -9.23,-6.115 5.785,-8.737 9.232,6.116 m 10.363,-15.647 -5.787,8.736 -9.23,-6.115 5.785,-8.735 9.232,6.115 m 10.363,-15.647 -5.786,8.736 -9.233,-6.115 5.787,-8.736 9.23,6.114 m 10.367,-15.645 -5.788,8.736 -9.232,-6.115 5.786,-8.736 9.233,6.114 m 10.361,-15.647 -5.785,8.738 -9.23,-6.114 5.785,-8.736 9.23,6.113 m 10.365,-15.645 -5.786,8.735 -9.234,-6.112 5.786,-8.737 9.233,6.116 m -48.928,102.649 -5.787,8.737 -9.233,-6.114 5.787,-8.736 9.232,6.113 m 10.365,-15.647 -5.788,8.738 -9.23,-6.114 5.785,-8.736 9.232,6.113 m 10.363,-15.645 -5.787,8.736 -9.23,-6.115 5.785,-8.736 9.232,6.116 m 10.363,-15.647 -5.786,8.736 -9.233,-6.115 5.787,-8.735 9.23,6.115 m 10.367,-15.647 -5.79,8.736 -9.23,-6.115 5.786,-8.736 9.233,6.114 m 10.361,-15.645 -5.785,8.736 -9.23,-6.114 5.785,-8.737 9.23,6.115 m -38.565,87.006 -5.786,8.736 -9.233,-6.115 5.787,-8.736 9.23,6.114 m 10.367,-15.645 -5.788,8.736 -9.23,-6.114 5.785,-8.736 9.232,6.114 m 10.361,-15.648 -5.785,8.738 -9.23,-6.114 5.785,-8.736 9.23,6.113 m 10.365,-15.645 -5.786,8.737 -9.233,-6.115 5.787,-8.737 9.23,6.116 m 10.367,-15.647 -5.79,8.736 -9.23,-6.115 5.786,-8.735 9.233,6.115 m 10.361,-15.647 -5.785,8.736 -9.23,-6.115 5.785,-8.736 9.23,6.114 m 10.365,-15.645 -5.787,8.736 -9.232,-6.115 5.787,-8.736 9.232,6.114 m 10.362,-15.647 -5.786,8.738 -9.23,-6.114 5.786,-8.736 9.23,6.113 m -59.292,118.299 -5.786,8.736 -9.233,-6.115 5.787,-8.735 9.23,6.115 m 10.367,-15.647 -5.788,8.736 -9.232,-6.115 5.787,-8.735 9.232,6.114 m 51.815,-78.23 -5.787,8.736 -9.23,-6.115 5.785,-8.736 9.232,6.114 m 10.363,-15.645 -5.786,8.736 -9.23,-6.114 5.786,-8.737 9.23,6.115 m -19.365,31.072 -38.388,57.96 -9.815,-6.5 38.387,-57.96 9.815,6.5 m -6.821,-48.418 -16.15,24.383 -9.544,-6.32 16.15,-24.384 9.544,6.323" />
  <path
     style="fill:#273246"
     id="path4695"
     d="m 888.22717,644.97 -5.786,8.737 -22.794,-15.1 5.786,-8.735 22.794,15.098" />
  <path
     style="fill:#fcce7e"
     id="path4697"
     d="m 817.78717,714.418 c -1.77,3.26 0.896,11.46 2.89,16.6 0.396,1.026 -0.865,1.88 -1.666,1.128 -4.973,-4.662 -13.802,-12.89 -16.882,-15.46 -3.358,-2.803 -6.03,0.138 -7.497,1.765 -1.61,-0.698 -3.56,-0.41 -4.894,0.886 l -0.73,0.707 c -1.696,1.65 -1.78,4.337 -0.26,6.11 -1.002,0.077 -1.987,0.47 -2.76,1.222 -1.752,1.7 -1.8,4.51 -0.13,6.276 0.53,0.712 1.14,1.244 1.428,1.477 l 0.135,0.138 c -0.322,0.093 -3.872,1.21 -2.768,6.108 1.155,5.128 11.92,12.848 11.92,12.848 8.25,12.693 16.238,14.665 16.238,14.665 l 8.003,6.82 18.764,-18.4 c 0,0 -5.83,-5.53 -5.91,-13.055 -0.08,-7.527 -1.414,-15.85 -4.736,-21.03 -3.32,-5.18 -6.113,-12.785 -6.113,-12.785 0,0 -2.365,-0.932 -5.03,3.98 m 35.798,-49.526 c 2.54,-2.704 11.16,-2.743 16.67,-2.463 1.098,0.056 1.51,-1.41 0.546,-1.934 -5.983,-3.26 -16.566,-9.062 -19.972,-11.18 -3.715,-2.31 -1.76,-5.77 -0.677,-7.673 -1.167,-1.313 -1.505,-3.254 -0.693,-4.925 l 0.443,-0.917 c 1.034,-2.127 3.56,-3.05 5.72,-2.16 -0.24,-0.98 -0.177,-2.036 0.296,-3.007 1.063,-2.195 3.718,-3.124 5.92,-2.09 0.84,0.278 1.538,0.69 1.848,0.89 l 0.176,0.086 c -0.015,-0.335 -0.068,-4.056 4.93,-4.545 5.233,-0.51 15.94,7.29 15.94,7.29 14.638,3.853 19.017,10.82 19.017,10.82 l 8.986,5.46 -11.59,23.59 c 0,0 -7.08,-3.805 -14.25,-1.52 -7.172,2.287 -15.492,3.63 -21.452,2.1 -5.962,-1.53 -14.06,-1.796 -14.06,-1.796 0,0 -1.627,-1.955 2.2,-6.026" />
  <path
     style="fill:#d03643"
     id="path4699"
     d="m 917.15017,639.288 -5.377,38.462 c 29.455,7.938 56.592,21.372 80.93,40.104 l 27.50003,-27.51 C 995.66517,670.764 961.49017,650.42 917.15017,639.288" />
  <path
     style="fill:#fabac4"
     id="path4701"
     d="m 905.16017,636.551 -7.72,37.795 c 4.838,0.987 9.613,2.132 14.333,3.405 l 5.377,-38.463 c -3.92,-0.985 -7.91,-1.904 -11.99,-2.737" />
  <path
     style="fill:#d03643"
     id="path4703"
     d="m 814.89717,785.041 c 26.558,37.265 57.993,61.68 85.195,77.397 l 15.578,-35.65 c -26.234,-15.77 -48.578,-36.05 -66.684,-60.466 l -34.09,18.72" />
  <path
     style="fill:#fabac4"
     id="path4705"
     d="m 840.40117,753.975 -32.37,20.978 c 2.245,3.467 4.54,6.82 6.867,10.087 l 34.09,-18.718 c -2.974,-4.01 -5.844,-8.117 -8.586,-12.347" />
  <path
     style="fill:#d03643"
     id="path4707"
     d="m 1015.2022,686.433 c 0,0 -39.47503,17.844 -78.32303,73.24 -40.418,54.255 -44.978,97.345 -44.978,97.345 34.905,25.23 66.09,33.435 122.87603,-41.038 52.913,-77.278 35.338,-104.316 0.425,-129.547" />
  <path
     style="fill:#d03643"
     id="path4709"
     d="m 899.57717,830.288 c 0,0 -13.394,-71.115 37.303,-70.616 l 21.81,33.63 -59.113,36.985" />
  <path
     style="fill:#d03643"
     id="path4711"
     d="m 991.71417,702.83 c 0,0 -71.73,9.584 -55.358,57.567 l 38.77,10.16 16.587,-67.728" />
  <path
     style="fill:#fcce7e"
     id="path4713"
     d="m 1013.8022,750.318 c 23.563,17.034 28.85,49.94 11.825,73.504 -17.038,23.562 -49.93803,28.856 -73.50003,11.824 -23.566,-17.032 -28.86,-49.94 -11.83,-73.503 17.03,-23.56 49.943,-28.855 73.50503,-11.824" />
  <path
     style="fill:#fcce7e"
     id="path4715"
     d="m 960.97717,820.821 c 8.037,5.815 10.95,15.533 6.487,21.707 -4.475,6.174 -14.612,6.464 -22.652,0.65 -8.045,-5.816 -10.95,-15.535 -6.486,-21.71 4.462,-6.173 14.6,-6.463 22.65,-0.648 m 55.81303,-77.222 c 8.05,5.816 10.95,15.535 6.488,21.71 -4.463,6.172 -14.6,6.462 -22.65,0.647 -8.03803,-5.815 -10.93803,-15.533 -6.47503,-21.707 4.463,-6.174 14.60003,-6.464 22.63703,-0.65" />
  <path
     style="fill:#4f4340"
     id="path4717"
     d="m 1019.3392,754.323 c 23.525,17.005 28.788,49.89 11.763,73.454 -17.038,23.56 -49.91303,28.876 -73.43803,11.87 -23.527,-17.004 -28.79,-49.89 -11.758,-73.452 17.032,-23.562 49.907,-28.878 73.43203,-11.873" />
  <path
     style="fill:#4f4340"
     id="path4719"
     d="m 1012.1522,747.501 c 23.2,16.77 32.962,42.88 21.8,58.32 -11.163,15.442 -39.02503,14.365 -62.21303,-2.405 -23.205,-16.77 -32.963,-42.88 -21.802,-58.322 11.165,-15.44 39.015,-14.362 62.21503,2.407" />
  <path
     style="fill:#4f4340"
     id="path4721"
     d="m 987.41417,781.725 c 23.20003,16.77 33.37503,42.302 22.72503,57.027 -10.63703,14.725 -38.07503,13.068 -61.27203,-3.702 -23.2,-16.768 -33.376,-42.3 -22.733,-57.026 10.644,-14.725 38.08,-13.068 61.28,3.702" />
  <path
     style="fill:#4f4340"
     id="path4723"
     d="m 1051.8772,811.474 c 12.988,9.396 16.637,26.548 8.137,38.31 -8.5,11.76 -25.937,13.677 -38.924,4.28 -13,-9.395 -16.65,-26.546 -8.15,-38.307 8.5,-11.763 25.937,-13.68 38.937,-4.284" />
  <path
     style="fill:#5cbadc"
     id="path4725"
     d="m 1046.0772,805.478 -31.063,42.97 c -1.3,1.805 -3.837,2.215 -5.65,0.91 l -1.212,-0.876 c -1.8,-1.304 -2.212,-3.848 -0.912,-5.65 l 31.062,-42.974 c 1.313,-1.804 3.85,-2.214 5.662,-0.91 l 1.213,0.878 c 1.8,1.303 2.212,3.847 0.9,5.652" />
  <path
     style="fill:#ee264c"
     id="path4727"
     d="m 728.57717,455.688 h 18.877 v -101.71 h -18.877 z" />
  <path
     style="fill:#f9b1cd"
     id="path4729"
     d="m 738.01717,359.308 h 9.437 v -2.206 h -9.438 v 2.205 z m 0,7.473 h 9.437 v -2.206 h -9.438 v 2.206 z m 0,7.474 h 9.437 v -2.205 h -9.438 v 2.205 z m 0,7.473 h 9.437 v -2.204 h -9.438 v 2.205 z m 0,7.475 h 9.437 v -2.205 h -9.438 v 2.205 z m 0,7.475 h 9.437 v -2.205 h -9.438 v 2.204 z m 0,7.474 h 9.437 v -2.205 h -9.438 v 2.204 z m 0,7.473 h 9.437 v -2.205 h -9.438 v 2.205 z m 0,7.473 h 9.437 v -2.204 h -9.438 v 2.205 z m 0,7.476 h 9.437 v -2.205 h -9.438 v 2.206 z m 0,7.474 h 9.437 v -2.205 h -9.438 v 2.205 z m 0,7.474 h 9.437 v -2.205 h -9.438 v 2.204 z m 0,7.473 h 9.437 v -2.203 h -9.438 v 2.203 z" />
  <path
     style="fill:#4cbe5e"
     id="path4731"
     d="m 701.15117,780.688 c 0,17.7 -14.348,32.046 -32.048,32.046 -17.7,0 -32.046,-14.347 -32.046,-32.047 0,-17.7 14.348,-32.047 32.046,-32.047 17.7,0 32.048,14.347 32.048,32.046" />
  <path
     style="fill:#f9f8fc"
     id="path4733"
     d="m 697.48717,778.098 c 0,15.676 -12.707,28.384 -28.384,28.384 -15.675,0 -28.382,-12.708 -28.382,-28.384 0,-15.675 12.707,-28.383 28.382,-28.383 15.676,0 28.384,12.708 28.384,28.383" />
  <path
     style="fill:#c7c6c4"
     id="path4735"
     d="m 695.16217,777.585 c 0,14.392 -11.666,26.06 -26.06,26.06 -14.39,0 -26.056,-11.668 -26.056,-26.06 0,-14.392 11.665,-26.058 26.056,-26.058 14.393,0 26.06,11.665 26.06,26.057" />
  <path
     style="fill:#a6a2a0"
     id="path4737"
     d="m 669.10517,803.644 c 12.84,0 23.503,-9.29 25.655,-21.513 -2.152,-12.224 -12.815,-21.514 -25.655,-21.514 -12.842,0 -23.505,9.29 -25.657,21.513 2.153,12.223 12.816,21.513 25.658,21.513" />
  <path
     style="fill:#7e7574"
     id="path4739"
     d="m 669.10517,763.455 c 12.337,0 22.66,8.58 25.358,20.094 0.11,-0.467 0.212,-0.94 0.297,-1.417 -2.152,-12.224 -12.815,-21.514 -25.655,-21.514 -12.842,0 -23.505,9.29 -25.657,21.512 0.086,0.478 0.188,0.95 0.298,1.42 2.697,-11.516 13.02,-20.095 25.36,-20.095" />
  <path
     style="fill:#9fdca5"
     id="path4741"
     d="m 740.68017,283.624 c 0,17.7 -14.348,32.048 -32.048,32.048 -17.7,0 -32.046,-14.348 -32.046,-32.048 0,-17.698 14.346,-32.046 32.045,-32.046 17.7,0 32.047,14.348 32.047,32.046" />
  <path
     style="fill:#f9f8fc"
     id="path4743"
     d="m 737.01717,281.036 c 0,15.676 -12.71,28.383 -28.385,28.383 -15.675,0 -28.383,-12.706 -28.383,-28.382 0,-15.675 12.708,-28.383 28.383,-28.383 15.676,0 28.384,12.708 28.384,28.383" />
  <path
     style="fill:#c7c6c4"
     id="path4745"
     d="m 734.69117,280.523 c 0,14.39 -11.666,26.06 -26.06,26.06 -14.39,0 -26.056,-11.67 -26.056,-26.06 0,-14.393 11.666,-26.06 26.057,-26.06 14.393,0 26.06,11.668 26.06,26.06" />
  <path
     style="fill:#fde5e3"
     id="tea"
     d="m 708.63217,306.582 c 12.84,0 23.504,-9.29 25.656,-21.514 -2.15,-12.224 -12.814,-21.514 -25.655,-21.514 -12.84,0 -23.504,9.29 -25.655,21.514 2.15,12.224 12.815,21.514 25.655,21.514" />
  <path
     style="fill:#a69a98"
     id="path4749"
     d="m 708.63217,266.393 c 12.34,0 22.663,8.58 25.36,20.094 0.11,-0.47 0.21,-0.943 0.296,-1.42 -2.15,-12.224 -12.814,-21.514 -25.655,-21.514 -12.84,0 -23.504,9.29 -25.655,21.514 0.085,0.477 0.186,0.95 0.296,1.42 2.698,-11.516 13.022,-20.095 25.36,-20.095" />
  <path
     style="fill:#bae4bd"
     id="path4751"
     d="m 278.53117,536.533 c 0,16.216 -13.147,29.363 -29.363,29.363 -16.215,0 -29.36,-13.147 -29.36,-29.363 0,-16.216 13.145,-29.36 29.36,-29.36 16.218,0 29.364,13.144 29.364,29.36" />
  <path
     style="fill:#f9f8fc"
     id="path4753"
     d="m 275.17317,534.161 c 0,14.362 -11.642,26.006 -26.005,26.006 -14.36,0 -26.004,-11.645 -26.004,-26.007 0,-14.362 11.643,-26.005 26.005,-26.005 14.364,0 26.006,11.643 26.006,26.005" />
  <path
     style="fill:#c7c6c4"
     id="path4755"
     d="m 273.04317,533.691 c 0,13.186 -10.688,23.876 -23.875,23.876 -13.185,0 -23.874,-10.69 -23.874,-23.877 0,-13.185 10.69,-23.875 23.875,-23.875 13.188,0 23.876,10.69 23.876,23.875" />
  <path
     style="fill:#8b6343"
     id="coffee"
     d="m 249.16717,557.568 c 11.766,0 21.536,-8.514 23.508,-19.712 -1.972,-11.2 -11.742,-19.712 -23.507,-19.712 -11.764,0 -21.534,8.513 -23.505,19.712 1.97,11.198 11.74,19.71 23.506,19.71" />
  <path
     style="fill:#c5a5a3"
     id="path4759"
     d="m 249.16717,520.744 c 11.305,0 20.764,7.86 23.236,18.412 0.1,-0.43 0.194,-0.863 0.272,-1.3 -1.972,-11.2 -11.742,-19.712 -23.507,-19.712 -11.764,0 -21.534,8.513 -23.505,19.712 0.077,0.437 0.17,0.87 0.27,1.3 2.474,-10.552 11.933,-18.412 23.236,-18.412" />
  <path
     style="fill:#dbf1d6"
     id="path4761"
     d="m 475.83217,264.528 c 0,16.218 -13.145,29.364 -29.36,29.364 -16.218,0 -29.364,-13.146 -29.364,-29.363 0,-16.214 13.148,-29.36 29.364,-29.36 16.216,0 29.36,13.146 29.36,29.36" />
  <path
     style="fill:#f9f8fc"
     id="path4763"
     d="m 472.47717,262.158 c 0,14.36 -11.645,26.005 -26.006,26.005 -14.363,0 -26.005,-11.644 -26.005,-26.005 0,-14.363 11.64,-26.005 26.004,-26.005 14.36,0 26.005,11.643 26.005,26.005" />
  <path
     style="fill:#c7c6c4"
     id="path4765"
     d="m 470.34717,261.688 c 0,13.185 -10.69,23.875 -23.876,23.875 -13.186,0 -23.876,-10.69 -23.876,-23.875 0,-13.186 10.69,-23.875 23.876,-23.875 13.185,0 23.875,10.69 23.875,23.875" />
  <path
     style="fill:#8b6343"
     id="path4767"
     d="m 446.47117,285.563 c 11.764,0 21.534,-8.51 23.505,-19.71 -1.972,-11.2 -11.742,-19.71 -23.506,-19.71 -11.765,0 -21.535,8.51 -23.506,19.71 1.97,11.2 11.74,19.71 23.506,19.71" />
  <path
     style="fill:#c5a5a3"
     id="path4769"
     d="m 446.47117,248.742 c 11.304,0 20.762,7.86 23.234,18.41 0.1,-0.43 0.195,-0.86 0.27,-1.3 -1.97,-11.2 -11.74,-19.71 -23.504,-19.71 -11.765,0 -21.535,8.51 -23.506,19.71 0.077,0.44 0.17,0.87 0.27,1.3 2.472,-10.55 11.93,-18.41 23.236,-18.41" />
  <path
     style="fill:#dbf1d6"
     id="path4771"
     d="m 416.12717,265.852 h -1.834 c -2.53,0 -4.602,-2.07 -4.602,-4.603 0,-2.53 2.07,-4.6 4.602,-4.6 h 1.835 c 2.532,0 4.604,2.07 4.604,4.6 0,2.532 -2.072,4.604 -4.603,4.604" />
  <g
     id="g7648">
    <path
       d="m 337.02117,578.954 -31.254,-15.016 c -3.917,-1.88 -8.62,-0.23 -10.5,3.686 l -22.605,47.05 c -1.883,3.918 -0.233,8.62 3.685,10.5 l 31.254,15.015 c 3.917,1.884 8.617,0.234 10.5,-3.684 l 22.605,-47.05 c 1.88,-3.917 0.23,-8.62 -3.686,-10.5"
       id="calculator"
       style="fill:#687271" />
    <path
       d="m 333.72517,595.824 -39.07,-18.77 3.963,-8.246 39.07,18.77 -3.962,8.246"
       id="path4775"
       style="fill:#fffffa" />
    <path
       d="m 295.86017,591.378 -6.403,-3.076 3.076,-6.4 6.4,3.074 -3.074,6.402 m 10.403,4.997 -6.4,-3.075 3.074,-6.402 6.4,3.076 -3.075,6.4 m 10.406,5 -6.403,-3.076 3.075,-6.4 6.403,3.074 -3.076,6.402"
       id="path4777"
       style="fill:#67acb3" />
    <path
       d="m 327.07017,606.372 -6.402,-3.075 3.076,-6.404 6.402,3.076 -3.075,6.402"
       id="path4779"
       style="fill:#302f2b" />
    <path
       d="m 291.41717,600.624 -6.402,-3.076 3.076,-6.4 6.4,3.074 -3.074,6.402 m 10.404,4.998 -6.403,-3.075 3.077,-6.404 6.402,3.076 -3.076,6.402 m 10.402,4.999 -6.4,-3.076 3.074,-6.4 6.402,3.074 -3.076,6.402"
       id="path4781"
       style="fill:#67acb3" />
    <path
       d="m 322.62717,615.618 -6.4,-3.075 3.074,-6.402 6.402,3.076 -3.076,6.4"
       id="path4783"
       style="fill:#302f2b" />
    <path
       d="m 286.97517,609.87 -6.403,-3.076 3.076,-6.4 6.402,3.074 -3.075,6.402 m 10.402,4.998 -6.4,-3.075 3.075,-6.402 6.4,3.076 -3.074,6.4 m 10.403,5.001 -6.402,-3.078 3.077,-6.4 6.4,3.076 -3.076,6.4"
       id="path4785"
       style="fill:#67acb3" />
    <path
       d="m 318.18517,624.865 -6.402,-3.076 3.075,-6.4 6.404,3.075 -3.076,6.402 m -35.654,-5.748 -6.4,-3.078 3.074,-6.4 6.4,3.076 -3.075,6.4 m 10.406,4.999 -6.404,-3.076 3.076,-6.4 6.402,3.075 -3.075,6.402 m 10.404,4.997 -6.403,-3.075 3.076,-6.402 6.4,3.076 -3.074,6.4 m 10.403,5 -6.4,-3.077 3.074,-6.4 6.4,3.074 -3.075,6.404"
       id="path4787"
       style="fill:#302f2b" />
  </g>
  <path
     style="fill:#fcce7e"
     id="path4789"
     d="m 277.65217,763.428 7.406,-9.93 34.985,-14.812 c 3.695,-1.564 6.554,-4.62 7.87,-8.412 l 9.535,-24.32 c 1.216,-3.505 -0.846,-7.297 -4.45,-8.18 -2.85,-0.698 -5.806,0.665 -7.125,3.288 l -10.156,20.682 c -1.35,2.68 -3.51,4.864 -6.176,6.238 l -6.338,3.265 c -2.14,1.104 -4.345,-1.375 -2.997,-3.373 0.125,-0.186 0.223,-0.39 0.29,-0.603 l 5.49,-17.474 c 0.71,-2.26 -0.3,-4.704 -2.4,-5.803 -2.026,-1.062 -4.517,-0.578 -6,1.164 l -13.565,15.953 c -0.223,0.26 -0.5,0.468 -0.81,0.61 l -11.96,5.443 c -0.393,0.178 -0.728,0.462 -0.968,0.818 l -15.446,22.906 22.815,12.54 m -61.692,-153.767 12.16,2.36 35.847,-12.58 c 3.785,-1.33 7.957,-0.993 11.48,0.927 l 23.42,11.575 c 3.257,1.774 4.284,5.966 2.212,9.045 -1.638,2.435 -4.743,3.415 -7.482,2.36 l -21.43,-8.464 c -2.8,-1.076 -5.87,-1.236 -8.765,-0.458 l -6.886,1.847 c -2.33,0.625 -2.29,3.94 0.05,4.51 0.22,0.055 0.427,0.14 0.623,0.253 l 15.817,9.232 c 2.045,1.195 2.942,3.68 2.13,5.906 -0.784,2.15 -2.953,3.468 -5.223,3.177 l -20.767,-2.672 c -0.34,-0.042 -0.684,-0.01 -1.01,0.094 l -12.51,4.022 c -0.41,0.132 -0.85,0.148 -1.266,0.045 l -26.84,-6.55 8.438,-24.627" />
  <path
     style="fill:#8b58b2"
     id="path4791"
     d="m 273.91917,771.525 -28.74,-26.118 c -23.16,19.856 -49.547,34.7 -78.737,44.244 l 7.222,38.228 c 30.005,-9.24 66.07,-26 100.255,-56.355" />
  <path
     style="fill:#f8e3aa"
     id="path4793"
     d="m 282.93717,763.163 -26.87,-27.676 c -3.54,3.437 -7.177,6.736 -10.89,9.92 l 28.743,26.117 c 3.022,-2.683 6.03,-5.46 9.018,-8.362" />
  <path
     style="fill:#8b58b2"
     id="path4795"
     d="m 211.14717,604.914 c -45.748,0.935 -83.633,13.143 -111.947999,26.754 l 20.669999,32.96 c 27.812,-12.78 57.157,-19.81 87.532,-21.005 l 3.747,-38.71" />
  <path
     style="fill:#f8e3aa"
     id="path4797"
     d="m 222.43717,643.488 0.916,-38.562 c -4.13,-0.098 -8.194,-0.093 -12.205,-0.012 l -3.746,38.71 c 4.986,-0.197 9.996,-0.253 15.036,-0.135" />
  <path
     style="fill:#8b58b2"
     id="path4799"
     d="m 179.71117,825.955 c 0,0 7.514,-42.672 -16.354,-105.98 -22.04,-63.967 -55.063,-92.018 -55.063,-92.018 -40.513999,14.612 -64.866999,35.747 -35.352999,124.63 34.016999,87.256 66.254999,87.98 106.769999,73.368" />
  <path
     style="fill:#8b58b2"
     id="path4801"
     d="m 126.04717,649.364 c 0,0 66.294,29.014 37.31,70.612 l -40.07,-0.942 2.76,-69.67" />
  <path
     style="fill:#8b58b2"
     id="path4803"
     d="m 179.41017,797.303 c 0,0 32.507,-64.65 -16.357,-78.17 l -30.246,26.305 46.603,51.865" />
  <path
     style="fill:#fcce7e"
     id="path4805"
     d="m 127.73017,788.788 c -27.35,9.864 -57.516999,-4.31 -67.379999,-31.66 -9.865,-27.348 4.308,-57.515 31.657,-67.38 27.349999,-9.864 57.515999,4.31 67.379999,31.66 9.865,27.347 -4.31,57.515 -31.657,67.38" />
  <path
     style="fill:#fcce7e"
     id="path4807"
     d="m 99.267171,705.414 c -9.337,3.368 -19.002,0.29 -21.587,-6.876 -2.585,-7.166 2.89,-15.705 12.227,-19.074 9.338,-3.367 18.999999,-0.29 21.585999,6.878 2.585,7.165 -2.89,15.705 -12.226999,19.072 m 32.330999,89.632 c -9.34,3.367 -19.004,0.288 -21.59,-6.877 -2.582,-7.165 2.89,-15.704 12.23,-19.072 9.336,-3.368 19,-0.29 21.585,6.877 2.585,7.165 -2.89,15.705 -12.226,19.073" />
  <path
     style="fill:#6c3d33"
     id="path4809"
     d="m 163.28317,765.302 c 5.76,-8.584 7.78,-17.944 4.756,-26.324 -2.458,-6.816 -7.9,-11.996 -15.177,-15.273 -0.28,-0.772 -0.58,-1.532 -0.89,-2.283 3.63,-6.948 4.634,-14.144 2.28,-20.667 -5.106,-14.158 -24.394,-20.682 -46.17,-16.987 -7.27,-4.74 -17.079999,-6.036 -26.459999,-2.654 -10.912,3.938 -18.24,13.127 -19.595,23.078 -1.2,0.28 -2.397,0.61 -3.59,1.04 -15.086,5.44 -23.325,20.917 -18.4,34.57 0.635,1.762 1.468,3.405 2.454,4.924 -3.95,6.538 -5.094,14.376 -2.455,21.69 2.643,7.33 8.555,12.615 15.79,15.12 0.234,1.36 0.585,2.712 1.066,4.047 4.745,13.152 19.974,19.776 34.573,15.38 7.36,7.222 19.192999,9.87 30.403999,5.825 3.202,-1.155 6.094,-2.766 8.62,-4.713 4.713,0.612 9.73,0.14 14.633,-1.628 15.088,-5.443 23.327,-20.92 18.403,-34.57 -0.07,-0.2 -0.168,-0.38 -0.244,-0.576" />
  <path
     style="fill:#5b5562"
     id="path4817"
     d="m 438.81717,629.011 c 94.64,-12.664 189.664,-22.338 284.915,-29.004 3.996,-0.28 4.024,-6.532 0,-6.25 -95.25,6.665 -190.275,16.34 -284.915,29.003 -3.934,0.527 -3.985,6.783 0,6.25" />
  <path
     style="fill:#5b5562"
     id="path4819"
     d="m 557.95217,622.316 c -2.11,-4.41 -2.93,-6.962 -2.965,-7.068 l 2.382,-0.76 c 0.008,0.024 0.813,2.514 2.838,6.75 l -2.255,1.077 m 17.305,27.029 c -3.42,-4.294 -6.58,-8.676 -9.393,-13.025 l 2.1,-1.356 c 2.768,4.28 5.88,8.594 9.25,12.825 z m 22,23.304 c -4.014,-3.636 -7.87,-7.406 -11.468,-11.204 l 1.817,-1.72 c 3.55,3.753 7.363,7.476 11.33,11.07 l -1.68,1.854 z m 25.152,19.81 c -4.45,-3.06 -8.79,-6.25 -12.905,-9.484 l 1.545,-1.965 c 4.073,3.202 8.37,6.36 12.777,9.39 l -1.418,2.06 z m 27.375,16.57 c -4.763,-2.54 -9.447,-5.197 -13.918,-7.9 l 1.292,-2.137 c 4.433,2.678 9.075,5.312 13.803,7.83 z m 28.932,13.63 c -4.983,-2.07 -9.903,-4.245 -14.628,-6.468 l 1.064,-2.263 c 4.69,2.206 9.576,4.366 14.52,6.42 l -0.957,2.31 m 22.028,8.348 c -2.4,-0.828 -4.765,-1.668 -7.09,-2.518 l 0.86,-2.35 c 2.31,0.845 4.66,1.68 7.045,2.505 l -0.814,2.362 m -32.867,-213.6 c -0.004,-0.027 -0.573,-2.832 -1.723,-7.218 l 2.418,-0.635 c 1.17,4.463 1.734,7.245 1.758,7.36 l -2.452,0.493 m -7.956,-72.921 c -2.615,-3.436 -6.117,-7.07 -10.41,-10.806 l 1.64,-1.886 c 4.422,3.845 8.042,7.606 10.76,11.177 z m -47.9,8.193 -0.994,-2.295 c 5.34,-2.31 10.61,-3.06 15.614,-2.23 l -0.41,2.466 c -4.53,-0.753 -9.313,-0.06 -14.21,2.057 z m 36.806,15.665 c -3.074,-4.65 -6.332,-8.457 -9.682,-11.315 l 1.622,-1.903 c 3.53,3.01 6.942,6.995 10.146,11.84 l -2.085,1.378 z m 13.183,3.526 -1.657,-1.874 c 3.67,-3.245 5.53,-6.996 5.53,-11.15 0,-0.41 -0.017,-0.825 -0.054,-1.247 l 2.493,-0.207 c 0.04,0.49 0.06,0.976 0.06,1.452 0,4.902 -2.144,9.285 -6.373,13.024 z m -72.588,0.406 c -0.058,-0.362 -0.086,-0.73 -0.086,-1.093 0,-2.688 1.533,-5.558 4.554,-8.532 1.358,-1.335 2.726,-2.595 4.063,-3.747 l 1.632,1.893 c -1.297,1.117 -2.624,2.34 -3.942,3.638 -2.528,2.486 -3.81,4.757 -3.81,6.75 0,0.237 0.02,0.472 0.056,0.7 l -2.47,0.392 z m 43.657,10.495 -0.332,-2.477 c 5.334,-0.713 10.265,-1.833 14.66,-3.328 l 0.806,2.366 c -4.548,1.55 -9.64,2.706 -15.133,3.44 z m -15.46,0.845 c -5.718,-0.144 -11.053,-0.813 -15.425,-1.94 l 0.623,-2.42 c 4.192,1.08 9.332,1.723 14.866,1.86 l -0.063,2.5 z m 44.117,12.044 c -1.755,-5.04 -3.654,-9.777 -5.645,-14.085 l 2.27,-1.05 c 2.025,4.383 3.955,9.198 5.735,14.313 l -2.36,0.82 m -24.304,-71.333 c -1.956,-1.375 -4.035,-2.78 -6.18,-4.175 l 1.365,-2.096 c 2.17,1.412 4.273,2.834 6.253,4.224 l -1.437,2.046 m -220.9,163.427 c -0.026,-0.014 -2.675,-1.37 -6.78,-2.494 l 0.66,-2.412 c 4.38,1.2 7.154,2.627 7.27,2.686 l -1.15,2.22 m -35.092,0.974 -1.36,-2.098 c 4.434,-2.873 9.408,-4.62 14.785,-5.188 l 0.264,2.485 c -4.983,0.527 -9.59,2.143 -13.69,4.8 m -14.067,16.693 -2.233,-1.123 c 1.195,-2.374 2.5,-4.6 3.88,-6.612 l 2.062,1.415 c -1.317,1.92 -2.565,4.046 -3.708,6.32" />
  <path
     style="fill:#f68569"
     id="path4821"
     d="m 462.76717,460.588 -5.412,-3.35 10.277,-16.608 5.414,3.35 -10.28,16.608" />
  <path
     style="fill:#7fd4c8"
     id="path4823"
     d="m 472.91717,466.868 -5.412,-3.35 13.917,-22.486 5.414,3.35 -13.92,22.487" />
  <path
     style="fill:#bd1c2d"
     id="path4825"
     d="m 483.06717,473.152 -5.412,-3.35 16.752,-27.068 5.414,3.35 -16.753,27.068" />
  <path
     style="fill:#413739"
     id="path4827"
     d="m 484.15317,481.864 -35.393,-21.906 2.19,-3.54 35.395,21.906 -2.192,3.54" />
  <path
     style="fill:#e9f059"
     id="path4829"
     d="m 505.31717,432.325 -12.342,-8.673 0.056,4.896 -24.99,4.202 25.078,3.633 0.057,4.896 12.14,-8.952" />
  <path
     style="fill:#f7e65d"
     id="path4831"
     d="m 694.27917,646.124 c -4.562,-5.815 -13.138,-6.626 -18.72,-1.587 -4.65,4.196 -5.568,11.283 -2.132,16.52 1.66,2.534 4.022,4.268 6.635,5.148 4.564,1.538 8.63,4.275 11.88,7.828 l 0.07,0.075 4.896,-3.84 4.897,-3.842 -0.056,-0.085 c -2.675,-3.997 -4.375,-8.59 -4.776,-13.383 -0.203,-2.41 -1.087,-4.79 -2.692,-6.834" />
  <path
     style="fill:#4f4340"
     id="path4833"
     d="m 703.71217,667.401 -11.207,8.795 -3.862,-4.922 11.208,-8.795 3.86,4.923" />
  <path
     style="fill:#4f4340"
     id="path4835"
     d="m 692.71717,673.842 2.984,3.8 8.657,-6.793 -2.98,-3.8 -8.66,6.794 m -0.148,-4.175 -4.717,-3.855 c -1.616,-1.323 -3.415,-2.564 -4.685,-4.24 -0.716,-0.948 -1.104,-2.18 -1.406,-3.308 -0.435,-1.135 0.144,-1.988 1.736,-2.558 0.733,0.137 1.405,0.42 2.016,0.85 0.467,0.326 0.865,0.716 1.197,1.173 -0.944,0.577 -1.464,0.453 -1.56,-0.37 -0.27,-0.735 -0.31,-1.49 -0.118,-2.263 0.983,-1.09 1.923,-1.238 2.82,-0.448 0.9,0.582 1.24,1.73 0.008,0.31 -0.862,-0.994 -1.005,-2.418 -0.683,-3.642 0.383,-1.45 3.194,1.284 3.44,1.566 0.653,0.753 1.13,1.664 1.6,2.535 1.96,3.625 3.764,7.34 5.64,11.01 0.143,0.276 0.593,0.09 0.45,-0.19 -1.564,-3.052 -3.127,-6.106 -4.69,-9.16 -1.077,-2.103 -2.226,-4.99 -4.47,-6.13 -1.632,-0.83 -2.404,-0.605 -2.63,1.255 -0.227,1.874 1.078,3.587 2.658,4.38 0.107,0.055 0.283,-0.015 0.315,-0.136 0.287,-1.106 -0.923,-2.058 -1.828,-2.493 -1.337,-0.643 -2.4,-0.37 -3.082,0.964 -0.65,1.27 0.155,3.306 1.11,4.158 0.853,0.758 1.825,-0.324 1.672,-1.16 -0.27,-1.472 -2.577,-2.398 -3.807,-2.692 -1.84,-0.44 -2.665,0.886 -2.414,2.498 0.346,2.207 1.42,4.143 3.02,5.67 2.512,2.397 5.43,4.47 8.12,6.667 0.242,0.2 0.53,-0.19 0.29,-0.39" />
  <path
     style="fill:#ef2b3a"
     id="path4837"
     d="m 485.54917,698.696 h -7.5 c -2.757,0 -5,-2.243 -5,-5 v -35 c 0,-2.758 2.243,-5 5,-5 2.758,0 5,2.242 5,5 v 26.25 h -2.5 v -26.25 c 0,-1.38 -1.122,-2.5 -2.5,-2.5 -1.378,0 -2.5,1.12 -2.5,2.5 v 35 c 0,1.377 1.122,2.5 2.5,2.5 h 7.5 c 1.378,0 2.5,-1.123 2.5,-2.5 v -38.75 h 2.5 v 38.75 c 0,2.757 -2.242,5 -5,5" />
  <path
     style="fill:#78d0a9"
     id="path4839"
     d="m 488.77717,704.972 -6.854,-3.043 c -2.52,-1.117 -3.66,-4.077 -2.54,-6.597 l 14.2,-31.99 c 1.12,-2.52 4.078,-3.66 6.6,-2.542 2.52,1.12 3.66,4.08 2.54,6.6 l -10.65,23.992 -2.286,-1.015 10.65,-23.99 c 0.56,-1.26 -0.01,-2.74 -1.27,-3.3 -1.26,-0.56 -2.74,0.01 -3.3,1.27 l -14.2,31.99 c -0.56,1.26 0.01,2.74 1.27,3.3 l 6.855,3.042 c 1.26,0.56 2.74,-0.01 3.3,-1.27 l 15.723,-35.42 2.284,1.016 -15.722,35.416 c -1.12,2.522 -4.08,3.66 -6.6,2.542" />
  <path
     style="fill:#f5d019"
     id="path4845"
     d="m 624.65217,636.743 c 0,2.894 -2.346,5.24 -5.24,5.24 -2.893,0 -5.237,-2.346 -5.237,-5.24 0,-2.894 2.345,-5.24 5.237,-5.24 2.894,0 5.24,2.346 5.24,5.24" />
  <path
     style="fill:#fae03c"
     id="path4847"
     d="m 745.91717,479.054 c 0,2.893 -2.344,5.24 -5.237,5.24 -2.894,0 -5.24,-2.347 -5.24,-5.24 0,-2.894 2.346,-5.24 5.24,-5.24 2.893,0 5.238,2.346 5.238,5.24" />
  <path
     style="fill:#83d28c"
     id="path4849"
     d="m 528.83517,508.723 c 0,2.894 -2.345,5.24 -5.24,5.24 -2.892,0 -5.238,-2.346 -5.238,-5.24 0,-2.893 2.346,-5.24 5.24,-5.24 2.893,0 5.238,2.348 5.238,5.24 m 97.712,154.78 h 16.015 l -8.006,-13.97 -8.01,13.97 z m 18.17,1.25 h -20.324 l 10.163,-17.736 10.16,17.735" />
  <path
     style="fill:#eb41a9"
     id="path4851"
     d="m 797.26917,502.432 -1.637,-15.93 -13.08,9.395 14.718,6.534 z m -0.615,-18.2 2.08,20.216 -18.682,-8.294 16.602,-11.923" />
  <path
     style="fill:#f1495f"
     id="path4855"
     d="m 548.29717,492.388 14.81,-6.098 -12.725,-9.87 -2.084,15.968 z m 17.278,-5.763 -18.794,7.74 2.643,-20.27 16.15,12.53 m 40.303,229.673 2.303,-15.848 -14.978,5.915 z m 3.85,-17.8 -2.922,20.112 -16.092,-12.606 19.013,-7.507" />
  <text
     transform="matrix(1.0556933,-0.16153721,0.1855956,0.91884585,0,0)"
     id="text7613"
     y="718.21442"
     x="325.61917"
     style="font-style:normal;font-variant:normal;font-weight:normal;font-stretch:normal;font-size:42.87533569px;line-height:26.79708481px;font-family:'Comic Sans MS';-inkscape-font-specification:'Comic Sans MS, Normal';font-variant-ligatures:normal;font-variant-caps:normal;font-variant-numeric:normal;font-feature-settings:normal;text-align:start;letter-spacing:0px;word-spacing:0px;writing-mode:lr-tb;text-anchor:start;fill:#5b5562;fill-opacity:1;stroke:none;stroke-width:1.07188344"
     xml:space="preserve"><tspan
       style="fill:#5b5562;fill-opacity:1;stroke-width:1.07188344"
       y="718.21442"
       x="325.61917"
       id="tspan7611">SUCCESS</tspan></text>
</svg>
